<svg xmlns="http://www.w3.org/2000/svg" xmlns:xlink="http://www.w3.org/1999/xlink" viewBox="0 0 131.32 138.5"><defs><clipPath id="a"><rect x="446.4" y="442.75" width="131.19" height="138.5" style="fill:none;clip-path:url(#b)"/></clipPath><clipPath id="b"><rect x="446.4" y="442.75" width="131.19" height="138.5" style="fill:none;clip-path:url(#a)"/></clipPath><clipPath id="p" transform="translate(-446.4 -442.75)"><rect x="446.4" y="442.75" width="131.19" height="138.5" style="fill:none"/></clipPath></defs><title>VfL Bochum logo</title><g style="clip-path:url(#p)"><g style="clip-path:url(#p)"><path d="M512.06,442.75h0c-22.43,0-47,6.55-65.66,17.14,1.89,67.17,38.31,102.71,65.66,121.36,27.22-18.65,63.64-54.19,65.66-121.36-18.78-10.59-43.35-17.14-65.66-17.14" transform="translate(-446.4 -442.75)" style="fill:#005ba4"/><path d="M512.06,450.56a121.94,121.94,0,0,0-20,1.76c3.15,38.06,19.28,69.19,48.14,92.63,17.9-22.31,27.73-49.28,29.49-80.53a133.58,133.58,0,0,0-57.59-13.86" transform="translate(-446.4 -442.75)" style="fill:#fff"/><path d="M512.06,447.92a134.09,134.09,0,0,1,60.37,15C570.29,510.3,550,548,512.06,575.07c-37.93-27.22-58.22-64.9-60.37-112.16a134.09,134.09,0,0,1,60.37-15m0-2.39a136.22,136.22,0,0,0-62.89,16c1.89,49.4,23.06,88.59,62.89,116.57,39.82-28,61-67.17,62.89-116.57a137,137,0,0,0-62.89-16" transform="translate(-446.4 -442.75)" style="fill:#fff"/><path d="M505.26,480.81a7.11,7.11,0,0,0,.88-.13,1.06,1.06,0,0,0,.5-.88v-7.56c0-.5-.13-.76-.38-.88s-.5-.13-.88-.13v-.38h4.79a6.1,6.1,0,0,1,2.27.38,2.24,2.24,0,0,1,1.76,2.14,1.8,1.8,0,0,1-.76,1.51,4.26,4.26,0,0,1-1.51.76v-.13a4.25,4.25,0,0,1,1.51.5,2.34,2.34,0,0,1,1.26,2.14,2.64,2.64,0,0,1-1.13,2.14,5.83,5.83,0,0,1-3.15.76h-5v-.25Zm5.8-5.92c.38-.25.5-.88.5-1.64a2.69,2.69,0,0,0-.38-1.51,1.39,1.39,0,0,0-1.26-.63c-.38,0-.5,0-.63.13a.74.74,0,0,0-.25.63v3.53a2.78,2.78,0,0,0,2-.5m-1.89,5.42a.76.76,0,0,0,.76.38,1.72,1.72,0,0,0,1.51-.63,3.26,3.26,0,0,0,.5-1.76,2.46,2.46,0,0,0-1-2.27,2.75,2.75,0,0,0-1.89-.25v3.91a2.56,2.56,0,0,0,.13.63" transform="translate(-446.4 -442.75)" style="fill:#005ba4"/><path d="M516.73,474.89a3.37,3.37,0,0,1,5,0,4,4,0,0,1,0,5.29,3.37,3.37,0,0,1-5,0,4.15,4.15,0,0,1-1-2.77,3.41,3.41,0,0,1,1-2.52m1.39,5c.13.63.5,1,1,1a1,1,0,0,0,1-.76,12.73,12.73,0,0,0,0-5,1,1,0,0,0-1-.76c-.5,0-.88.38-1,1a20.48,20.48,0,0,0,0,4.54" transform="translate(-446.4 -442.75)" style="fill:#005ba4"/><path d="M529.2,474.26a1.53,1.53,0,0,1,.76,1.26,1.79,1.79,0,0,1-.25.76c-.13.25-.38.25-.76.25s-.38,0-.5-.13a1,1,0,0,1-.38-.88V475c0-.25-.13-.5-.25-.5s-.25-.13-.5-.13a1,1,0,0,0-1,.76,4,4,0,0,0-.25,1.76,4.48,4.48,0,0,0,.63,2.39,1.78,1.78,0,0,0,1.51,1,2.37,2.37,0,0,0,1-.25,2.84,2.84,0,0,0,.63-.63l.25.25a4.94,4.94,0,0,1-1.76,1.51,3.68,3.68,0,0,1-1.13.25,2.93,2.93,0,0,1-2.39-1.13,4.07,4.07,0,0,1-1-2.65,4.15,4.15,0,0,1,1-2.77,3.25,3.25,0,0,1,2.65-1.13,3.64,3.64,0,0,1,1.76.5" transform="translate(-446.4 -442.75)" style="fill:#005ba4"/><path d="M530.84,480.81a1,1,0,0,0,.63-.25,1.07,1.07,0,0,0,.25-.76v-7.94a.94.94,0,0,0-.13-.63A1,1,0,0,0,531,471v-.38h3V475a6.31,6.31,0,0,1,1-.88,2,2,0,0,1,1.13-.38,2,2,0,0,1,1.51.5,2.29,2.29,0,0,1,.63,1.76v3.78c0,.38,0,.63.13.63a1,1,0,0,0,.63.25v.38h-3.65v-.38a1,1,0,0,0,.63-.25c.13-.13.13-.25.13-.63V476c0-.38,0-.63-.13-.76a.69.69,0,0,0-.76-.5,1.68,1.68,0,0,0-.88.38c-.25.25-.38.38-.38.5v4.16c0,.38,0,.5.13.63s.25.13.63.25v.38H531v-.25Z" transform="translate(-446.4 -442.75)" style="fill:#005ba4"/><path d="M542.18,474v5.29a.94.94,0,0,0,.13.63.76.76,0,0,0,.76.38,1.79,1.79,0,0,0,.76-.25,1.74,1.74,0,0,1,.5-.38v-4.41a.74.74,0,0,0-.25-.63,1.07,1.07,0,0,0-.76-.25V474h3.15v5.67c0,.38,0,.5.13.63a1.07,1.07,0,0,0,.76.25v.38a8.94,8.94,0,0,0-1.76.25,4.11,4.11,0,0,0-1.26.38v-1a2.91,2.91,0,0,1-.88.63,2.54,2.54,0,0,1-1.39.38,1.9,1.9,0,0,1-1.39-.5,2.29,2.29,0,0,1-.63-1.76v-3.91c0-.38,0-.5-.13-.63s-.25-.13-.63-.25v-.38h2.9Z" transform="translate(-446.4 -442.75)" style="fill:#005ba4"/><path d="M548.36,480.81a5.46,5.46,0,0,0,.63-.13,1.07,1.07,0,0,0,.25-.76v-4.54c0-.38,0-.5-.13-.63a1,1,0,0,0-.63-.25v-.38h2.9v1.13a2.14,2.14,0,0,1,.76-.76,2.42,2.42,0,0,1,1.51-.5,2,2,0,0,1,1.51.5c.25.13.38.5.5.88h.13a2.36,2.36,0,0,1,.88-.76,2.64,2.64,0,0,1,1.39-.5,1.9,1.9,0,0,1,1.39.5,2.18,2.18,0,0,1,.63,1.64v3.91c0,.38,0,.63.13.63s.38.13.63.25v.38h-3.65v-.38a1,1,0,0,0,.63-.25.94.94,0,0,0,.13-.63V476.4c0-.38,0-.76-.13-.88a.69.69,0,0,0-.63-.38,1.68,1.68,0,0,0-.88.38c-.25.25-.5.38-.5.5v4.16c0,.38,0,.5.13.63s.25.13.63.25v.38h-3.65v-.38a1,1,0,0,0,.63-.25.94.94,0,0,0,.13-.63V476.4c0-.38,0-.76-.13-.88a.69.69,0,0,0-.63-.38,1.14,1.14,0,0,0-.88.38c-.25.25-.38.38-.38.5v4.16c0,.38,0,.5.13.63s.25.13.63.25v.38h-3.78v-.63Z" transform="translate(-446.4 -442.75)" style="fill:#005ba4"/><path d="M518.24,499.84c.76,0,1.39-.13,1.51-.38a1.67,1.67,0,0,0,.38-1.26V492a1.87,1.87,0,0,0-.13-.88.65.65,0,0,0-.5-.25,1.37,1.37,0,0,0-.63.13,5,5,0,0,0-.76.25v-.38l4-1.76h.25v9.07a1.81,1.81,0,0,0,.25,1.13,2.57,2.57,0,0,0,1.39.25V500h-5.8Z" transform="translate(-446.4 -442.75)" style="fill:#005ba4"/><path d="M529.45,492.66a2.46,2.46,0,0,0,.13-1,2.26,2.26,0,0,0-.38-1.39,1.23,1.23,0,0,0-1.13-.5,1.29,1.29,0,0,0-1.26,1.26,2,2,0,0,0,.88,1.64,5.92,5.92,0,0,0,1.13.76,1.68,1.68,0,0,0,.63-.76m-2.65,6.3a1.47,1.47,0,0,0,1.39,1,1.68,1.68,0,0,0,1-.38,2,2,0,0,0,.38-1.39,2.65,2.65,0,0,0-.63-1.64,11.26,11.26,0,0,0-1.51-1.13c-.25.5-.5.76-.63,1a3.28,3.28,0,0,0,0,2.52m-1.26-3.15a6.83,6.83,0,0,1,1.39-.76v-.13c-.13,0-.38-.25-.76-.5a5.82,5.82,0,0,1-.88-.88,1.36,1.36,0,0,1-.38-.88,1.6,1.6,0,0,1-.13-.76,2.84,2.84,0,0,1,1-2,4.13,4.13,0,0,1,2.65-.76,3.74,3.74,0,0,1,2.27.63,2.22,2.22,0,0,1,.76,1.64,2,2,0,0,1-.88,1.64,3,3,0,0,1-1.26.63v.13a5.55,5.55,0,0,1,1.51,1.39,3.09,3.09,0,0,1,.76,2,3.23,3.23,0,0,1-1,2.39,4.07,4.07,0,0,1-2.77.88,4.72,4.72,0,0,1-2.27-.63,2.16,2.16,0,0,1-1-2,2.85,2.85,0,0,1,1-2" transform="translate(-446.4 -442.75)" style="fill:#005ba4"/><path d="M536.51,496.18v-4.54h-.13l-3,4.28v.13h3.15Zm-3.78-.38c0-.13.25-.25.38-.63l1.64-2.39,2.14-2.9.63-.88h1.26v6.93h1v1.76h-1V500h-2.27V497.7h-4v-1.76c.13.13.13,0,.25-.13" transform="translate(-446.4 -442.75)" style="fill:#005ba4"/><path d="M545.46,492.66a2.46,2.46,0,0,0,.13-1,2.26,2.26,0,0,0-.38-1.39,1.23,1.23,0,0,0-1.13-.5,1.29,1.29,0,0,0-1.26,1.26,2,2,0,0,0,.88,1.64,5.92,5.92,0,0,0,1.13.76,1.68,1.68,0,0,0,.63-.76m-2.65,6.3a1.47,1.47,0,0,0,1.39,1,1.68,1.68,0,0,0,1-.38,2,2,0,0,0,.38-1.39,2.65,2.65,0,0,0-.63-1.64,11.26,11.26,0,0,0-1.51-1.13c-.25.5-.5.76-.63,1a3.28,3.28,0,0,0,0,2.52m-1.26-3.15a6.83,6.83,0,0,1,1.39-.76v-.13c-.13,0-.38-.25-.76-.5a5.82,5.82,0,0,1-.88-.88,1.36,1.36,0,0,1-.38-.88,1.6,1.6,0,0,1-.13-.76,2.84,2.84,0,0,1,1-2,4.13,4.13,0,0,1,2.65-.76,3.74,3.74,0,0,1,2.27.63,2.22,2.22,0,0,1,.76,1.64,2,2,0,0,1-.88,1.64,3,3,0,0,1-1.26.63v.13a5.55,5.55,0,0,1,1.51,1.39,3.09,3.09,0,0,1,.76,2,3.23,3.23,0,0,1-1,2.39,4.07,4.07,0,0,1-2.77.88,4.72,4.72,0,0,1-2.27-.63,2.16,2.16,0,0,1-1-2,2.85,2.85,0,0,1,1-2" transform="translate(-446.4 -442.75)" style="fill:#005ba4"/><path d="M472.62,469H456.23v.63s0,.38.5.38a3.59,3.59,0,0,1,3,2.14c.76,1.76,13.48,30.5,13.48,30.5a1.53,1.53,0,0,0,.63.13.74.74,0,0,0,.5-.13L486,473.5a16.16,16.16,0,0,1,1.76-2.77c.63-.76,1.26-.63,1.76-.76s.63-.38.63-.5V469H479.93v.38c0,.25.38.5.5.5.88,0,3.15.13,3.65,1.51s-.76,3.65-.76,3.65l-6.68,16.38-7.94-18s-.76-1.89-.13-2.77,2-.88,2.77-.88a2.09,2.09,0,0,0,1.26-.38c0,.13,0-.38,0-.38" transform="translate(-446.4 -442.75)" style="fill:#fff"/><path d="M513.83,524.67H497.07s0,.88.76,1c.38,0,3,.38,3.28,1.64,0,.25.13,23.82.13,23.82s0,3.78-.63,4.41a12.63,12.63,0,0,1-3.15,1.26.12.12,0,0,0-.13.13v.5a.12.12,0,0,0,.13.13H525l2-10.71c0-.13-.13-.25-.13-.13l-.88.13a.12.12,0,0,0-.13.13A14.27,14.27,0,0,1,522,553.4a10.4,10.4,0,0,1-5.42,2.77,16.18,16.18,0,0,1-4.91.13,6.36,6.36,0,0,1-2.27-1.39,20.46,20.46,0,0,1-.13-2.65V529.33s0-2.14.76-2.77a7.13,7.13,0,0,1,3.15-1c.76,0,.76-.88.76-.88h-.13Z" transform="translate(-446.4 -442.75)" style="fill:#fff"/><path d="M493.29,504.12v-1.76a.12.12,0,0,0-.13-.13h-2.77V495.3a2.79,2.79,0,0,1,1.89-2.9,2.4,2.4,0,0,1,1.64.25c.38.25.25.63.13.88a3.71,3.71,0,0,0-.88,2.52c-.13,1.89,1.13,2.39,2.9,2.39a2.31,2.31,0,0,0,2.52-2.14,6,6,0,0,0-.63-2.9h0a.12.12,0,0,0-.13-.13.12.12,0,0,0-.13-.13c-1.13-1.76-3.65-2.14-5.29-2.27h-1.26a8.82,8.82,0,0,0-4.28,1.51c-3,1.89-3,5.8-3,5.8v4h-2.14a.12.12,0,0,0-.13.13v1.76a.12.12,0,0,0,.13.13h2.39v40.83c2,2.52,4.16,5,6.43,7.44V504.25h2.77c-.13,0,0,0,0-.13" transform="translate(-446.4 -442.75)" style="fill:#fff"/></g></g></svg>