<?xml version="1.0" encoding="UTF-8"?><svg id="uuid-b68de99a-0cf7-4081-88ff-7f351fb413eb" xmlns="http://www.w3.org/2000/svg" viewBox="0 0 71 71">
<title>SV Darmstadt 98 logo - Brandlogos.net</title><g id="uuid-8ed22554-a653-463b-b9ed-2efbd760ba89"><g id="uuid-cf3ff61a-9b64-4e2c-8f20-1919e931dbeb"><path id="uuid-5a3d95de-a425-4d93-a9c2-f4bb2fa6ddb4" d="M35.5,70.87c19.54,0,35.37-15.84,35.37-35.37S55.04.13,35.5.13.13,15.96.13,35.5s15.84,35.37,35.37,35.37Z" style="fill:#fff;"/><path id="uuid-bcc2e018-c8f3-4def-86be-281792f8b202" d="M35.5,71C15.93,71,0,55.07,0,35.5S15.93,0,35.5,0s35.5,15.93,35.5,35.5-15.93,35.5-35.5,35.5ZM35.5.25C16.06.25.25,16.06.25,35.5s15.81,35.25,35.25,35.25,35.25-15.81,35.25-35.25S54.94.25,35.5.25Z" style="fill:#004c99;"/><path id="uuid-1ac75d65-3391-4c75-a5e0-0ae640d0ab7a" d="M35.5,12.6c-12.71,0-23.02,10.32-23.02,23.02s10.32,23.02,23.02,23.02,23.02-10.32,23.02-23.02-10.32-23.02-23.02-23.02Z" style="fill:#004c99;"/><path id="uuid-eed14632-6c81-4963-b126-bf67f2c5ba62" d="M35.5,69.4C16.87,69.4,1.73,54.25,1.73,35.63S16.87,1.86,35.5,1.86s33.77,15.15,33.77,33.77-15.15,33.77-33.77,33.77ZM35.5,3.15C17.58,3.15,3,17.71,3,35.63s14.59,32.5,32.5,32.5,32.5-14.59,32.5-32.5S53.42,3.15,35.5,3.15Z" style="fill:#004c99;"/><path id="uuid-212b8947-43f6-448e-87b2-005abcdc5587" d="M10.06,45.33l-1.3.38c-1.25.36-2.26-.2-2.69-1.65l-.51-1.78c-.08-.23-.03-.33.23-.41l4.75-1.37c.23-.08.33,0,.41.23l.51,1.78c.41,1.45-.13,2.46-1.4,2.82ZM10.34,42.84l-.25-.84-3.13.91.25.84c.2.66.61.91,1.19.76l1.3-.38c.61-.2.81-.64.64-1.3h0Z" style="fill:#004c99;"/><path id="uuid-09f9f33a-9ae3-4044-92b7-283df86d143e" d="M9.2,51.41l-.25-.53c-.18-.36-.18-.48,0-.66l.56-.56-.86-1.73-.76.1c-.23.03-.33-.03-.51-.38l-.25-.48c-.1-.2-.05-.3.18-.33l5.31-.56c.23-.03.31.03.41.23l.28.53c.1.2.1.3-.05.46l-3.63,3.94c-.18.2-.3.18-.41-.03h0ZM12.1,47.32l-.03-.08s-.51.25-1.09.33l-1.27.18.58,1.14.92-.91c.38-.38.89-.66.89-.66h0Z" style="fill:#004c99;"/><path id="uuid-8e87449d-e462-430c-b1b0-01c780ef3026" d="M15.45,53.54c-.64.48-1.27.56-1.83.25-.03.1-.08.2-.13.3l-.76,1.58c-.08.2-.23.25-.38.08l-.38-.51c-.25-.33-.28-.48-.15-.71l.61-1.19c.18-.36.18-.53-.1-.91l-.2-.25-1.32.99c-.2.15-.3.13-.46-.05l-.38-.51c-.15-.18-.13-.3.05-.46l3.94-2.97c.2-.15.31-.13.46.05l1.32,1.75c.71.89.61,1.88-.28,2.57ZM14.76,51.56l-.66-.86-1.04.79.66.86c.25.33.58.38.92.13.33-.25.38-.58.13-.91Z" style="fill:#004c99;"/><path id="uuid-b67f4178-d154-4d68-a369-11e29d27638c" d="M21.17,56.67l-3.23,3.79c-.15.18-.25.18-.46.03l-.46-.38c-.18-.15-.18-.25-.03-.43l1.17-1.37c.3-.36.69-.71,1.35-1.17l-.05-.05c-.48.3-.97.53-1.42.71l-1.07.41c-.18.08-.28.08-.41-.05l-.28-.23c-.15-.13-.18-.2-.13-.41l.23-1.12c.08-.48.25-.97.51-1.5l-.05-.05c-.38.74-.63,1.12-.97,1.5l-1.14,1.35c-.15.18-.25.18-.43.02l-.43-.36c-.18-.15-.2-.28-.05-.46l3.23-3.79c.15-.18.28-.18.46-.03l.38.33c.2.18.23.25.18.48l-.63,2.97,2.82-1.09c.23-.08.31-.08.48.1l.43.36c.15.13.15.25,0,.43Z" style="fill:#004c99;"/><path id="uuid-1bca495c-d8de-4a72-a66f-edad2bdf3e12" d="M23.84,57.58c1.02.53,1.37,1.17,1.32,2.01,0,.25-.1.3-.36.3l-.66-.05c-.23,0-.28-.08-.28-.33,0-.38-.13-.66-.58-.89-.56-.31-.89-.28-1.07.05-.2.38.23.71.76,1.07.76.53,1.65,1.27.99,2.49-.51.97-1.63,1.17-2.92.51-1.09-.58-1.47-1.3-1.35-2.16.03-.23.15-.31.38-.25l.61.08c.25.03.3.1.28.36-.03.38.2.71.63.97.59.31,1.02.33,1.22-.05.18-.36-.18-.66-.69-.99-.79-.53-1.8-1.27-1.12-2.54.51-.94,1.53-1.25,2.82-.56Z" style="fill:#004c99;"/><path id="uuid-30138ff7-1ac3-4206-bbde-2d4a133adbca" d="M29.99,60.4l-.15.51c-.08.23-.18.28-.41.2l-1.17-.36-1.22,3.91c-.08.23-.18.28-.41.2l-.61-.2c-.23-.08-.28-.18-.2-.41l1.22-3.91-1.17-.38c-.23-.08-.28-.18-.2-.41l.15-.51c.08-.23.18-.28.41-.2l3.58,1.12c.2.1.25.2.18.43h0Z" style="fill:#004c99;"/><path id="uuid-b07f7ad3-4841-4809-9fb7-9687ce7598cd" d="M33.26,66.22l-.58-.1c-.38-.05-.51-.15-.53-.38l-.13-.76-1.93-.31-.36.69c-.1.2-.23.25-.61.2l-.53-.08c-.23-.02-.28-.15-.15-.36l2.64-4.65c.1-.2.2-.23.43-.2l.61.1c.23.03.3.1.36.31l1.07,5.26c.03.2-.05.3-.28.28ZM31.61,61.47h-.08s-.08.56-.36,1.07l-.59,1.14,1.27.2-.2-1.27c-.1-.58-.05-1.14-.05-1.14h0Z" style="fill:#004c99;"/><path id="uuid-8011edf7-8b78-4e7a-a9a5-3e396ca518ea" d="M38.55,62.64l.03,1.35c.03,1.3-.76,2.13-2.26,2.19l-1.85.05c-.23,0-.33-.08-.33-.3l-.13-4.96c0-.25.08-.33.31-.33l1.86-.05c1.5-.03,2.36.76,2.39,2.06h0ZM36.19,61.75l-.86.03.08,3.25.86-.03c.69-.02,1.04-.36,1.04-.97l-.03-1.35c-.02-.63-.41-.94-1.09-.94h0Z" style="fill:#004c99;"/><path id="uuid-618a1b25-964b-47c5-bf0f-9f45a8d84c30" d="M43.07,59.87l.1.51c.05.23,0,.33-.25.38l-1.19.25.89,4.02c.05.23,0,.33-.25.38l-.64.13c-.23.05-.33,0-.38-.25l-.89-4.02-1.22.25c-.23.05-.33,0-.38-.23l-.1-.51c-.05-.23,0-.33.25-.38l3.66-.81c.25-.03.36.03.41.28Z" style="fill:#004c99;"/><path id="uuid-f96e2488-4861-4823-9907-9f369cf6b06c" d="M47.49,57.94l2.13,4.47c.1.23.05.33-.15.43l-.58.28c-.2.1-.33.08-.43-.15l-1.6-3.33-.51.71c-.15.23-.31.25-.48.1l-.46-.33c-.18-.13-.18-.25-.05-.46l.94-1.37c.1-.18.18-.23.36-.31l.41-.2c.23-.1.33-.08.43.15h0Z" style="fill:#004c99;"/><path id="uuid-3262963a-e274-49b1-b397-973f7a124937" d="M49.48,56.19c1.12-.76,2.01-.69,2.57.13.36.51.28,1.02.15,1.35.53-.05,1.04.08,1.45.66.56.84.43,1.78-.89,2.67-1.32.89-2.19.71-2.69-.05-.38-.58-.25-1.17-.08-1.55-.46,0-.91-.2-1.27-.71-.58-.86-.28-1.78.76-2.49ZM50.09,57.07c-.41.28-.51.58-.3.89.2.31.51.28.94.13l.33-.1c.13-.23.2-.53,0-.86-.2-.33-.56-.33-.97-.05ZM51.05,59.18c-.15.23-.28.56-.03.94.2.31.56.36,1.09-.02.56-.38.61-.69.38-.99-.25-.46-.76-.18-1.45.08h0Z" style="fill:#004c99;"/><path id="uuid-a05bff6b-ce01-409b-ba3f-1ac473d1cff8" d="M55.45,56.03c-1.04,1.02-1.93,1.04-2.8.18-.81-.81-.71-1.91.28-2.85,1.02-1.02,2.11-.97,3.05-.05l1.14,1.17c.92.94.92,2.03-.1,3.02-.81.79-1.6.94-2.39.58-.23-.1-.25-.2-.15-.43l.25-.56c.1-.23.2-.23.43-.15.33.15.66.05,1.02-.28.43-.43.46-.86.03-1.3l-.13-.13c-.1.2-.31.46-.64.79ZM53.75,54.18c-.43.43-.48.81-.18,1.12.3.33.66.3,1.14-.15.36-.36.51-.61.56-.74l-.25-.25c-.41-.41-.84-.41-1.27.03Z" style="fill:#004c99;"/><path id="uuid-e3391906-49d7-413c-a4b1-8474e010ab1b" d="M55.86,49.93c.76-1.09,1.63-1.35,2.44-.76.51.36.61.86.61,1.22.48-.23,1.02-.3,1.6.13.81.58,1.02,1.5.1,2.8-.92,1.3-1.78,1.45-2.54.89-.59-.41-.64-1.02-.61-1.42-.43.15-.92.13-1.42-.23-.86-.61-.91-1.6-.18-2.62ZM56.74,50.54c-.28.41-.28.74.03.94.31.23.58.08.94-.23l.25-.23c.05-.28,0-.58-.3-.81-.31-.18-.64-.05-.92.33ZM58.4,52.2c-.05.25-.05.64.3.89.31.23.64.15,1.02-.41.38-.53.33-.86.03-1.07-.43-.33-.81.1-1.35.58Z" style="fill:#004c99;"/><path id="uuid-75e74fec-d903-4f03-a91d-c084be290623" d="M60.23,46.6c.46-.99,1.22-1.19,1.93-.89l.36.15c.18.08.25.2.15.46l-.74,1.68.15.08c.33.15.56,0,.71-.33.13-.28.1-.51.02-.69-.1-.15-.1-.25.08-.38l.28-.23c.15-.13.28-.1.41.05.25.38.28.89-.03,1.58-.46,1.04-1.22,1.19-1.98.84l-.64-.28c-.89-.38-1.12-1.09-.71-2.03h0ZM60.96,46.94c-.15.36-.08.61.23.74l.1.05.48-1.07-.1-.05c-.31-.13-.56-.03-.71.33Z" style="fill:#004c99;"/><path id="uuid-08f89a17-242d-4059-842c-87a9d492dab6" d="M64.19,45.16l.08.03c.23.08.28.18.2.41l-.03.08c-.08.23-.18.28-.41.2l-.08-.03c-.23-.08-.28-.18-.2-.41l.03-.08c.08-.25.18-.3.41-.2Z" style="fill:#004c99;"/><path id="uuid-0a924439-195a-4929-9651-d573616c1a99" d="M61.29,40.58l3.66,2.57c.15.1.18.2.13.38l-.15.51c-.05.18-.1.25-.31.25l-4.47.33c-.18.03-.25-.05-.2-.25l.13-.48c.1-.33.18-.41.36-.41l2.59-.08c.38,0,.81.05.81.05l.03-.05s-.38-.15-.71-.38l-2.19-1.4c-.18-.1-.2-.2-.1-.53l.13-.46c.05-.13.15-.15.31-.05h0Z" style="fill:#004c99;"/><path id="uuid-fb97dafd-b3b5-48c9-8641-896822eb42c2" d="M65.13,41.6l.08.03c.23.05.3.15.25.38l-.03.08c-.05.23-.15.3-.38.25l-.08-.03c-.25-.05-.31-.15-.25-.38l.03-.08c.05-.25.15-.3.38-.25Z" style="fill:#004c99;"/><path id="uuid-ca41624d-c55b-4366-a460-b1bf61b7c054" d="M11.44,16.7c.71-.91,1.37-1.14,2.21-.94.25.05.28.18.23.41l-.18.64c-.05.23-.13.25-.38.23-.36-.08-.69.03-.99.41-.41.51-.43.84-.15,1.07.33.25.74-.1,1.19-.56.66-.66,1.53-1.4,2.62-.53.84.66.86,1.8-.03,2.95-.76.97-1.53,1.22-2.36.94-.23-.08-.28-.2-.2-.41l.2-.58c.08-.23.15-.28.41-.2.36.08.74-.08,1.07-.46.41-.53.51-.94.15-1.22-.31-.25-.69.08-1.09.48-.66.69-1.55,1.55-2.69.66-.81-.64-.92-1.7,0-2.87Z" style="fill:#004c99;"/><path id="uuid-bf9bef88-9fec-44eb-9832-250c73094f72" d="M18.53,12.48c.76.89.69,1.91-.23,2.69l-.86.76.99,1.14c.15.18.15.3-.02.46l-.48.41c-.18.15-.31.15-.46-.03l-3.25-3.76c-.15-.18-.15-.3.03-.46l1.6-1.37c.89-.79,1.93-.74,2.69.15h0ZM17.53,13.34c-.31-.33-.69-.38-1.02-.08l-.76.66.94,1.09.76-.66c.33-.3.36-.69.08-1.02h0Z" style="fill:#004c99;"/><path id="uuid-b594619b-3046-4b2b-8a2a-493283be0721" d="M20.2,9.1c1.3-.74,2.41-.46,3.08.66l.79,1.37c.66,1.14.33,2.26-.97,3-1.3.74-2.41.46-3.08-.66l-.79-1.37c-.64-1.14-.33-2.26.97-3ZM20.79,10.11c-.58.33-.74.79-.43,1.32l.81,1.42c.3.53.79.61,1.37.28.58-.33.76-.79.46-1.32l-.81-1.42c-.33-.53-.81-.61-1.4-.28Z" style="fill:#004c99;"/><path id="uuid-047ed8c1-7c25-4707-8c2c-0c1e35d282ef" d="M28.54,7.7c.25.74.1,1.37-.36,1.83.08.05.15.13.25.2l1.27,1.22c.15.15.18.3-.05.38l-.61.2c-.38.13-.53.1-.74-.08l-.94-.97c-.28-.28-.46-.33-.89-.2l-.3.1.53,1.58c.08.23.03.33-.2.41l-.61.2c-.23.08-.33.03-.41-.2l-1.58-4.7c-.08-.23-.02-.33.2-.41l2.06-.69c1.09-.38,1.98.03,2.36,1.12h0ZM26.45,7.7l-1.04.36.41,1.22,1.04-.36c.41-.13.53-.43.41-.81-.13-.38-.43-.53-.81-.41Z" style="fill:#004c99;"/><path id="uuid-8789491f-a49f-4f82-96ca-4baa96749356" d="M33.26,5.44l.08.53c.03.23-.03.33-.28.36l-1.22.18.58,4.07c.03.25-.02.33-.28.36l-.64.1c-.23.03-.33-.03-.36-.28l-.58-4.07-1.22.18c-.25.03-.33-.03-.36-.25l-.08-.53c-.03-.25.03-.33.28-.36l3.71-.53c.23-.05.33.03.36.25Z" style="fill:#004c99;"/><path id="uuid-76aa0dcf-2993-44b8-8bb3-3e8baf758e36" d="M38.85,5.51l-1.93,4.96c-.08.23-.18.25-.41.25l-.64-.03c-.23,0-.33-.05-.38-.25l-1.68-5.08c-.08-.2,0-.3.23-.3l.58.03c.41,0,.51.08.58.3l.84,2.97c.13.43.18.94.18.94h.05s.08-.51.23-.94l.99-2.92c.08-.23.18-.28.58-.28l.58.03c.2,0,.25.13.18.33h0Z" style="fill:#004c99;"/><path id="uuid-71addf79-85f9-4eaa-bd37-682893e65872" d="M43.48,6.45l-.1.51c-.05.23-.15.3-.38.25l-2.16-.43-.2.99,1.78.36c.23.05.31.15.25.38l-.1.51c-.05.23-.15.3-.38.25l-1.78-.36-.2,1.04,2.24.46c.23.05.31.15.25.38l-.1.51c-.05.23-.15.3-.38.25l-3.18-.64c-.23-.05-.3-.15-.25-.38l.99-4.85c.05-.23.15-.3.38-.25l3.1.64c.23.03.28.13.23.38h0Z" style="fill:#004c99;"/><path id="uuid-73150313-ad8f-49e5-b8ba-7623bfe10e3d" d="M48.74,10.06c-.3.74-.84,1.12-1.47,1.14.03.1.03.2.05.33l.15,1.75c.02.2-.08.33-.28.25l-.58-.25c-.38-.15-.48-.28-.48-.53l-.08-1.35c-.03-.41-.13-.56-.53-.74l-.31-.13-.64,1.52c-.1.23-.2.25-.43.18l-.58-.25c-.23-.1-.25-.2-.18-.43l1.93-4.55c.1-.23.2-.25.43-.18l2.01.84c1.04.43,1.42,1.35.99,2.39h0ZM47.16,8.69l-1.02-.43-.51,1.19,1.02.43c.38.15.69.03.86-.33.15-.38.03-.69-.36-.86h0Z" style="fill:#004c99;"/><path id="uuid-281c6dc9-0466-4a3e-9606-0c070d590a5b" d="M53.97,11.69l-.31.43c-.13.2-.25.23-.43.08l-1.83-1.22-.56.84,1.5,1.02c.2.13.23.25.1.43l-.31.43c-.13.2-.25.23-.46.08l-1.5-1.02-.61.89,1.91,1.27c.2.13.23.25.08.46l-.31.43c-.13.2-.25.23-.46.08l-2.69-1.8c-.2-.13-.23-.25-.08-.46l2.77-4.09c.13-.2.25-.23.46-.08l2.62,1.78c.23.13.23.25.1.46h0Z" style="fill:#004c99;"/><path id="uuid-3120fb0c-4cbe-4d95-a81a-efa1aac8f2c5" d="M55.68,12.76l.48.43c.18.15.18.28.03.46l-3.33,3.68c-.15.18-.28.18-.46.03l-.48-.43c-.18-.15-.18-.28-.03-.46l3.33-3.68c.18-.18.28-.2.46-.03Z" style="fill:#004c99;"/><path id="uuid-72396aca-ce26-4bb4-8e60-d14daa1325f3" d="M60.2,18.17l-3.81,3.15c-.18.15-.3.15-.46-.03l-.41-.48c-.1-.13-.13-.2-.08-.33l.84-2.69c.2-.66.58-1.27.71-1.45l-.03-.05c-.15.18-.58.76-1.22,1.3l-1.45,1.19c-.18.15-.3.13-.46-.05l-.38-.46c-.15-.18-.15-.3.05-.46l3.81-3.15c.18-.15.31-.13.46.05l.41.51c.1.13.1.2.08.33l-.84,2.74c-.2.71-.59,1.22-.69,1.4l.05.05c.13-.23.53-.76,1.19-1.3l1.45-1.19c.18-.15.31-.15.46.05l.38.46c.13.13.13.25-.08.41h0Z" style="fill:#004c99;"/><path id="uuid-4c24eff8-77c7-44a5-b177-6afd578572d2" d="M8.23,29.2c.1.2.36.51.66.81.3.3.61.56.81.66-.2.1-.51.36-.81.66-.31.3-.56.61-.66.81-.1-.2-.36-.51-.66-.81-.31-.3-.61-.56-.81-.66.2-.1.51-.36.81-.66.3-.3.53-.61.66-.81Z" style="fill:#004c99;"/><path id="uuid-cbd87b0b-6da2-4fab-8031-64bf84768826" d="M62.82,29.2c.1.2.36.51.66.81.3.3.61.56.81.66-.2.1-.51.36-.81.66-.31.3-.56.61-.66.81-.1-.2-.36-.51-.66-.81-.31-.3-.61-.56-.81-.66.2-.1.51-.36.81-.66.3-.3.56-.61.66-.81Z" style="fill:#004c99;"/><path id="uuid-de2026be-8a1c-43d6-b401-22a296f240f2" d="M49.33,30.21c-3.96-.48-7.06,2.07-8.69,4.35s-1.93,5.08-2.11,5.77c-.15.63-.2.91-.61.91-.51,0-.38-.61-.36-.81.05-.43.36-4.3,1.27-6.3,1.75-3.92,2.54-5.39,2.54-8.24,0-3.16-3.56-6.32-4.83-8.52-.71-1.26-1.02-1.39-1.14-1.39s-.43.13-1.14,1.39c-1.24,2.2-4.83,5.34-4.83,8.52,0,2.86.79,4.32,2.54,8.24.89,2,1.22,5.89,1.27,6.3.03.2.13.81-.36.81-.41,0-.46-.28-.61-.91-.15-.68-.48-3.46-2.11-5.77s-4.73-4.83-8.69-4.35c-3.96.48-5.82,3.31-5.46,6.07.36,2.76,2.31,3.41,3.53,4.02,1.22.61,1.32,1.54,1.35,2,.03.46.23.43.74.13.41-.23.97-.86.74-1.9-.15-.68-.69-.96-.69-2.4,0-1.8,1.6-2.6,2.9-2.6,1.42,0,3.63,1.11,5.18,5.01.15.35.15.56-.13.61-.28.05-1.12.15-1.12,1.42s.33,1.72,1.07,1.72.43.48.28.78c-.13.25-.59,1.31-2.62,1.31s-2.87,1.49-2.87,2.63.43.61.84.48c.79-.2,1.32.15,2.08.3.81.15,2.77-.35,3.61-1.31.84-.96,1.55-2.58,1.55-3.46s.25-1.01.48-1.01.46.1.46.94c0,2.88-1.3,3.82-1.3,5.51,0,1.37.71,2.05,1.5,2.91.64.68,1.27,1.39,1.75,1.39.46,0,1.12-.71,1.75-1.39.79-.86,1.5-1.54,1.5-2.91,0-1.69-1.3-2.63-1.3-5.51,0-.81.23-.94.46-.94s.48.1.48,1.01.71,2.5,1.55,3.46,2.8,1.47,3.61,1.31c.79-.15,1.32-.51,2.08-.3.43.1.84.63.84-.48s-.84-2.63-2.87-2.63-2.49-1.06-2.62-1.31c-.15-.28-.46-.78.28-.78s1.07-.46,1.07-1.72-.84-1.34-1.12-1.42c-.28-.08-.28-.25-.13-.61,1.58-3.89,3.76-5.01,5.18-5.01,1.32,0,2.9.81,2.9,2.6,0,1.44-.56,1.72-.69,2.4-.2,1.04.33,1.67.74,1.9.51.3.71.33.74-.13.02-.46.13-1.39,1.35-2,1.22-.61,3.18-1.26,3.53-4.02.36-2.76-1.4-5.61-5.36-6.07h0Z" style="fill:#fff;"/></g></g></svg>