<svg xmlns="http://www.w3.org/2000/svg" viewBox="0 0 114.49 115.5"><title>Eintracht Frankfurt logo</title><path d="M511.85,569.16a56.45,56.45,0,0,0,40-16.73,57.33,57.33,0,0,0,15.5-29.26,57.5,57.5,0,0,0-8.46-42.89,56.7,56.7,0,0,0-25.42-21,56.36,56.36,0,0,0-61.72,12.39,57.35,57.35,0,0,0-15.5,29.26,57.48,57.48,0,0,0,8.45,42.88,56.7,56.7,0,0,0,25.42,21,56.23,56.23,0,0,0,21.68,4.35" transform="translate(-454.75 -454.25)" style="fill:#fff"/><path d="M512,569.75A56.92,56.92,0,0,1,480.2,560a57.69,57.69,0,0,1-21.08-25.92,58,58,0,0,1,12.41-62.93,57.06,57.06,0,0,1,29.31-15.8,56.88,56.88,0,0,1,43,8.62,57.5,57.5,0,0,1,15.79,15.93A57.94,57.94,0,0,1,543.79,560,56.93,56.93,0,0,1,512,569.75m0-113.58a55.18,55.18,0,0,0-39.15,16.36,56,56,0,0,0-15.15,28.6A56.2,56.2,0,0,0,466,543a55.43,55.43,0,0,0,24.85,20.57,55.09,55.09,0,0,0,60.33-12.11,56.06,56.06,0,0,0,15.15-28.6,56.1,56.1,0,0,0-15.17-50.37,55.23,55.23,0,0,0-28.33-15.29,54.83,54.83,0,0,0-10.8-1.08" transform="translate(-454.75 -454.25)" style="fill:#e00914"/><path d="M512,565.31a52.54,52.54,0,0,1-29.36-9,53.08,53.08,0,0,1-14.58-14.71,53.48,53.48,0,0,1,14.58-73.94,52.68,52.68,0,0,1,73.3,14.71,53.49,53.49,0,0,1-14.59,73.93,52.55,52.55,0,0,1-29.35,9m0-97.63a43.69,43.69,0,0,0-24.42,7.47,44.14,44.14,0,0,0-12.13,12.23,44.47,44.47,0,0,0,12.12,61.49,43.82,43.82,0,0,0,61-12.24,44.48,44.48,0,0,0-12.14-61.47,43.7,43.7,0,0,0-24.4-7.48" transform="translate(-454.75 -454.25)" style="fill:#e00914"/><path d="M533.74,514.38a37.23,37.23,0,0,0,14,3.18c5.13.19,7.16-3,5.47-3.59-.67-.22-15.31-4.4-15.31-4.4s-1.81-.71-.46-.86,7.44-.09,10-1.15c3.17-1.25,3.72-4.2,3-4.16-6.37.34-12.39.22-12.72.17h-.11s-.71-.24-.07-.8,5.28-4.48,6.2-5.46c2.48-2.5.82-6.25.38-5.91a47.74,47.74,0,0,1-10,7.26c-.32,0-.24-.71,0-1.25a16.89,16.89,0,0,0,2.24-4c1.24-4.65.92-7.59-1.69-8.75-.47-.2-.64.06-1.24,1.5s-.84,4-3.17,5c-1.24.5-3.4,2.5-3.43,3.38s.46,2.1-.16,2.5-1.34-.25-2.12.39-2.89,2.81-3.63,3.38-2.24,1.48-3.19,1c-2-2-1.05-8-1.05-8a4.61,4.61,0,0,0,1.46,0,2.38,2.38,0,0,0,1.63-1.13,2.42,2.42,0,0,0,.29-2,2.24,2.24,0,0,1-1.74.78c-.83.08-1.05-.26-1.24-1a3.68,3.68,0,0,1,0-2.41c.36-1.25,1.62-1.86,2.34-2.44s.33-2.78.33-2.78a3.85,3.85,0,0,1-.78,1.13c-.69.65-1.64.46-3.64.34a3.87,3.87,0,0,1-3.15-1.25c-.32-.39-2.95-.1-3.72-.06a28.67,28.67,0,0,0-5.18,1.11,17.42,17.42,0,0,0-3.23,1.51c-.45.36-.29.7-.29.7l.4,1.1a11.05,11.05,0,0,1,3-1.45c1.46-.4,1.64.28,1.82.91a9.87,9.87,0,0,1,.35,1.4,16.14,16.14,0,0,1-4.68.32c-2.28-.12-2.4-1.14-2.38-1.74,0-.21-.66,0-.92.6-.46,1-.59,2.75,4.08,2.69a12.21,12.21,0,0,0,4.1-.91c.36,1.25,0,1.45-.58,1.54a5.76,5.76,0,0,1-3.37-.16s-.31,1-.09,1.25a8.19,8.19,0,0,0,4.59,1c.48,0,.87-.35,1.13-.13a4.53,4.53,0,0,1,.67,1.64c0,.39-.07.65-1.24.63s-1.56,0-1.51.24a13.52,13.52,0,0,0,1.47,1.4c.24.24,1.41-1,1.41-1a1.42,1.42,0,0,0,0,.66c.1.5.42,4.4-2,5.53-.93.51-2.48-.4-3.17-1s-2.9-2.75-3.64-3.38-1.59,0-2.08-.35-.14-1.73-.17-2.5-2.23-2.88-3.42-3.38c-2.33-1-2.57-3.5-3.19-5s-.78-1.7-1.24-1.5c-2.6,1.11-2.91,4.05-1.69,8.75a16.46,16.46,0,0,0,2.17,4c.25.55.33,1.33,0,1.25a48.45,48.45,0,0,1-10-7.26c-.42-.4-2.14,3.35.38,5.91,1,1,5.56,4.85,6.26,5.46s-.07.8-.07.8h-.11c-.37,0-6.35.16-12.72-.17-.74,0-.19,2.85,3,4.16,2.59,1.06,8.68,1,10,1.15s-.46.86-.46.86-14.64,4.18-15.32,4.4c-1.69.55.35,3.75,5.47,3.59a37.24,37.24,0,0,0,14.05-3.18c1.85-.71.74.6.35.88-2.75,2-10.86,7.5-14.69,10-.55.36-.62.76,0,1.43,3,3.21,8.68-.48,10.92-1.73,2.63-1.48,8.86-6.25,9.36-5.71.19.2-.17,2-4,6.14a16.47,16.47,0,0,0,1.24,1.11s-1.83,2.24-3.1,3.64c-.51.55-1.7,1.75-2,1.69s-2-1.88-2.54-1.91c-.36,0-1.13.54-1.69.21a3.2,3.2,0,0,0-2.28.32c-.88.41-.72,2.5-.47,1.56s2-.89,2.86.14a4.16,4.16,0,0,0,1.65,1.08c.53.13.81.3.58.45a13.81,13.81,0,0,0-2.85,1.38c-.26.44-.12.59-.22.81-1.2.49-1.57,1-1.2,2.2a5,5,0,0,0,.43,1c.2-.36.1-1.55,1.35-1.83.14,0,.36.16.59.16a7,7,0,0,0,2.74-1.54c.33-.43.26.25,0,.66-1.05,2-.66,3.16-.57,3.2s.38-.09.53.29a4.71,4.71,0,0,0,2.35,2.79,6.91,6.91,0,0,1-.58-3c.2-.1.36,0,.59-.1a3.11,3.11,0,0,0,.51-1.59c0-.81-.48-1.08-.47-1.56a2.36,2.36,0,0,1,.36-1,8.88,8.88,0,0,0,1,1.61c1,1,.79,1.25,1.82.86.2-.09,1.56,2.16,1.56,2.16a3.94,3.94,0,0,0,.25-2.11c-.1-.39-.47-.55-.73-.89s.46-.76.11-1.25c-2-1.9-2.16-1.25-2.66-2.5-.35-.84.32-1.4,1-2.24,1.72-2.1,1.78-2.08,2.8-3.31.42.29.67.56,1.24,1,1.93-2.85,3.57-5.43,5.38-6.09s2.64.4,2.64,1.53c-.09,1.94-4,6.13-4,6.13a36.2,36.2,0,0,0-3.72,4.3,5.21,5.21,0,0,0-.62,1.79,8.55,8.55,0,0,0,.17,2.6c.15.81.32,1.45.32,1.45s.57-2.09.71-2.34c.37-.71.45,0,1,1.4a22.19,22.19,0,0,0,1.71,3.16v-3.59c0-.93.11-2.18.53-1.25a29.89,29.89,0,0,0,1.75,2.93s0-.74.07-1.61a20.63,20.63,0,0,1,1-4.38c.29-.52,1.54-2.73,3-3s1.65,2.5,1.55,3.09a14.19,14.19,0,0,1-.83,2.89c-.15.29-1.34,2.5-1.5,3a6,6,0,0,0,1.65,7.16,15.57,15.57,0,0,1,.92-4.14c.31-.45.73-.74,1-.3a25.49,25.49,0,0,0,2.78,4.23,25.49,25.49,0,0,0,2.78-4.23c.31-.44.73-.15,1,.3a16.09,16.09,0,0,1,1,4.14,6.09,6.09,0,0,0,1.77-7.13c-.16-.43-1.35-2.7-1.5-3a14.2,14.2,0,0,1-.83-2.89c-.11-.59,0-3.31,1.55-3.09s2.76,2.5,3,3a20.64,20.64,0,0,1,.92,4.38c.06.88.07,1.61.07,1.61a29.83,29.83,0,0,0,1.75-2.93c.41-.93.48.33.53,1.25v3.58a21.33,21.33,0,0,0,1.7-3.16c.56-1.4.63-2.11,1-1.4.12.25.71,2.34.71,2.34s.17-.64.32-1.45a8.14,8.14,0,0,0,.16-2.6,4.73,4.73,0,0,0-.62-1.79,34.73,34.73,0,0,0-3.72-4.3s-3.87-4.19-4-6.13c0-1.1.77-2.16,2.57-1.49s3.45,3.24,5.37,6.09c.59-.44.83-.71,1.24-1,1,1.25,1.08,1.25,2.8,3.31.69.84,1.35,1.4,1,2.24-.51,1.25-.69.59-2.66,2.5-.35.54.37,1,.11,1.25s-.63.5-.73.89a3.94,3.94,0,0,0,.27,2.06s1.36-2.25,1.56-2.16c1,.41.84.17,1.82-.86a8.88,8.88,0,0,0,1.08-1.6,2.49,2.49,0,0,1,.35,1c0,.49-.43.75-.46,1.56a3.11,3.11,0,0,0,.51,1.59c.24.14.4,0,.59.1a6.91,6.91,0,0,1-.58,3,4.68,4.68,0,0,0,2.24-2.74c.16-.37.3-.2.55-.29s.47-1.25-.58-3.2c-.21-.41-.29-1.09,0-.66a6.88,6.88,0,0,0,2.74,1.54c.24,0,.46-.19.58-.16,1.24.28,1.16,1.46,1.36,1.83a6.27,6.27,0,0,0,.43-1c.41-1.35.09-1.76-1.24-2.24-.1-.23,0-.37-.22-.81a14.12,14.12,0,0,0-2.85-1.38c-.22-.15,0-.32.58-.45a4.17,4.17,0,0,0,1.65-1.08c.88-1,2.63-1.05,2.86-.14s.41-1.15-.47-1.56a3.21,3.21,0,0,0-2.28-.32c-.57.32-1.34-.23-1.69-.21-.57,0-2.23,1.85-2.48,1.91s-1.51-1.14-2-1.69c-1.24-1.4-3.11-3.64-3.11-3.64a14.21,14.21,0,0,0,1.24-1.11c-3.84-4.16-4.2-5.94-4-6.14.48-.51,6.73,4.24,9.34,5.71,2.26,1.25,7.93,4.94,10.93,1.73.62-.66.55-1.06,0-1.43-3.83-2.5-11.92-8-14.67-10-.4-.28-1.51-1.59.35-.88" transform="translate(-454.75 -454.25)" style="fill:#e00914"/><path d="M519.06,474.42s-4.18,1.78-4.55,2.06c-.72-.63-2.8-2.5-3-2.71-.24.21-2.32,2.09-3,2.71-.37-.29-4.5-2.06-4.55-2.06s1.15,1.75,1.87,3a5.22,5.22,0,0,1,.57,2.9h10.31a5.36,5.36,0,0,1,.57-2.9c.72-1.25,1.87-3,1.87-3" transform="translate(-454.75 -454.25)" style="fill:#e00914"/><path d="M508.06,485.52a4.36,4.36,0,0,1,3.15-.3l-2.66,2.16a13.14,13.14,0,0,1-.48-1.86" transform="translate(-454.75 -454.25)" style="fill:#fff"/><path d="M519.73,509.95c2.35-.43,5.43-1.19,8.68-6.91-3.07-.59-3.59-2.15-3.59-2.15s1.67-.45,4,1.41c.12-4,2.48-4.63,2.48-4.63s1,2.2-2,4.84c2.92.63,3.64,2.21,3.64,2.21s-1.55.58-3.93-1.43c-3.53,6.5-7.44,7.9-9.25,7.9a6.09,6.09,0,0,0,0-1.25" transform="translate(-454.75 -454.25)" style="fill:#fff"/><path d="M506.71,505.95a44.4,44.4,0,0,0,.73,7,25.61,25.61,0,0,0,3.21,8.88,13.73,13.73,0,0,0,1.24,1.84,14.36,14.36,0,0,0,1.39-1.84,25.61,25.61,0,0,0,3.21-8.88,44.4,44.4,0,0,0,.73-7H506.71" transform="translate(-454.75 -454.25)" style="fill:#fff"/><path d="M504.18,509.95c-2.35-.43-5.42-1.19-8.68-6.91,3.07-.59,3.59-2.15,3.59-2.15s-1.67-.45-4,1.41c-.14-4-2.48-4.63-2.48-4.63s-1,2.2,2,4.84c-2.92.63-3.64,2.21-3.64,2.21s1.55.58,3.93-1.43c3.53,6.5,7.37,7.9,9.23,7.9a9.12,9.12,0,0,1,0-1.25" transform="translate(-454.75 -454.25)" style="fill:#fff"/><polygon points="60.11 63.06 60.11 61.67 56.73 61.67 56.73 59.04 59.75 59.04 59.75 57.65 56.73 57.65 56.73 55.41 59.72 55.41 59.72 54.02 54.68 54.02 54.68 63.06 60.11 63.06" style="fill:#e00914"/></svg>