<svg xmlns="http://www.w3.org/2000/svg" viewBox="0 0 103.23 147.5"><title>SC Freiburg logo</title><path d="M512,585.75c-28.46,0-51.61-33.08-51.61-73.75s23.15-73.75,51.61-73.75,51.62,33.09,51.62,73.75S540.46,585.75,512,585.75" transform="translate(-460.38 -438.25)" style="fill:#2b2b2a"/><path d="M512,442c-26.39,0-47.87,31.4-47.87,70S485.6,582,512,582s47.87-31.4,47.87-70S538.39,442,512,442" transform="translate(-460.38 -438.25)" style="fill:#fff"/><path d="M512.09,443.75c-25.37,0-46,30.56-46,68.13s20.64,68.13,46,68.13,46-30.56,46-68.13-20.64-68.13-46-68.13m-44.82,68.13c0-36.91,20.11-66.94,44.83-66.94,7.55,0,14.66,2.82,20.9,7.77L489.1,569.25c-13.05-11.72-21.83-33-21.83-57.37" transform="translate(-460.38 -438.25)" style="fill:#2b2b2a"/><path d="M515.44,466.59c-2.51-3.81-7.14-4.67-11.42-3.75a65.06,65.06,0,0,1-14.51.56,8.32,8.32,0,0,0-2.37,2c-.78,1.31-2.7.19-3.32,1.69-.94,1-2.69.57-3.19,2a10.06,10.06,0,0,0,.32,5.53,3.88,3.88,0,0,0,3.09,1c.56-.32-.12-.72,0-1.13a2.29,2.29,0,0,1,1.34-2.19,14.38,14.38,0,0,1,4-.12c2.06.11,4.06-.32,5.91-.35,2.34.34,4.82.54,6.72,2a2.54,2.54,0,0,1,.28,1.19,1.43,1.43,0,0,1-.65.68c-1.7.16-3.4-.57-5.19-.47-.85.21-1.92-.1-2.56.63-.12.12,0,.3,0,.41a40.86,40.86,0,0,1,8.48,1.91c.39.38,1.15.44,1.07,1.16-.9.84-2.17.46-3.19.69-3.65,0-7.69.34-11.5,0l-.19.12a1.73,1.73,0,0,0,.53,1.53c2.77,2,6.65,2,10,1.94,1.33.19,3.08-.3,4,.94a2.49,2.49,0,0,1-.72,2.57,96.4,96.4,0,0,1-11.95,6.47c-3.87,2.25-8,4-11.35,7.19-1.06,1.33-2.42,2.68-2.56,4.5.11.16.16.48.43.44,2.94-1.45,5.84-3,8.88-4.19a2.13,2.13,0,0,1,1.69.16c.67,1-.46,1.83-1,2.69-3.9,4.68-7.77,9.82-9.46,15.63-.09.69-.31,1.56.18,2.13.22.15.49.36.76.19,3.89-4.61,7.47-9.46,12.07-13.51l.76-.06c.42.27.21.67.31,1.13-1.53,5.5-4,11.25-3.16,17.32.12.86.15,2,1.16,2.25.58-.13.65-.78.81-1.25,2-5.63,4.13-11.22,6.44-16.73.57-1,.93-2.23,1.91-3,.07.06.17,0,.19-.1.64.17.58,1,.66,1.6.15,2.68-.28,5.63-.13,8.5.15,1.81.47,3.84,2.12,5a.89.89,0,0,0,1.07-.37,73.9,73.9,0,0,1,1.22-11.1c.79-2.69,1.14-5.57,2.66-8a.74.74,0,0,1,.77,0c.41,0,.84.49,1.19.18.31-1.62-.29-3.31-.22-5s.11-4.1.6-4.5a1.37,1.37,0,0,1,.94-1c.85.44.88,1.46,1.53,2.09a.56.56,0,0,0,.82,0,2.57,2.57,0,0,0,.34-1.19c.11-2-.76-4-.22-6a5.13,5.13,0,0,1,1.5-3.13c.62,0,1,.78,1.41,1.06.29.33.65,0,.81-.28.74-1.66.13-3.41.41-5.25-.06-2.26,1.11-4,1.5-6.07a10.72,10.72,0,0,0-2-8.37" transform="translate(-460.38 -438.25)" style="fill:#2b2b2a"/><path d="M541.66,552.62a21.56,21.56,0,1,1,6.86-26l0,.1h-3.43l0,0a18.46,18.46,0,1,0,1,15.12v0h3.24l0,.09a21.75,21.75,0,0,1-7.7,10.79" transform="translate(-460.38 -438.25)" style="fill:#fff"/><path d="M539.2,530v-2.61H525.55v3.48a4,4,0,0,1-2.08-3.57c0-2.51,2.51-4.52,5-4.52a5.53,5.53,0,0,1,5.08,3.26l2.45-1.26a8.6,8.6,0,0,0-7.41-4.64c-4.21,0-7.91,2.95-7.91,7.34,0,3.42,2.22,5.27,4.91,6.57v13.21a7.93,7.93,0,0,1-4.53-5.41l-2.76.88a9.83,9.83,0,0,0,7.29,7.3v1.71h2.6v-1.35h.09c5.21,0,9.35-3.7,9.35-9a8.86,8.86,0,0,0-.12-1.29h1.4v-2.76h-2.28c-1.73-3-5.41-4-8.44-5.19V530H539.2Zm-4.43,11.23a6.48,6.48,0,0,1-6.52,6.53h-.09V540h6.5a6.38,6.38,0,0,1,.11,1.17m-5.65-5.71a13.46,13.46,0,0,1,3.76,1.79h-4.73v-2.15l1,.36" transform="translate(-460.38 -438.25)" style="fill:#fff"/><path d="M485.73,467.68a1.37,1.37,0,0,1,.59-.28,1.3,1.3,0,0,1,.69.94c-.11.32-.58.18-.82.12-.19-.25-.84-.4-.47-.78" transform="translate(-460.38 -438.25)" style="fill:#fff"/><path d="M483.48,472c-.19.53-.76,1-.72,1.62-.16,0-.34.1-.41-.12a9.64,9.64,0,0,1-.19-3.63c.51-.8,1.41-.87,2.19-1.16.34.21.54.78,1,1a3.12,3.12,0,0,0,2.06.44c.36,0,.55-.57.94-.32l.56.69c-1.8.35-4.16-.14-5.44,1.5" transform="translate(-460.38 -438.25)" style="fill:#fff"/><path d="M482.7,500.86c4.49-4.43,12.77-7.46,13.91-7.69a2.07,2.07,0,0,1,.34,1.78,151,151,0,0,0-14.25,5.91" transform="translate(-460.38 -438.25)" style="fill:#fff"/><path d="M481.44,515.74c2.73-6.54,9.78-15.6,13-17.77a1.34,1.34,0,0,1,1.53.86c-3.73,4-9.78,11.36-14.54,16.91" transform="translate(-460.38 -438.25)" style="fill:#fff"/><path d="M490.23,522.09c1-9.48,3.94-17.45,7.09-22.52.62-.24,1.25.29,1.62.72a211.92,211.92,0,0,0-8.71,21.8" transform="translate(-460.38 -438.25)" style="fill:#fff"/><path d="M502.58,470.37c-.59-.27-1.46-.36-1.75-1.09a1.64,1.64,0,0,1,0-1.25,2.63,2.63,0,0,1,2.16-1.28c.81.08,1.85,0,2.29.91a1.79,1.79,0,0,1,.22,1.53c-.51,1.15-1.9,1-2.91,1.19" transform="translate(-460.38 -438.25)" style="fill:#fff"/><path d="M501.34,515.14c-.71-6.45-1.08-10.55.55-17.28a2.57,2.57,0,0,1,1.84.36,132.43,132.43,0,0,0-2.39,16.92" transform="translate(-460.38 -438.25)" style="fill:#fff"/><path d="M506.46,492.6c-.27-.16-.25-.62-.41-.87a38.59,38.59,0,0,0-1.28-4.44,1.19,1.19,0,0,1,1.44-.28,6.59,6.59,0,0,1,.62,1.59,7.2,7.2,0,0,1-.37,4" transform="translate(-460.38 -438.25)" style="fill:#fff"/><path d="M509.62,486.69c-.44-1.71-.47-3.58-1.19-5.28-.08-.38.35-.43.54-.59a1.41,1.41,0,0,1,.69,0c.31.19.13.59.34.81a9.86,9.86,0,0,1,.29,2.53,4.13,4.13,0,0,1-.66,2.57" transform="translate(-460.38 -438.25)" style="fill:#fff"/><path d="M512.24,479.78v-.06h0c-.37-.61-.12-1.35-.09-2.19,0-1.14-.22-2.16-.19-3.25.49-.37,1.56-.29,1.63.41.06,1.74.11,4-1.38,5.09" transform="translate(-460.38 -438.25)" style="fill:#fff"/><path d="M503.77,467.87c.37.41.84.59.91,1.12-.69.12-1.45.65-2.07.1-.3-.31-.79-.68-.65-1.13,0-.18.19-.24.34-.25a5,5,0,0,1,1.47.16" transform="translate(-460.38 -438.25)" style="fill:#2b2b2a"/><path d="M503.77,467.87c.37.41.84.59.91,1.12-.69.12-1.45.65-2.07.1-.3-.31-.79-.68-.65-1.13,0-.18.19-.24.34-.25A5,5,0,0,1,503.77,467.87Z" transform="translate(-460.38 -438.25)" style="fill:none"/></svg>