<svg id="Layer_1" data-name="Layer 1" xmlns="http://www.w3.org/2000/svg" viewBox="0 0 97.29 119.91"><title>1. FC Heidenheim logo - Brandlogos.net</title><path d="M294.49,194.93c-2.36-.19-21.22-.64-29.21-.83s-24-.06-29.52,0-23.13.51-26.52.7-5.18.06-5.94.77a3,3,0,0,0-1.15,2.3v69.47a46.58,46.58,0,0,0,3,14.7c2.43,5.88,5.3,12.08,13,19.24a48.39,48.39,0,0,0,23.64,11.82,50.77,50.77,0,0,0,25.31-1.85c9.39-3.26,15.34-8.82,19.56-13.1s7.67-10.74,9.84-16.17,2.88-13,2.94-15,0-24.86,0-28.37V200.3c0-2.17.25-3.39-1-4.47s-3.9-.9-3.9-.9" transform="translate(-202.15 -194)" style="fill:#a6a8ab"/><path d="M291.59,197.23c-5-.25-19.59-.54-27.15-.72s-17.87,0-23.13-.09c-6.17-.07-22.23.58-28.82.73a73.53,73.53,0,0,0-7.82.43s0,3,0,3.86v65.76a44.11,44.11,0,0,0,2.84,13.91,46.69,46.69,0,0,0,12.28,18.21A45.81,45.81,0,0,0,242.2,310.5a48.07,48.07,0,0,0,24-1.76c8.89-3.08,14.52-8.35,18.51-12.4S291.92,286.18,294,281a50.63,50.63,0,0,0,2.78-14.22c.06-1.94,0-23.53,0-26.86V203.73c0-2.06,0-6.14,0-6.14Z" transform="translate(-202.15 -194)" style="fill:#003e7e"/><path d="M291,265.56a40.35,40.35,0,1,1-40.35-40.35A40.35,40.35,0,0,1,291,265.56" transform="translate(-202.15 -194)" style="fill:#f1f1f2"/><path d="M276.16,241.56s2-1,1.88-2.48-.16-2.37-4.85-5.65a39.91,39.91,0,0,0-13.94-6,46.14,46.14,0,0,0-13.84-.59A35.36,35.36,0,0,0,235.3,230a40.75,40.75,0,0,0-8.94,6.68,49.29,49.29,0,0,0-6.68,8.78,24.09,24.09,0,0,0-2.53,6.78,13,13,0,0,0,.16,3.34l-1.56-.54a2.9,2.9,0,0,0-2.8,1c-.75,1.08-1.18,4.25-1.29,6a48.53,48.53,0,0,0,.16,8.18,37.61,37.61,0,0,0,1.94,8.29,41,41,0,0,0,4.09,8.18,30.69,30.69,0,0,0,7.86,8.45,38.93,38.93,0,0,0,11.79,5.71,35.75,35.75,0,0,0,12,1.29,22.27,22.27,0,0,0,7.32-1.45,6,6,0,0,0,2-1.56,4.14,4.14,0,0,0,.75,2.69,3.31,3.31,0,0,0,3.61.65,42.65,42.65,0,0,0,7.27-3.34,35.39,35.39,0,0,0,11.09-9.69,37.21,37.21,0,0,0,6.51-12.33c1.4-4.09,1.56-11,.65-15.24a44.21,44.21,0,0,0-3.5-10.28,29.42,29.42,0,0,0-4.85-7.22,8.5,8.5,0,0,0-4.25-2.85" transform="translate(-202.15 -194)" style="fill:#ec1c24"/><path d="M214.91,208.57q-.08-2.74-.17-5.47l-1.14.48-.28-1.53,1.89-.66,1.18,0,.21,7.17-1.68,0" transform="translate(-202.15 -194)" style="fill:#f1f1f2"/><path d="M218.67,206.59a1,1,0,0,1,.4.07,1.05,1.05,0,0,1,.55.52,1,1,0,0,1,.09.39,1,1,0,0,1-.07.39,1.06,1.06,0,0,1-.21.33,1,1,0,0,1-.31.23,1,1,0,0,1-.39.09.93.93,0,0,1-.39-.07,1,1,0,0,1-.55-.52.93.93,0,0,1-.09-.38,1,1,0,0,1,.07-.4,1.06,1.06,0,0,1,.21-.33,1,1,0,0,1,.31-.23,1,1,0,0,1,.38-.09" transform="translate(-202.15 -194)" style="fill:#f1f1f2"/><path d="M224.65,202.55q0,.77,0,1.54l2.18,0,0,1.35-2.17,0,.06,2.87-1.66,0q-.08-3.59-.17-7.18l4-.09q0,.71,0,1.41l-2.31,0" transform="translate(-202.15 -194)" style="fill:#f1f1f2"/><path d="M233.31,206a2.42,2.42,0,0,1-.15.88,1.85,1.85,0,0,1-.48.72,2.36,2.36,0,0,1-.83.49,3.8,3.8,0,0,1-1.21.19,2.81,2.81,0,0,1-2-.53,1.94,1.94,0,0,1-.65-1.49q0-1.77-.07-3.55l1.65,0q0,1.58.06,3.16a1.23,1.23,0,0,0,.26.85,1,1,0,0,0,.78.25.92.92,0,0,0,.75-.3,1.32,1.32,0,0,0,.22-.85q0-1.57,0-3.14l1.62,0q0,1.69,0,3.38" transform="translate(-202.15 -194)" style="fill:#f1f1f2"/><path d="M238.58,206.21a2,2,0,0,1-.16.82,1.71,1.71,0,0,1-.48.64,2.34,2.34,0,0,1-.8.42,3.73,3.73,0,0,1-1.1.16,4.3,4.3,0,0,1-.51,0l-.5-.08q0-.71,0-1.41a2.7,2.7,0,0,0,.51.13,3.55,3.55,0,0,0,.59,0,.79.79,0,0,0,.47-.13.39.39,0,0,0,.17-.34.29.29,0,0,0-.15-.26,2.08,2.08,0,0,0-.37-.17l-.48-.17a1.73,1.73,0,0,1-.48-.26,1.36,1.36,0,0,1-.37-.45,1.61,1.61,0,0,1-.16-.74,1.7,1.7,0,0,1,.6-1.38,2.79,2.79,0,0,1,1.83-.54l.47,0,.48.06q0,.68,0,1.35a3.27,3.27,0,0,0-.47-.1,3.45,3.45,0,0,0-.5,0,.78.78,0,0,0-.49.12.38.38,0,0,0-.14.31.28.28,0,0,0,.15.24,2,2,0,0,0,.38.18l.49.19a2.09,2.09,0,0,1,.49.28,1.45,1.45,0,0,1,.38.44,1.42,1.42,0,0,1,.16.68" transform="translate(-202.15 -194)" style="fill:#f1f1f2"/><path d="M243.22,206.17a2,2,0,0,1-.16.82,1.74,1.74,0,0,1-.49.64,2.34,2.34,0,0,1-.8.42,3.75,3.75,0,0,1-1.1.16,4.32,4.32,0,0,1-.51,0l-.5-.08q0-.71,0-1.41a2.68,2.68,0,0,0,.51.13,3.64,3.64,0,0,0,.59,0,.8.8,0,0,0,.47-.13.39.39,0,0,0,.17-.34.29.29,0,0,0-.15-.26,2.16,2.16,0,0,0-.37-.17l-.48-.17a1.76,1.76,0,0,1-.48-.26,1.37,1.37,0,0,1-.37-.45,1.61,1.61,0,0,1-.16-.74,1.7,1.7,0,0,1,.61-1.38,2.79,2.79,0,0,1,1.83-.54l.47,0,.48.06q0,.67,0,1.35a3.31,3.31,0,0,0-.47-.1,3.44,3.44,0,0,0-.5,0,.78.78,0,0,0-.49.12.38.38,0,0,0-.14.31.28.28,0,0,0,.15.24,2.06,2.06,0,0,0,.38.18l.49.19a2.11,2.11,0,0,1,.49.28,1.43,1.43,0,0,1,.38.44,1.41,1.41,0,0,1,.15.68" transform="translate(-202.15 -194)" style="fill:#f1f1f2"/><path d="M247.72,206.28q0-.59-.89-.58h-.44c0,.39,0,.79,0,1.18l.27,0h.25a.89.89,0,0,0,.6-.18.57.57,0,0,0,.2-.45m-.07-2.16a.47.47,0,0,0-.17-.38,1,1,0,0,0-.6-.14h-.49q0,.55,0,1.1h.34a1.33,1.33,0,0,0,.66-.15.48.48,0,0,0,.26-.45m1.81,2.16a1.74,1.74,0,0,1-.13.67,1.47,1.47,0,0,1-.43.56,2.22,2.22,0,0,1-.77.4,3.89,3.89,0,0,1-1.15.15h-2.19q0-2.77,0-5.53h2.43a3,3,0,0,1,1.69.35,1.2,1.2,0,0,1,.51,1,1.35,1.35,0,0,1-.19.7,1.18,1.18,0,0,1-.58.48h0a1.11,1.11,0,0,1,.62.45,1.35,1.35,0,0,1,.21.77" transform="translate(-202.15 -194)" style="fill:#f1f1f2"/><path d="M253.06,205l-.12-.37-.12-.38h0c0,.12-.06.24-.1.36l-.11.35-.39,1.07h1.19l-.36-1m1,3-.28-.84h-1.93l-.29.84h-1.64q1-2.76,2-5.53h2q1,2.77,2,5.54h-1.81" transform="translate(-202.15 -194)" style="fill:#f1f1f2"/><path d="M256.72,208l0-5.53h1.65q0,2,0,4.06H260v1.47l-3.31,0" transform="translate(-202.15 -194)" style="fill:#f1f1f2"/><path d="M261,208.08q0-2.76,0-5.53l1.65,0,0,4.06,1.67,0q0,.73,0,1.47l-3.31,0" transform="translate(-202.15 -194)" style="fill:#f1f1f2"/><path d="M270.31,208a4.92,4.92,0,0,1-.85.2,5.74,5.74,0,0,1-.93.06,3.81,3.81,0,0,1-1.63-.33,2.82,2.82,0,0,1-1-.81,2.91,2.91,0,0,1-.52-1.11,4.91,4.91,0,0,1-.14-1.22,5.11,5.11,0,0,1,.26-1.59,3.41,3.41,0,0,1,.72-1.22,3.14,3.14,0,0,1,1.16-.78,4.08,4.08,0,0,1,1.58-.26,5.78,5.78,0,0,1,1.47.21l-.22,1.5a5.81,5.81,0,0,0-.64-.15,4.16,4.16,0,0,0-.67-.06,1.6,1.6,0,0,0-1.34.56,2.44,2.44,0,0,0-.48,1.55,2.57,2.57,0,0,0,.43,1.63,1.71,1.71,0,0,0,1.42.59,3.38,3.38,0,0,0,.64-.06,2.73,2.73,0,0,0,.62-.17l.17,1.48" transform="translate(-202.15 -194)" style="fill:#f1f1f2"/><path d="M271.43,208.22l.1-5.53,1.65,0q0,2-.08,4.06l1.67,0q0,.74,0,1.47l-3.31-.06" transform="translate(-202.15 -194)" style="fill:#f1f1f2"/><path d="M281.23,206.3a2.44,2.44,0,0,1-.18.88,1.85,1.85,0,0,1-.51.7,2.36,2.36,0,0,1-.85.45,3.77,3.77,0,0,1-1.22.15,2.81,2.81,0,0,1-1.93-.61,1.94,1.94,0,0,1-.59-1.52q0-1.78.08-3.55l1.65,0q0,1.58-.07,3.16a1.22,1.22,0,0,0,.22.86,1,1,0,0,0,.77.28.92.92,0,0,0,.76-.27,1.32,1.32,0,0,0,.26-.84l.08-3.14,1.62,0q0,1.69-.09,3.38" transform="translate(-202.15 -194)" style="fill:#f1f1f2"/><path d="M285.6,206.8q0-.59-.87-.61h-.44q0,.59,0,1.18l.27,0h.25a.88.88,0,0,0,.61-.16.57.57,0,0,0,.21-.45m0-2.16a.46.46,0,0,0-.16-.39,1,1,0,0,0-.59-.16h-.49c0,.36,0,.73,0,1.09l.2,0h.14a1.34,1.34,0,0,0,.66-.12.48.48,0,0,0,.27-.44m1.74,2.21a1.74,1.74,0,0,1-.15.67,1.48,1.48,0,0,1-.44.55,2.26,2.26,0,0,1-.78.37,3.9,3.9,0,0,1-1.16.11l-.88,0-1.31,0q.07-2.76.15-5.53h2.43a3,3,0,0,1,1.68.41,1.19,1.19,0,0,1,.48,1.06,1.33,1.33,0,0,1-.21.7,1.18,1.18,0,0,1-.59.46h0a1.12,1.12,0,0,1,.6.47,1.35,1.35,0,0,1,.19.77" transform="translate(-202.15 -194)" style="fill:#f1f1f2"/><path d="M214.09,219.82l-.12-2.94-2.6.11.13,2.94-1.63.08-.33-7.06,1.65-.08.12,2.71,2.6-.11-.11-2.71,1.65-.07.28,7.07-1.63.07" transform="translate(-202.15 -194)" style="fill:#f1f1f2"/><path d="M217.05,219.7q-.11-2.72-.21-5.44l3.56-.13q0,.64,0,1.28l-1.94.07,0,.78,1.83-.07q0,.61,0,1.22l-1.83.07,0,.88,1.93-.07,0,1.28-3.54.13" transform="translate(-202.15 -194)" style="fill:#f1f1f2"/><path d="M222.31,219.51q-.09-2.72-.18-5.44l1.62-.05q.08,2.72.17,5.45l-1.61.05" transform="translate(-202.15 -194)" style="fill:#f1f1f2"/><path d="M228.85,216.55a1.41,1.41,0,0,0-.37-1,1.36,1.36,0,0,0-1-.32h-.29l-.26,0q0,1.39.08,2.78l.21,0h.31a1.31,1.31,0,0,0,1.35-1.49m1.73-.11a3.06,3.06,0,0,1-.22,1.31,2.43,2.43,0,0,1-.67.91,2.91,2.91,0,0,1-1,.54,4.72,4.72,0,0,1-1.27.2h-2l-.16-5.43.47,0,.61,0,.65,0,.59,0a4.58,4.58,0,0,1,1.21.11,2.5,2.5,0,0,1,.94.44,2.08,2.08,0,0,1,.63.8,3.07,3.07,0,0,1,.24,1.21" transform="translate(-202.15 -194)" style="fill:#f1f1f2"/><path d="M232.06,219.24l-.12-5.45,3.56-.07q0,.64,0,1.28l-1.94,0,0,.78,1.83,0,0,1.23-1.83,0,0,.88,1.93,0q0,.64,0,1.28l-3.54.07" transform="translate(-202.15 -194)" style="fill:#f1f1f2"/><path d="M240.27,219.1l-1.38-2.3a4.77,4.77,0,0,1-.25-.47q-.12-.26-.21-.47h0c0,.11,0,.22,0,.33s0,.25,0,.41l0,2.52-1.55,0-.09-5.45,2.18,0,1.35,2.21a9.57,9.57,0,0,1,.52,1h0c0-.15,0-.31,0-.49s0-.37,0-.58l0-2.17,1.57,0q0,2.72.05,5.45l-2.18,0" transform="translate(-202.15 -194)" style="fill:#f1f1f2"/><path d="M248,219q0-1,0-2.06h-2q0,1,0,2.06h-1.61q0-2.72,0-5.44h1.62q0,1,0,2h2q0-1,0-2h1.62q0,2.72,0,5.44H248" transform="translate(-202.15 -194)" style="fill:#f1f1f2"/><path d="M251.07,219q0-2.72,0-5.45h3.56q0,.64,0,1.28H252.7c0,.26,0,.52,0,.79h1.83c0,.41,0,.82,0,1.23h-1.83c0,.29,0,.59,0,.88h1.93v1.28h-3.54" transform="translate(-202.15 -194)" style="fill:#f1f1f2"/><path d="M255.94,219.06q0-2.72,0-5.45h1.62l0,5.45h-1.61" transform="translate(-202.15 -194)" style="fill:#f1f1f2"/><path d="M265.13,219.16l-.3-2.36q0-.28-.07-.58c0-.2,0-.37,0-.54h0l-.14.58q-.07.29-.16.56l-.74,2.3-1.66,0-.59-2.14c-.05-.2-.11-.41-.16-.65s-.1-.46-.14-.68h0q0,.3-.06.6t-.08.6l-.31,2.25-1.61,0q.46-2.72.92-5.44l2.06,0,.71,2.43c0,.14.08.3.11.47s.07.36.1.55h0c0-.2.09-.37.13-.53a4.77,4.77,0,0,1,.15-.48l.8-2.41,2.07,0q.38,2.73.75,5.46l-1.72,0" transform="translate(-202.15 -194)" style="fill:#f1f1f2"/><path d="M271.45,219.29l.13-5.39-1.15.41-.2-1.52,1.89-.55,1.16,0q-.09,3.53-.18,7.07l-1.66,0" transform="translate(-202.15 -194)" style="fill:#f1f1f2"/><path d="M277.64,214.14a.62.62,0,0,0-.18-.45.86.86,0,0,0-.63-.22,1,1,0,0,0-.64.16.59.59,0,0,0-.23.47.64.64,0,0,0,.23.5,3,3,0,0,0,.66.44,2.63,2.63,0,0,0,.58-.43.71.71,0,0,0,.21-.48m0,3.42a.7.7,0,0,0-.29-.59,4.56,4.56,0,0,0-.74-.46,3.32,3.32,0,0,0-.58.42.73.73,0,0,0-.25.53.67.67,0,0,0,.23.55,1,1,0,0,0,.68.23,1.09,1.09,0,0,0,.67-.17.61.61,0,0,0,.28-.5m1.67,0a1.87,1.87,0,0,1-.26.92,2,2,0,0,1-.62.64,2.71,2.71,0,0,1-.88.37,4,4,0,0,1-1,.1,2.87,2.87,0,0,1-1.79-.57,1.69,1.69,0,0,1-.62-1.42,1.56,1.56,0,0,1,.11-.55,1.9,1.9,0,0,1,.26-.46,2.37,2.37,0,0,1,.38-.39,4.39,4.39,0,0,1,.46-.33,2.28,2.28,0,0,1-.76-.7,1.55,1.55,0,0,1-.26-.93,1.87,1.87,0,0,1,.22-.87,1.91,1.91,0,0,1,.57-.64,2.59,2.59,0,0,1,.84-.39,3.54,3.54,0,0,1,1-.12,3.27,3.27,0,0,1,1,.17,2.32,2.32,0,0,1,.73.4,1.68,1.68,0,0,1,.45.59,1.58,1.58,0,0,1,.14.71,1.52,1.52,0,0,1-.35,1,3.57,3.57,0,0,1-.81.7,3.24,3.24,0,0,1,.87.75,1.55,1.55,0,0,1,.33,1.05" transform="translate(-202.15 -194)" style="fill:#f1f1f2"/><path d="M283.4,214.12h0l-1.54,2.39h.76l.41,0h.3l.09-2.43m1.4,3.92-.07,1.66-1.57-.06q0-.83.06-1.66l-2.73-.1-.2-1.3,2.7-4,2,.08q-.08,2-.15,3.94l1,0q0,.73-.06,1.46l-1,0" transform="translate(-202.15 -194)" style="fill:#f1f1f2"/><path d="M290.05,217.67a1,1,0,0,0-.2-.73,1.07,1.07,0,0,0-1.41,0,.93.93,0,0,0-.28.65,1.18,1.18,0,0,0,.2.77.81.81,0,0,0,.66.32.92.92,0,0,0,.75-.25,1.06,1.06,0,0,0,.27-.7m1.7-.14a2.75,2.75,0,0,1-.26,1.08,2.32,2.32,0,0,1-.61.79,2.58,2.58,0,0,1-.9.48,3.31,3.31,0,0,1-1.13.13,2.65,2.65,0,0,1-1-.23,2.13,2.13,0,0,1-.77-.6,2.67,2.67,0,0,1-.48-1,4.4,4.4,0,0,1-.13-1.37,5.46,5.46,0,0,1,.36-1.83,3.8,3.8,0,0,1,.84-1.29,3.18,3.18,0,0,1,1.21-.75,4,4,0,0,1,1.48-.2l.54,0,.41.06-.07,1.42-.46-.1-.48,0a2.11,2.11,0,0,0-1.2.28,1.89,1.89,0,0,0-.79,1l0,.14,0,.16h0a2,2,0,0,1,.62-.32,2.33,2.33,0,0,1,.81-.09,2.52,2.52,0,0,1,.92.2,2,2,0,0,1,.67.47,1.89,1.89,0,0,1,.41.68,2.25,2.25,0,0,1,.11.85" transform="translate(-202.15 -194)" style="fill:#f1f1f2"/><path d="M238.6,255.48v-5.12h-7.12c-1.77,0-4.84,0-6,1.49a7.51,7.51,0,0,0-1.58,4v25.7h6V268.47h7.26v-5h-7.31v-5.26a3.46,3.46,0,0,1,.47-2.1c.46-.7,1.58-.61,1.86-.61Z" transform="translate(-202.15 -194)" style="fill:#f1f1f2"/><path d="M256.38,256.5l.72-5.43a11.91,11.91,0,0,0-5.92-.94c-3.59.27-6.6,1.26-8.39,3.77a18.17,18.17,0,0,0-3,8.08,49.46,49.46,0,0,0-.18,8.08,19.4,19.4,0,0,0,1.43,6.55,8.82,8.82,0,0,0,4.44,4.44c2.6,1.3,5.65.9,7.31.81a18.12,18.12,0,0,0,4.44-1.26l-.72-5.52a15.65,15.65,0,0,1-2.83,1.17,5.49,5.49,0,0,1-7-4.31,25.44,25.44,0,0,1-.65-4.61,35.7,35.7,0,0,1,.45-6.43c.2-1.33,1.1-3.67,2.22-4.43a6.42,6.42,0,0,1,3.72-.94,21.65,21.65,0,0,1,3.86,1" transform="translate(-202.15 -194)" style="fill:#f1f1f2"/><path d="M265.84,250.37h-6.08v31.07h6.08V268h6.76v13.36a4.72,4.72,0,0,0,3.15-.46,5.24,5.24,0,0,0,2.75-3.84,26.49,26.49,0,0,0,.29-4.7v-22h-6.19V262.7h-6.76Z" transform="translate(-202.15 -194)" style="fill:#f1f1f2"/></svg>