<svg xmlns="http://www.w3.org/2000/svg" viewBox="0 0 83.72 100"><title>TSG 1899 Hoffenheim logo</title><path d="M553.21,522.31l0-.14-.81-.86c-7.24-7.86-10.66-15.61-10.14-23,.66-9.45,7.66-15.25,7.73-15.3l1-.77-5.29-13.1-1.65,1A24.11,24.11,0,0,1,532.56,473c-7,0-13.5-3-19.4-8.91L512,462.92l-1.16,1.16c-5.9,5.91-12.43,8.91-19.4,8.91A24,24,0,0,1,480,470.13l-1.65-1-4.83,12-.46,1.13.95.77c.07.06,7.08,5.84,7.74,15.31.52,7.54-3,15.42-10.49,23.41l-.47.51,0,.4c0,.18,2.54,19.61,20.21,24.26,15.31,4,19.46,11.09,19.5,11.16l1.42,2.63,1.45-2.62c0-.07,4.21-7.11,19.51-11.17a26.63,26.63,0,0,0,16.64-13.53C552.35,528.24,553.3,523,553.21,522.31Z" transform="translate(-470.14 -462)" style="fill:#fff"/><path d="M512,562l-2-3.67c0-.05-4.2-6.92-19.09-10.84a27,27,0,0,1-17.16-14.13,33.69,33.69,0,0,1-3.53-10.69h0l-.07-.69.67-.73c7.36-7.86,10.83-15.57,10.32-22.92-.63-9.14-7.43-14.79-7.5-14.85l-1.32-1.07.63-1.58,5.12-12.69,2.31,1.43a23.51,23.51,0,0,0,11.08,2.77c6.79,0,13.17-2.93,18.94-8.72L512,462l1.62,1.62c5.77,5.78,12.15,8.72,18.94,8.72a23.63,23.63,0,0,0,11.09-2.77l2.3-1.41,5.76,14.26-1.33,1.07c-.06.05-6.86,5.74-7.49,14.84-.5,7.23,2.85,14.82,10,22.54l1,1,0,.35c.12,1-1,6.36-3.69,11.41a27.25,27.25,0,0,1-17,13.84c-14.89,3.95-19.07,10.8-19.11,10.87Zm-40.48-39.38c.13,1,2.89,19.19,19.73,23.62,15.56,4.09,19.86,11.39,19.9,11.46l.86,1.6.88-1.58c0-.08,4.35-7.36,19.91-11.48A26,26,0,0,0,549,533a31.5,31.5,0,0,0,3.55-10.57l-.66-.7c-7.37-8-10.84-15.91-10.31-23.52.67-9.7,7.9-15.7,8-15.76l.58-.47-4.82-11.94-1,.61a24.87,24.87,0,0,1-11.76,3c-7.15,0-13.83-3.06-19.86-9.1l-.7-.7-.7.7c-6,6-12.71,9.1-19.86,9.1a24.72,24.72,0,0,1-11.76-3l-1-.62L473.87,482l.58.47a24.09,24.09,0,0,1,8,15.77c.54,7.73-3.05,15.77-10.67,23.89l-.27.29,0,.19Z" transform="translate(-470.14 -462)" style="fill:#005ca8"/><path d="M532.06,505l-2.74-2.29c-.15-.13-.53-.5-.53-.82a.78.78,0,0,1,.27-.63c.44-.53.92-.33,1.33,0l2.82,2.36.56-.66-3.09-2.59A1.47,1.47,0,0,0,528.4,502a1.3,1.3,0,0,0-1.32.51,1.28,1.28,0,0,0-.26,1.5l0,0-.51-.42-.59.7c.3.21.6.43.88.67l3.22,2.7.55-.66-2.74-2.29a1.58,1.58,0,0,1-.47-.65,1,1,0,0,1,.21-.8c.45-.53.92-.33,1.33,0l2.82,2.36Zm-8.88.22.62-.74-.71-.59-.62.74Zm1.63.17-.56.66,4.07,3.4.55-.66Zm.92,3.46-.35-.29c-1.35-1.13-2.22-1.37-3.2-.21-1.18,1.41-.31,2.36.88,3.36,1.79,1.5,2.63,1,3.35.18a1.61,1.61,0,0,0-.12-2.51l-.61.72a1,1,0,0,1,.18,1.35c-.43.51-.91.63-2.05-.32Zm-2.42,1.86c-1.12-1-1-1.47-.68-1.88s.83-.69,2,.3Zm1.08,3.42-2.88-2.41c-.92-.77-1.59-.67-2.17,0a1.39,1.39,0,0,0-.32,1.61l0,0-2.27-1.9-.55.66L522,517l.55-.66-2.39-2c-.68-.57-1.07-1.19-.52-1.85s1-.43,1.46,0l2.75,2.31ZM521.14,518l-2.82-2.36c-.81-.67-1.51-.9-2.24,0a1.39,1.39,0,0,0-.31,1.59l0,0-.52-.44-.59.7c.3.21.6.43.88.67l3.22,2.7.56-.66-2.41-2c-.56-.47-1.11-1.11-.5-1.83a.87.87,0,0,1,1.39-.05l2.82,2.36Zm-5,2.27-.35-.29c-1.35-1.13-2.22-1.37-3.2-.21-1.18,1.41-.32,2.37.88,3.36,1.79,1.5,2.63,1,3.35.18a1.61,1.61,0,0,0-.12-2.51l-.61.72a1,1,0,0,1,.18,1.35c-.43.51-.91.63-2-.32Zm-2.42,1.86c-1.12-1-1-1.46-.68-1.88s.83-.69,2,.3Zm-4.46,1.76.5.42.53-.63,3.57,3,.56-.66-3.57-3,.69-.82-.5-.42-.69.82-.69-.58c-.33-.28-.53-.65.11-1.3l-.48-.4a2.32,2.32,0,0,0-.29.29c-.49.59-.82,1.3,0,2l.79.66Zm-1.88,2.23.5.42.53-.63,3.57,3,.55-.66-3.57-3,.69-.82-.5-.42-.69.82-.69-.58c-.33-.28-.53-.65.11-1.3l-.47-.4a2.21,2.21,0,0,0-.29.29c-.49.59-.82,1.3,0,2l.79.66Zm2.4,5.55c.72-.86,1-1.76-.76-3.26-1.19-1-2.29-1.68-3.47-.28s-.31,2.37.88,3.36c1.8,1.5,2.63,1,3.35.18m-.54-.45c-.57.68-1.19.45-2.51-.65-1.11-.93-1.06-1.48-.64-2s1-.65,2.07.28c1.32,1.11,1.65,1.67,1.08,2.35m-3.88,5.54-2.66-2.22,1.71-2,2.66,2.22.62-.74-5.81-4.87-.62.74,2.51,2.1-1.71,2-2.51-2.1-.62.74,5.81,4.87Z" transform="translate(-470.14 -462)" style="fill:#005ca8"/><path d="M519.81,492.07a1,1,0,0,0-1.48,0,1,1,0,0,0,.23,1.52,1,1,0,0,0,1.52,0A1.05,1.05,0,0,0,519.81,492.07Z" transform="translate(-470.14 -462)" style="fill:#005ca8"/><path d="M514.44,503.11a1.05,1.05,0,1,0-1.34,1.62,1,1,0,0,0,1.52-.11A1,1,0,0,0,514.44,503.11Z" transform="translate(-470.14 -462)" style="fill:#005ca8"/><path d="M515.92,496.69a1,1,0,0,0-1.48,0,1,1,0,0,0,.23,1.52,1,1,0,0,0,1.52,0A1.05,1.05,0,0,0,515.92,496.69Z" transform="translate(-470.14 -462)" style="fill:#005ca8"/><path d="M510.57,501.21a.9.9,0,0,0,.09,1.32.92.92,0,0,0,1.33-.12.93.93,0,0,0-.09-1.36A.92.92,0,0,0,510.57,501.21Z" transform="translate(-470.14 -462)" style="fill:#005ca8"/><path d="M544.75,471.82l-.59.3a26.54,26.54,0,0,1-11.59,2.71c-7.25,0-14-3-20.13-8.89l-.43-.41-.43.41c-6.11,5.9-12.88,8.89-20.13,8.89a26.47,26.47,0,0,1-11.59-2.71l-.59-.3-4,9.81.31.29a25.32,25.32,0,0,1,8,16.24c.55,8-3,16.18-10.67,24.45l-.21.22.05.3c.47,2.62,3.16,14.52,13.76,20l58.94-69.5Zm-48.69,56.44-4.86-4.06-1.45,1.73-1-.81,4-4.71,1,.81-1.45,1.73,4.86,4.06Zm4.85-5.49c-1.87,2.23-3.32,1-3.89.58l1.07-1.27a1.25,1.25,0,0,0,2-.13c.57-.67.6-1.37.11-1.78s-.91-.14-1.71.45c-1.51,1.09-2.55,1.5-3.56.66s-1.23-2.19.13-3.81a2.85,2.85,0,0,1,2.16-1.18,2.19,2.19,0,0,1,1.36.58l-1,1.2a1.13,1.13,0,0,0-1.68.2,1.08,1.08,0,0,0,0,1.62c.54.45,1,.11,1.91-.55,1.09-.8,2.19-1.56,3.33-.61S502.26,521.16,500.9,522.77Zm5.35-6.38a4.25,4.25,0,0,1-2.85,1.82,4,4,0,0,1-2.82-1,3.76,3.76,0,0,1-.6-5.69,3.42,3.42,0,0,1,2.39-1.36,2.32,2.32,0,0,1,1.57.6L502.85,512a1.44,1.44,0,0,0-.72-.33,1.46,1.46,0,0,0-1.27.59c-1.19,1.41-.11,2.8.79,3.55a3.07,3.07,0,0,0,2,.83,2.17,2.17,0,0,0,1.65-.95,3.68,3.68,0,0,0,.68-1l-1.22-1-.95,1.13-1-.81,2-2.37,2.91,2.43A7.75,7.75,0,0,1,506.25,516.39Zm5.77-7.12-4.37-3.66a8,8,0,0,1-.39,1.91l-1.12-.94a10.12,10.12,0,0,0,.4-2.19l.87-1,5.62,4.7Zm3.39-3.86a2.3,2.3,0,0,1-3.26.56,1.7,1.7,0,0,1-.64-1.23,2.3,2.3,0,0,1,.2-1.09,1.67,1.67,0,0,1-2.09.06,2.23,2.23,0,0,1,.06-3.25c.95-1.12,2.25-1.36,3.12-.63a1.65,1.65,0,0,1,.31,2.13,2,2,0,0,1,1.34-.41,1.85,1.85,0,0,1,1.05.44C516.54,502.86,516.34,504.32,515.42,505.42Zm3.76-4.44a2,2,0,0,1-2.93.5l1-1.21a.73.73,0,0,0,1-.13c.7-.84-.11-1.63-.91-2.25a1.8,1.8,0,0,1-.46,1.34,2.16,2.16,0,0,1-3.22.25,2.37,2.37,0,0,1-.17-3.53c1.62-1.93,3.5-.44,4.4.32C520.32,498.25,520.32,499.62,519.18,501Zm3.89-4.63a2,2,0,0,1-2.93.5l1-1.21a.73.73,0,0,0,1-.13c.7-.84-.11-1.63-.9-2.25a1.81,1.81,0,0,1-.47,1.34,2.16,2.16,0,0,1-3.21.25,2.37,2.37,0,0,1-.18-3.53c1.62-1.93,3.5-.44,4.4.32C524.21,493.63,524.21,495,523.07,496.35Z" transform="translate(-470.14 -462)" style="fill:#005ca8"/></svg>