<?xml version="1.0" encoding="UTF-8"?><svg id="Layer_1" xmlns="http://www.w3.org/2000/svg" viewBox="0 0 58 58"><defs><style>.cls-1{fill:#005397;}.cls-2{fill:#fff;}.cls-3{fill:#58585a;}.cls-4{fill:#e20031;}</style></defs><path id="Path" class="cls-1" d="M29,58c16.02,0,29-12.98,29-29S45.02,0,29,0,0,12.98,0,29s12.98,29,29,29Z"/><path id="Shape" class="cls-2" d="M1.83,29c0,14.98,12.19,27.17,27.17,27.17s27.17-12.19,27.17-27.17S43.98,1.83,29,1.83,1.83,14.02,1.83,29h0ZM2.63,29C2.63,14.46,14.46,2.63,29,2.63s26.37,11.83,26.37,26.37-11.83,26.37-26.37,26.37S2.63,43.54,2.63,29Z"/><polygon id="Path-2" class="cls-2" points="11.06 35.01 11.05 35.01 10.11 34.76 12.88 32.82 12.48 31.15 8.41 34.16 8.4 34.16 4.57 33.28 4.96 34.88 8.47 35.56 8.48 35.63 5.32 36.39 5.68 37.88 13.63 35.96 13.28 34.47 11.06 35.01"/><polygon id="Path-3" class="cls-2" points="12.42 30.78 12.28 29.26 4.13 29.98 4.27 31.51 12.42 30.78"/><polygon id="Path-4" class="cls-2" points="12.26 28.9 12.62 25.11 11.12 24.96 10.91 27.23 8.97 27.04 9.19 24.87 7.69 24.72 7.47 26.89 5.77 26.72 6 24.41 4.51 24.19 4.12 28.09 12.26 28.9"/><polygon id="Path-5" class="cls-2" points="11.91 22.77 5.75 20.27 5.18 21.69 12.76 24.76 14.15 21.36 12.75 20.79 11.94 22.78 11.91 22.77"/><polygon id="Path-6" class="cls-2" points="15.25 16.99 13.94 18.88 12.33 17.78 13.56 15.98 12.32 15.13 11.09 16.93 9.67 15.96 10.99 14.05 9.78 13.14 7.57 16.37 14.31 20.99 16.49 17.84 15.25 16.99"/><path id="Shape-2" class="cls-2" d="M19.02,15.59l1.28-1.06-.04-.04c-.25.05-.42-.07-1.46-1.29-.75-.87-1.26-1.37-2.11-.89h-.02s-.05-.04-.05-.04v-.02c.45-.66.33-1.37-.39-2.24-.32-.39-.84-.87-1.49-.93-.42-.04-.84.11-1.23.44l-2.03,1.71,5.32,6.29,1.11-.97-2.22-2.64.49-.4c.42-.35.76-.16,1.65.92.58.71.9,1.03,1.17,1.16ZM15.28,12.57l-.4.33-1.38-1.68.4-.33c.45-.37.88-.28,1.34.28.65.79.2,1.26.05,1.39h0Z"/><path id="Path-7" class="cls-2" d="M23.36,13.51c1.4-.62,1.74-1.7,1.04-3.29-.66-1.49-1.66-1.51-2.55-1.54-.67-.02-1.31-.03-1.62-.73-.14-.32-.17-.58-.09-.78.06-.15.18-.27.33-.33.23-.1.41-.08.59.07.15.12.3.35.47.72l1.34-.6-.06-.15c-.27-.62-.63-1.04-1.07-1.25-.5-.24-1.09-.21-1.77.08-1.74.77-1.39,2.26-1.03,3.07.7,1.58,1.71,1.6,2.6,1.62.67.01,1.29.02,1.61.74.1.23.2.57.09.86-.07.17-.2.3-.37.37-.24.11-.47.09-.66-.07-.16-.13-.31-.35-.45-.67l-.1-.23-1.35.59.2.46c.58,1.3,1.52,1.64,2.86,1.05h0Z"/><polygon id="Path-8" class="cls-2" points="27.79 3.95 27.68 10.44 27.61 10.45 27.61 10.43 26.11 4.14 24.48 4.39 26.85 12.35 28.81 12.14 29.41 3.91 27.79 3.95"/><polygon id="Path-9" class="cls-2" points="32.74 12.64 33.62 9.3 34.9 9.65 33.95 12.98 35.41 13.45 37.64 5.55 36.16 5.1 35.31 8.13 34.03 7.78 34.03 7.75 34.81 4.76 33.32 4.41 31.26 12.31 32.74 12.64"/><path id="Shape-3" class="cls-2" d="M41.54,7.33c-.85-.49-1.56-.49-2.26.01-.69.5-1.33,1.5-1.91,2.49-1.41,2.44-1.82,3.86-.1,4.85,1.88,1.09,2.95-.42,4.16-2.5.54-.93,1.08-1.91,1.2-2.76.14-.92-.21-1.59-1.1-2.1h0ZM40.06,11.39c-.96,1.66-1.42,2.32-1.87,2.32-.11,0-.21-.03-.3-.09-.56-.33-.29-1,.86-2.99,1.15-1.99,1.6-2.56,2.16-2.24.13.07.23.19.27.33.11.42-.25,1.17-1.12,2.66h0s0,0,0,0Z"/><polygon id="Path-10" class="cls-2" points="45.98 10.83 44.87 9.78 39.25 15.72 41.98 18.26 43.02 17.17 41.4 15.67 41.42 15.65 45.98 10.83"/><path id="Path-11" class="cls-2" d="M50.54,17.42c.17-.53.05-1.11-.34-1.74-.36-.57-.8-.91-1.3-1.03-.56-.13-1.21.03-1.88.45-1.47.92-1.34,1.93-1.23,2.81.09.69.16,1.28-.5,1.7-.3.19-.6.27-.84.22-.18-.04-.33-.16-.42-.31-.34-.55.16-.95.57-1.21l.22-.14-.78-1.24-.42.27c-1.2.76-1.41,1.73-.62,2.98.82,1.3,1.93,1.48,3.4.55,1.38-.86,1.26-1.87,1.15-2.75-.08-.67-.16-1.3.49-1.71.29-.18.55-.25.76-.21.16.04.29.14.37.28.13.21.14.4.01.59-.1.17-.31.35-.64.57l.78,1.25.14-.09c.57-.36.94-.78,1.09-1.24h0Z"/><polygon id="Path-12" class="cls-2" points="51.26 21.93 51.72 23.27 53.15 22.78 51.72 18.65 50.3 19.14 50.76 20.49 50.73 20.5 44.45 22.66 44.95 24.11 51.26 21.93"/><polygon id="Path-13" class="cls-2" points="52.09 25.86 52.1 25.9 52.3 28.17 53.81 28.11 53.46 24.2 45.31 24.94 45.66 28.79 47.17 28.66 46.95 26.33 46.98 26.33 48.88 26.15 48.89 26.18 49.08 28.32 50.58 28.19 50.39 26.02 52.09 25.86"/><polygon id="Path-14" class="cls-2" points="53.74 31.44 53.87 29.92 45.72 29.21 45.59 30.73 53.74 31.44"/><path id="Path-15" class="cls-2" d="M11.73,39.06c-.17-.28-.44-.49-.76-.57-.1-.03-.21-.04-.32-.04-.57,0-1.06.39-1.21.94-.13.49.05,1.01.46,1.32s.96.33,1.39.07c.59-.35.79-1.12.44-1.71h0s0,0,0,0Z"/><path id="Path-16" class="cls-2" d="M48.04,38.66c-.19-.12-.41-.18-.64-.18-.1,0-.21.01-.31.04-.49.12-.86.53-.93,1.03-.07.5.16.99.59,1.25.59.35,1.36.16,1.72-.43.17-.28.22-.63.14-.95-.08-.32-.29-.6-.57-.77h0s0,0,0,0Z"/><path id="Path-17" class="cls-2" d="M30.13,11.01c-.08-.05-.18-.08-.28-.08-.04,0-.09,0-.13.02-.16.04-.28.15-.35.3-.15.31-.06.7.21.87.12.08.26.1.4.07.16-.04.29-.15.36-.3.16-.31.06-.7-.21-.87Z"/><path id="Path-18" class="cls-2" d="M25.94,11.46c-.08-.05-.18-.08-.27-.08-.04,0-.08,0-.12.02-.16.05-.29.15-.36.3-.15.31-.06.7.21.87.12.08.27.1.4.06.15-.04.28-.15.35-.3.15-.31.06-.7-.21-.87Z"/><polygon id="Path-19" class="cls-2" points="12.51 45.17 12.45 45.12 12.47 45.1 16.34 40.01 15.17 38.86 10.49 45.73 11.9 47.12 18.72 42.35 17.55 41.2 12.51 45.17"/><path id="Shape-4" class="cls-2" d="M20.58,43.32c-1.7-1.02-2.75.02-4.2,2.43-.59.98-1.16,2.01-1.26,2.87-.1.85.24,1.48,1.08,1.98.88.53,1.63.51,2.37-.05.68-.52,1.25-1.42,1.83-2.38,1.24-2.06,2.05-3.73.19-4.85h0ZM20.13,45.27c-.16.47-.54,1.14-1.1,2.08-.57.94-.99,1.59-1.32,1.95-.22.23-.41.34-.59.34-.11,0-.21-.03-.3-.09-.13-.07-.22-.18-.26-.32-.11-.43.28-1.16,1.17-2.65,1.19-1.97,1.65-2.53,2.2-2.2.3.17.36.44.2.9h0Z"/><polygon id="Path-20" class="cls-2" points="25.59 45.47 24.24 50.62 24.17 50.6 24.17 50.58 24.26 45.1 22.59 44.62 20.35 52.52 21.79 52.9 23.23 47.41 23.3 47.42 23.21 53.27 24.89 53.71 26.96 45.79 25.59 45.47"/><polygon id="Path-21" class="cls-2" points="52.99 35.15 53.44 33.47 45.53 31.37 45.21 32.74 50.35 34.11 50.33 34.18 50.31 34.18 44.83 34.07 44.35 35.73 52.23 38 52.62 36.57 47.13 35.11 47.14 35.04 52.99 35.15"/><path id="Path-22" class="cls-2" d="M28.73,47.11h-.17s.06,1.17.06,1.17l1.28-.06.28,5.66,1.53-.07-.39-8.1-1.06.05c-.09.84-.61,1.31-1.52,1.36h0Z"/><path id="Shape-5" class="cls-2" d="M35.59,53.22c2.09-.49,1.87-2.12,1.25-4.73-.38-1.63-.76-2.74-1.5-3.19-.4-.25-.9-.3-1.53-.15-.79.19-1.28.59-1.49,1.24-.17.53-.15,1.22.06,2.13.2.87.48,1.46.85,1.79.34.31.75.41,1.26.29.56-.13.89-.45.98-.94v-.02s.07-.02.07-.02v.03c.32,1.35.37,1.92.19,2.22-.08.12-.2.2-.34.22-.17.05-.36-.02-.46-.17-.1-.12-.17-.3-.23-.55l-1.44.34c.34,1.3,1.12,1.81,2.33,1.52h0ZM35.25,48.83c-.06.11-.16.19-.29.23-.06.02-.12.03-.18.03-.16,0-.3-.08-.41-.24-.14-.19-.26-.48-.42-1.03-.29-.97-.23-1.44.18-1.57.52-.15.81.56,1.04,1.35.19.61.21.99.09,1.23h0Z"/><path id="Shape-6" class="cls-2" d="M37.74,48.08c.75,1.41,1.44,2.6,2.35,2.88.45.14.94.06,1.51-.25,1.76-.94,1.03-2.67-.02-4.67-.92-1.72-1.67-2.94-2.8-2.94-.32,0-.67.1-1.06.31-1.76.94-1.03,2.67.03,4.67h0ZM38.08,44.65c.04-.11.12-.21.23-.26.26-.14.49-.05.77.31.29.37.64,1.03,1.17,2.05.52,1.01.84,1.68.97,2.13.13.44.07.67-.19.8-.07.04-.15.06-.22.06-.41,0-.8-.64-1.7-2.4-.82-1.6-1.14-2.32-1.02-2.69h0Z"/><path id="a" class="cls-2" d="M43.12,40.26c-.22-.1-.46-.15-.71-.16-.46,0-.91.21-1.36.65-1.44,1.39-.26,2.85,1.31,4.49,1.11,1.15,2.1,2.1,3.06,2.12h.03c.46,0,.9-.21,1.35-.65,1.43-1.38.25-2.85-1.31-4.49-.96-.99-1.69-1.66-2.37-1.96h0ZM45.97,45.88c-.08.08-.19.13-.31.14-.38,0-.94-.53-2.19-1.86-1.22-1.31-1.73-1.92-1.72-2.31,0-.12.06-.23.15-.31.22-.2.46-.18.82.09.38.28.9.81,1.69,1.65,1.6,1.7,1.96,2.22,1.55,2.61h0Z"/><path class="cls-2" d="M29,14.16c-8.18,0-14.84,6.66-14.84,14.84s6.65,14.83,14.84,14.83,14.83-6.65,14.83-14.83-6.65-14.84-14.83-14.84ZM29,14.99c4.08,0,7.96,1.78,10.62,4.88l-.6-.05c-.05,0-5.11-.4-10.01-.4s-9.96.4-10.01.4l-.6.05c2.66-3.1,6.54-4.88,10.62-4.88h0ZM14.99,29c0-3.29,1.16-6.48,3.28-9v.79c.03,3.95.05,7.07,1.54,11.35.93,2.7,2.17,4.7,4.42,7.15,1.74,1.9,3.2,2.87,4.39,3.57l.26.15c-7.67-.06-13.89-6.32-13.89-14.01h0ZM29.12,43.01l.26-.15c1.1-.64,2.6-1.63,4.39-3.57,2.2-2.38,3.49-4.46,4.42-7.16,1.48-4.28,1.5-7.4,1.53-11.34v-.79c2.13,2.52,3.29,5.71,3.28,9,0,7.69-6.22,13.94-13.89,14.01h0Z"/><path id="Path-23" class="cls-4" d="M29,20.21c-4.93,0-9.95.4-9.95.4.03,4,.03,7.05,1.49,11.26.96,2.77,2.24,4.68,4.25,6.88,1.68,1.84,3.1,2.77,4.21,3.42,1.11-.65,2.52-1.59,4.21-3.42,1.98-2.14,3.29-4.11,4.25-6.88,1.46-4.22,1.46-7.26,1.49-11.26,0,0-5.02-.4-9.95-.4h0Z"/><polygon id="Path-24" class="cls-2" points="29.01 41.08 26.54 39.2 28.28 36.06 23.87 37.22 26.2 34.06 22.18 34.59 25.02 31.62 20.8 31.49 23.96 29.03 19.87 28.31 23.61 26.18 19.94 24.59 19.9 21.42 22.93 21.23 24.47 25.37 26.01 21.08 27.49 25.17 29.01 20.96 30.53 25.17 32.01 21.08 33.56 25.37 35.09 21.23 38.12 21.42 38.07 24.59 34.41 26.18 38.15 28.31 34.06 29.03 37.22 31.49 33 31.62 35.84 34.59 31.82 34.06 34.16 37.22 29.75 36.06 31.48 39.2 29.01 41.08"/><path id="Path-25" class="cls-3" d="M33.86,26.46h-.64c0,.27-.1.49-.22.71-.31.41-.76.76-1.17.9v-.75h-.52v1.01c-.26.08-.53.18-.8.25v.6c1.13-.27,2.16-.84,2.98-1.66-.29,2.53-2.11,4.44-4.48,4.45-2.37-.01-4.17-1.95-4.48-4.45.82.81,1.84,1.39,2.96,1.66v-.6l-.84-.25s-.02-.98,0-1h-.51v.76c-.63-.28-1.36-.88-1.4-1.64h-.64c-.13,2.32.93,4.63,3.08,5.6,1.29.63,3.12.43,4.29-.35,1.78-1.22,2.53-3.12,2.39-5.23h0Z"/><path id="Path-26" class="cls-3" d="M29,30.47c1.27,0,2.52-.37,3.58-1.07.17-.32.31-.66.41-1.01-2.35,1.77-5.59,1.77-7.95.01.1.36.24.7.42,1.02,1.06.69,2.29,1.05,3.55,1.05h0Z"/><path id="b" class="cls-3" d="M29,30.86c-1.09,0-2.17-.28-3.12-.8.76.98,1.87,1.57,3.12,1.58,1.28,0,2.4-.61,3.16-1.6-.97.54-2.06.83-3.16.83Z"/><path class="cls-3" d="M29,29.35c.35,0,.71-.03,1.05-.09v-.64c-.71.09-1.43.09-2.14,0v.64c.36.06.72.09,1.08.09Z"/></svg>