<svg xmlns="http://www.w3.org/2000/svg" viewBox="0 0 82 93.1"><title>1. FC Koln logo</title><path d="M552.65,512s0,0,0-.08a1.58,1.58,0,0,0,.15-.67,1.27,1.27,0,0,0-.13-.56,1.18,1.18,0,0,0-.2-.25l.19-.56a1.35,1.35,0,0,0,0-.32,1.19,1.19,0,0,0-.52-1,1.29,1.29,0,0,0-1.47,0,2.82,2.82,0,0,0-.81,1,.54.54,0,0,0-.6-.18c-.39.1-.34.17-.65.62-1.12,1.63-2.6,4.19-4.31,4.28-.37,0-.48-.15-.93-.85-3.69-5.89-8.24-9.37-14.25-13.65a19.5,19.5,0,0,1-1.85-2.63c-1.27-2-2.72-4.23-4.18-5.26a13.31,13.31,0,0,0-3.46-1.65,10.15,10.15,0,0,1-3.9-2.11,12.29,12.29,0,0,1-1.39-1.81,16,16,0,0,0-4.73-4.84,8.1,8.1,0,0,0,.14-1.42,6.19,6.19,0,0,0-.52-2.45,1.58,1.58,0,0,0-1-.81,4.49,4.49,0,0,0-2.46.41c1.42-4.2,4.76-7,6.49-8.42,1-.8,1.51-1.25,1.51-1.87a1.26,1.26,0,0,0,0-.31c-.25-1.13-1.51-1.19-2-1.22h-.1a8.13,8.13,0,0,0-4.78,1.36,4.83,4.83,0,0,0-1.34.59,1.36,1.36,0,0,0,0-.22,1.49,1.49,0,0,0-1.64-.76,9.3,9.3,0,0,0-3.27,1l-.17.1a5.45,5.45,0,0,0-2.25,2.38,4.31,4.31,0,0,0-1.71,2.41,3.07,3.07,0,0,0-1.36,2.42,3.81,3.81,0,0,0-.85,1.68,5.12,5.12,0,0,0-2.58-1.23h-.15a1.92,1.92,0,0,0-1.48.49l-.13.13-.08.16a1.16,1.16,0,0,0-.11.48,1.51,1.51,0,0,0,.3.84l.06.08s.18.82.18.82l.1.87a4.46,4.46,0,0,0,1.66,2.84,4.46,4.46,0,0,0-.26,1.38,5.44,5.44,0,0,0,.34,1.75l.07.23a2.19,2.19,0,0,1,0,.27,20.89,20.89,0,0,1-.67,4l-.12.38a10.78,10.78,0,0,0-.62,3.3,6,6,0,0,0,.18,1.51,3.92,3.92,0,0,0,1.85,2.34l.52.21c.47.18.61.23.8.55a5.4,5.4,0,0,1,.24,2,14.07,14.07,0,0,1-.11,1.82v.14a1.19,1.19,0,0,0,.76,1.1,1.31,1.31,0,0,0,1.47-.39,6.27,6.27,0,0,0,.83-1.06c.06.09.08.22.17.3l0,0,0,0a1.12,1.12,0,0,0,.56.18c-.6.41-1.33.86-2.31,1.45-5.64.89-9.38,2.94-10.08,5.46a26.18,26.18,0,1,0,35.61,13.69l.34-.16.18.19a2.45,2.45,0,0,0,1.5.88,4.16,4.16,0,0,0,.86-.05l.06,0,.29.51a1.88,1.88,0,0,0,1.8.76,1.54,1.54,0,0,1,.72.1c.25.12.35.47.47,1.27l.1.59a1.86,1.86,0,0,0,.72,1.09h0l.17.84c.09.69.2,1.48.93,1.79h.07c.12.58.14,1.29.82,1.7a1.3,1.3,0,0,0,.55.13l0,.07a1.53,1.53,0,0,0,1.15,1.2h0l.44.73a4.47,4.47,0,0,0,.91,1.29l.16.13.2.06a1.22,1.22,0,0,0,.31,0c.86,1.1,3.22,4.62,3.22,7.89,0,.16,0,.31,0,.47a6.7,6.7,0,0,1-1.67,4.12,3.59,3.59,0,0,0-.72,2.26v.06a1.76,1.76,0,0,0,1,1.51,3.46,3.46,0,0,0,3,0,2.83,2.83,0,0,0,1.72-2.12,1.4,1.4,0,0,1,.23-.56,4,4,0,0,0,1.36-2.75c0-.11,0-.22,0-.34a16,16,0,0,0-.71-3.84,16.16,16.16,0,0,1-.38-3c.5.69.92,1.38,1.16,1.8l.12.21a8,8,0,0,1,1.27,3.72,3.31,3.31,0,0,1,0,.51,6.59,6.59,0,0,1-.88,2.35,8.84,8.84,0,0,0-1.1,2.88,3.16,3.16,0,0,0,0,.53,2.29,2.29,0,0,0,.78,1.79,3,3,0,0,0,2.94.32c1.43-.52,2.41-2.13,2.72-4.33l.37-.27a1.88,1.88,0,0,0,.47-1.28,3,3,0,0,0-.11-.76,22.88,22.88,0,0,1-.9-5.77c0-.32,0-.63,0-.94l-.05-2.62a3,3,0,0,0-.8-1.75l-.57-.65a3.87,3.87,0,0,1-1-1.41,9.74,9.74,0,0,1-.2-2.19c0-1.46.17-3.2.34-4.9s.35-3.59.35-5.15a14.39,14.39,0,0,0-.12-1.88c4.25.13,6.18-4.25,6.84-5.74l.11-.25a2.36,2.36,0,0,0,.17-.83,1.21,1.21,0,0,0-.35-.88m-51.59-15c.06-.45.11-.76.17-1.11a1.57,1.57,0,0,0,.35.09,1.92,1.92,0,0,0,.87,1.3l.21.83.05.08c-.28.23-.59.49-1,.84l-.58.52c-.54.48-1,.86-1.4,1.22a10.79,10.79,0,0,0,1.32-3.77" transform="translate(-471 -465.45)" style="fill:#fff"/><path d="M547.09,535.86l0,0,.11.13Z" transform="translate(-471 -465.45)" style="fill:#fff"/><path d="M472,532.41a25.14,25.14,0,1,1,25.13,25.14A25.14,25.14,0,0,1,472,532.41" transform="translate(-471 -465.45)" style="fill:#e20613"/><path d="M475,532.41a22.12,22.12,0,1,1,22.12,22.1A22.12,22.12,0,0,1,475,532.41" transform="translate(-471 -465.45)" style="fill:#fff"/><path d="M476.69,532.41a20.47,20.47,0,1,1,20.48,20.47,20.48,20.48,0,0,1-20.48-20.47" transform="translate(-471 -465.45)" style="fill:#e20613"/><path d="M518.68,519.19a7.65,7.65,0,0,1-.8-1,25.14,25.14,0,0,0-20.72-10.89l0,.06a4.42,4.42,0,0,0-1.15.55,5.45,5.45,0,0,1-2.36.47c-.63,0-.19-.83-.58-.7a9.31,9.31,0,0,0-1.86.73c0,1-3,2-4.57,1.22.19-2.33,4.06-4.35,9.59-5.19a29.73,29.73,0,0,0,6.21-4.61c1-.91,1.49-1.28,1.82-1.35.15-.06,0-.15-.08-.16a1.07,1.07,0,0,1-.57-.59c-.18-.38-.06-.84-.32-1.08s-.68-.36-.71-.86c0-.26,0-.66-.41-.69s-.7.13-.76-.93c0-.46,0-1.21-.25-1.23s-.69,1.12-1.06,4c-.27,2.07-1.5,4.42-1.93,4.12s-.06-2.5-.69-3.45a6.69,6.69,0,0,1-1.7,4.28c-.26.28-.49.12-.48,0,.07-.52.33-3.57-.28-4.5-.48-.77-1-.81-1.74-1.13a3,3,0,0,1-1.31-1.68c-.5-1.95.38-4,.55-4.68a18.43,18.43,0,0,0,.68-4.74,3.86,3.86,0,0,1-.09-3.17c.09-.15.16-.26,0-.38a3.8,3.8,0,0,1-1.77-2.63A6.87,6.87,0,0,0,491,477c-.11-.28-.35-.44-.27-.63a1,1,0,0,1,.74-.19,4.16,4.16,0,0,1,3,2,3,3,0,0,1,.63-.89,2.8,2.8,0,0,1,1-2.24,2.11,2.11,0,0,1,1.24-2.11,3.24,3.24,0,0,1,1.61-2.37,4.52,4.52,0,0,1,2.13-2.27,8.27,8.27,0,0,1,2.91-.93c.64-.08.78.32.48.59a15,15,0,0,0-4.14,5.86,4.75,4.75,0,0,1,1.87-1.81,4.58,4.58,0,0,1,2.42-2.3,4.18,4.18,0,0,1,2.71-2,7.05,7.05,0,0,1,4.31-1.26c.5,0,1.13,0,1.24.48.18.66-7.37,4.55-8.53,12.38,0,.35,1.85-1.79,3.83-1.46a.47.47,0,0,1,.25.24c.92,2,0,3.82.27,4,3.92,2.3,4.77,5.22,6.46,6.87,2.37,2.26,5.15,2.18,7.48,3.85s4.74,6.81,6,7.89c5.57,4,10.26,7.44,14,13.38.49.77.8,1.24,1.76,1.32,2.07-.05,3.78-2.51,5.17-4.74.08-.12.17-.15.26-.08s.07.46.25.48c.45.06.84-1.29,1.3-1.59.18-.13.46,0,.4.21a11.5,11.5,0,0,0-.48,1.51c0,.1.08.08.13,0a.32.32,0,0,1,.3-.12c.19,0,.18.29.12.41a2.46,2.46,0,0,0-.34,1c0,.32.24.09.4.18s.17.35.06.66c-.58,1.28-2.36,6-6.57,5.37-.54-.1-.82-.49-.65.12,1.08,3.64-1,11.53-.15,15.29.26,1.08,1.48,1.94,1.86,2.51a2,2,0,0,1,.53,1.16c.28,3.21-.53,3.51,1,9.48a1.16,1.16,0,0,1-.14,1.14c-.26.3-.46.17-.54.45-.19,1.93-1,3.45-2.12,3.86-1.56.54-2.59-.19-2.36-1.51.44-2.39,1.59-2.84,2-5.27.3-2.06-.94-4.17-1.37-4.89a16.36,16.36,0,0,0-2.62-3.59c-.16-.2-.3-.15-.35,0-.47,1.48,0,4.53.23,5.31a13.52,13.52,0,0,1,.67,3.84,3.07,3.07,0,0,1-1.06,2.09c-.73.71-.27,1.9-1.64,2.47a2.49,2.49,0,0,1-2.09.06c-.32-.2-.47-.29-.5-.68a2.6,2.6,0,0,1,.5-1.69,7.69,7.69,0,0,0,1.88-4.67c.32-4.44-3.63-9.49-3.88-9.55s-.17.17-.37.11c-.39-.32-.86-1.52-1.28-2-.23-.31-.79-.18-.88-.62a1.08,1.08,0,0,0-.47-.84c-.18-.11-.31.08-.48,0-.49-.38-.5-1.74-.66-1.82s-.33.06-.46,0c-.35-.15-.27-1.29-.55-2.09-.13-.42-.56-.41-.68-.92-.19-.92-.16-2.12-1.15-2.58s-1.66.17-2.15-.57c-.26-.32-.21-.83-.87-.9-.35-.17-.49-.6-.8-.5s0,.38-.38.6c-.47,0-.95-1.24-1.6-1.19-.22.08-.3.33-.55.34s-.31-1.43-1.23-1.77c-.17-.06-.29.24-.43,0a7,7,0,0,1-.82-.75" transform="translate(-471 -465.45)" style="fill:#1d1d1b"/><path d="M518.68,519.19a7.65,7.65,0,0,1-.8-1,25.14,25.14,0,0,0-20.72-10.89l0,.06a4.42,4.42,0,0,0-1.15.55,5.45,5.45,0,0,1-2.36.47c-.63,0-.19-.83-.58-.7a9.31,9.31,0,0,0-1.86.73c0,1-3,2-4.57,1.22.19-2.33,4.06-4.35,9.59-5.19a29.73,29.73,0,0,0,6.21-4.61c1-.91,1.49-1.28,1.82-1.35.15-.06,0-.15-.08-.16a1.07,1.07,0,0,1-.57-.59c-.18-.38-.06-.84-.32-1.08s-.68-.36-.71-.86c0-.26,0-.66-.41-.69s-.7.13-.76-.93c0-.46,0-1.21-.25-1.23s-.69,1.12-1.06,4c-.27,2.07-1.5,4.42-1.93,4.12s-.06-2.5-.69-3.45a6.69,6.69,0,0,1-1.7,4.28c-.26.28-.49.12-.48,0,.07-.52.33-3.57-.28-4.5-.48-.77-1-.81-1.74-1.13a3,3,0,0,1-1.31-1.68c-.5-1.95.38-4,.55-4.68a18.43,18.43,0,0,0,.68-4.74,3.86,3.86,0,0,1-.09-3.17c.09-.15.16-.26,0-.38a3.8,3.8,0,0,1-1.77-2.63A6.87,6.87,0,0,0,491,477c-.11-.28-.35-.44-.27-.63a1,1,0,0,1,.74-.19,4.16,4.16,0,0,1,3,2,3,3,0,0,1,.63-.89,2.8,2.8,0,0,1,1-2.24,2.11,2.11,0,0,1,1.24-2.11,3.24,3.24,0,0,1,1.61-2.37,4.52,4.52,0,0,1,2.13-2.27,8.27,8.27,0,0,1,2.91-.93c.64-.08.78.32.48.59a15,15,0,0,0-4.14,5.86,4.75,4.75,0,0,1,1.87-1.81,4.58,4.58,0,0,1,2.42-2.3,4.18,4.18,0,0,1,2.71-2,7.05,7.05,0,0,1,4.31-1.26c.5,0,1.13,0,1.24.48.18.66-7.37,4.55-8.53,12.38,0,.35,1.85-1.79,3.83-1.46a.47.47,0,0,1,.25.24c.92,2,0,3.82.27,4,3.92,2.3,4.77,5.22,6.46,6.87,2.37,2.26,5.15,2.18,7.48,3.85s4.74,6.81,6,7.89c5.57,4,10.26,7.44,14,13.38.49.77.8,1.24,1.76,1.32,2.07-.05,3.78-2.51,5.17-4.74.08-.12.17-.15.26-.08s.07.46.25.48c.45.06.84-1.29,1.3-1.59.18-.13.46,0,.4.21a11.5,11.5,0,0,0-.48,1.51c0,.1.08.08.13,0a.32.32,0,0,1,.3-.12c.19,0,.18.29.12.41a2.46,2.46,0,0,0-.34,1c0,.32.24.09.4.18s.17.35.06.66c-.58,1.28-2.36,6-6.57,5.37-.54-.1-.82-.49-.65.12,1.08,3.64-1,11.53-.15,15.29.26,1.08,1.48,1.94,1.86,2.51a2,2,0,0,1,.53,1.16c.28,3.21-.53,3.51,1,9.48a1.16,1.16,0,0,1-.14,1.14c-.26.3-.46.17-.54.45-.19,1.93-1,3.45-2.12,3.86-1.56.54-2.59-.19-2.36-1.51.44-2.39,1.59-2.84,2-5.27.3-2.06-.94-4.17-1.37-4.89a16.36,16.36,0,0,0-2.62-3.59c-.16-.2-.3-.15-.35,0-.47,1.48,0,4.53.23,5.31a13.52,13.52,0,0,1,.67,3.84,3.07,3.07,0,0,1-1.06,2.09c-.73.71-.27,1.9-1.64,2.47a2.49,2.49,0,0,1-2.09.06c-.32-.2-.47-.29-.5-.68a2.6,2.6,0,0,1,.5-1.69,7.69,7.69,0,0,0,1.88-4.67c.32-4.44-3.63-9.49-3.88-9.55s-.17.17-.37.11c-.39-.32-.86-1.52-1.28-2-.23-.31-.79-.18-.88-.62a1.08,1.08,0,0,0-.47-.84c-.18-.11-.31.08-.48,0-.49-.38-.5-1.74-.66-1.82s-.33.06-.46,0c-.35-.15-.27-1.29-.55-2.09-.13-.42-.56-.41-.68-.92-.19-.92-.16-2.12-1.15-2.58s-1.66.17-2.15-.57c-.26-.32-.21-.83-.87-.9-.35-.17-.49-.6-.8-.5s0,.38-.38.6c-.47,0-.95-1.24-1.6-1.19-.22.08-.3.33-.55.34s-.31-1.43-1.23-1.77c-.17-.06-.29.24-.43,0A7,7,0,0,1,518.68,519.19Z" transform="translate(-471 -465.45)" style="fill:none;stroke:#1d1d1b;stroke-width:0.12700000405311584px"/><path d="M496.47,475.53c.4-.5,1.19-.72,1.16-.88s-.37,0-.59,0-.22,0-.2-.12c.37-1.31,1.65-1.54,2-2,0-.08,0-.08-.1-.14s-.53.21-.53,0c.15-1.3,1.74-1.93,2-2,.08-.07,0-.16-.09-.17s-.25.1-.26-.07c.15-.65,1-1.17,1.57-1.44s1.69-.58,1.69-.41-.88.5-1.17.93a1.88,1.88,0,0,0-.48,1.16,2.8,2.8,0,0,0-1.41,2.39,2,2,0,0,0-.92,2,3.69,3.69,0,0,0-1.06,2.79c-1.6,2.09-1.12,2.88.64,3.53.26.08.51.1.56,0s-.15-.2-.23-.38c-1-2.13.25-3.2,1.93-3.92.13-.06,0-.21-.17-.21-.45,0-.86.11-.92,0-.25-.7,1.56-2.14,2.45-2.41.38-.11.22-.3.06-.28s-.61.12-.73-.19c.23-.79,2.4-1.83,2.71-2s.28-.35-.68-.15c-.09,0-.19,0-.15-.12.18-.57,2.21-1.36,3.24-1.72.16-.08.21-.33-.28-.23-.18,0-.5.14-.56,0,.06-.77,2.3-1.36,3.1-1.53.18-.06.21-.16.06-.24s-.66.12-.5-.14a5.6,5.6,0,0,1,2.75-.3c.15,0,.19.06.21.09-.17.4-2.85,1.19-3.19,2.8a2.79,2.79,0,0,0-1.68,1.75,2.53,2.53,0,0,0-1.32,1.88c-.46.34-1.67,1.42-1.27,2.72a3.31,3.31,0,0,0-1.12,2.93,2.31,2.31,0,0,1-1.54,1.76c-.22.09-.13.27,0,.31a3.3,3.3,0,0,0,3-.78c1.52-1.45,2.53-2,3.22-2.06.12,0,.12.06.15.13a5,5,0,0,1,0,2.6,6.27,6.27,0,0,1-2,2.82c-.06.06.17.75,0,1.1s0,.72.18.79c.45.17.77-1.51,1-1.47s.18.38.44.51.34,0,.36-.15a7.21,7.21,0,0,1,.32-1.74c.08-.1.34.41.35.73,0,1.3-.71,2.41-.28,3.31.09.19.31.18.46,0,.39-.42.66-2,1.54-2.15,1.18-.26,2.35,3,1.52,3.84-.4.34-.91,0-1.41.32s-.49,1.52-.86,2c-.22.22-.48.26-1,.3-1.07.08-.74,3.14-.58,3.68.11.32.33.26.48.15a2.79,2.79,0,0,0,.3-1.35c0-.19.37-.26.6-.49s.12-.41.27-.6.43,0,.61-.3c.46-.38.13-1,.51-1.24.55-.36,1-.18,1.52-.71.3-.33.33-1,.75-1.15,2.22-.05,4.42,2.5,4.8,3.26,1.1,2.27-.66,5.69.54,6.35a2.5,2.5,0,0,1,1,3c-.33.87-2.74,2-3.05,4-.16,1.93.85,1.53.92,1.29a5.82,5.82,0,0,1,.26-.8c.09-.21.39-.12.42.09s.47.7,1.08-.44a8,8,0,0,1,2.21-2.19c.77-.54,1-2.25,1.08-2.64s.38-.34.42-.7-.67-1.61-.25-2.49a.61.61,0,0,1,1-.1c.37.42-.23,1.81.44,1.84s.63-.65,1.12-.61-.4,1.93.09,2.21c.3.12.68,0,.83.28.14.5-.76,1.42,0,1.42,8.25-.15,11.27,6.35,10.73,7.53-.25.45-1.24-.22-1.38.23a4.64,4.64,0,0,0,1.44,4.8c.14.08.4,0,.38-.35-.08-.72-.49-1.11-.4-1.83.14-1.26,3-.48,3.1.48a1.4,1.4,0,0,0,.39,1c.4.38,1.36,0,1.46.79.12,1.63-1.91,1.73-3.32,2.73-.67.52-.52.88,0,1.06s1.76,0,2.31.79c.78,1.11-.24,3.43-.3,4.41s1.72,3.9,1.76,5.38c.13.74-.38,1.14-1,.53a16.71,16.71,0,0,1-1.71-2.35c-.14-.23-.5-.25-.49.23,0,1.28,6.07,9.2,6.23,10.49.14.68-.24,1.26-.08,1.93.05.19.3.08.32.24,0,.44-.41,1.11.22,1.42.32.87,0,1.23.17,2s.42,1.71.5,2.44c-.17,2-1,2.84-1.58,3.14s-.76-.21-.71-.63c.14-1.23,1.51-3.43,1-5.89-1.4-6.35-8.2-10.85-9.33-13.27-.36-.91-1.67-1-1.74-2.08-.13-.35-.47-.24-.76-.56s-.24-1.11-.5-1.72c-.08-.19-.32-.1-.49-.28-1-1.27-.76-7.48-1.62-8.33-.64-.35-1.13.63-1.92.71-.61.06-1.61-1.44-2-1.06s-.17,1.06-.14,1.18.18.64,0,.64-.45-.37-1.22-.68c-.51-.18-1,0-1.23-.15-.52-.56,0-1.75-.86-2.09-.25-.1-.29-.72-.42-1s-.37-.17-.49-.3a3.69,3.69,0,0,1-.51-1.3c-.09-.35-.89.08-1-.46-.08-.37-.51-.48-.84-.54s-.23-.94-.59-1.08c-.15-.07-.21.1-.36,0s-.13-.39-.34-.54-.34.08-.47-.06c-.51-.62-.11-1.66-.37-2s-.48,0-.74-.21-.3-.52-.46-.57a.86.86,0,0,1-.8-.32c-.83-1.16-.73-2.49-1-3-.19-.31-.46-.5-.67.08-.42,1-.37,4.77-1.58,5.28-.93.46-1.76-1.14-2.21-1.43-.21-.11-.24.23-.39.24-.42-.17-.33-.67-.67-.87s-.19.32-.38.28c-.33-.3-.33-1.12-.62-1.26s-.38.19-.51.07c-.48-.41-.14-1.34-.72-1.63-.25-.08-.21.34-.47.22s-.2-1.4-1-1.27c-.11,0-.08-.17-.16-.23s-.38.29-.62.08a3.84,3.84,0,0,0-.78-.8c-.32-.27-.8.07-1.2-.23-1.4-.62-4.61,1.83-6.05,3.27-.53-.49-1.24,0-1.84.09-.22,0-.89,0-.36-.71,1.31-1.39,2.27-1.32,4.74-3.09,1.81-1.32,3.43-2.61,4-3a1.37,1.37,0,0,1,1.89.39,16.37,16.37,0,0,0,3.78,3.55c1.77.76,1.85-.59,2.07-1.06s.31-.08.29.37c0,.29.11.71.35.75.49.06.49-.31.56-.54.55-2.17,2.69-4.79,3.53-4.25.62.39,1,.39,1.13-.35.16-1-.58-1.84-.78-2.85-.21-1.17-.08-2.71-.53-2.92-.26-.11-.62.14-.82.43a2.67,2.67,0,0,0-.36,1.17c0,.24-1,.5-1.13,1.77,0,.23-.38-.23-.64,0-.54.41-.44,2.46-.62,2.58s-.45-.21-.53.09-.14,1.13-.3,1.19-.27-.12-.46,0c-.47.39-.28.94-.73,1.46-.27.34-.46.1-.49-.2a3.49,3.49,0,0,0-.83-1.63c-1-1.08-.4-2.87-1.87-3.61-.44-.22-.47-.43-.52-.83a.83.83,0,0,0-.49-.8.59.59,0,0,1-.49-.62c0-.76-.53-.8-.84-.86-.72-.07-.74-.21-.52-2a2.93,2.93,0,0,0-.07-1.34c-.38-.55-1.2-.2-1.08-1.1.09-.59,1.15-1.37,1.6-1.85.27-.31.45-1.11-.5-.92-2.15.57-3.87,4.39-4.28,5.12-1.56,2.86-2.91,4-4.18,4.44a2.29,2.29,0,0,1-3.07-1.61,7.68,7.68,0,0,1,.52-3.7c2.08-7.24-.24-5.86.89-8.27.73-.82,1.77-.71,2.83-.83.23,0,.15-.33.09-.42a1.07,1.07,0,0,0-.61-.25,1.75,1.75,0,0,1-1.08-1.33,1.86,1.86,0,0,1,.72-1.49c.44-.44.76-.48.77-.58,0-.39-.84.16-.91,0-.17-.6.33-1.15.66-1.54" transform="translate(-471 -465.45)" style="fill:#fff"/><path d="M494.22,479.29a3,3,0,0,0,.32,1.51c-.35,0-.56.36-.87.19a4.11,4.11,0,0,1-1.81-2.49,8.79,8.79,0,0,0-.5-1.75c1.66.11,2.87,2.34,2.85,2.54" transform="translate(-471 -465.45)" style="fill:#fff"/><path d="M507.59,479.56c.09,0,.12,0,.12.07-.07,1.18-1.32,3.54-3,4-.09,0-.16,0-.19-.08a2.66,2.66,0,0,1,1.69-2.72,2.77,2.77,0,0,0,1.33-1.22" transform="translate(-471 -465.45)" style="fill:#1d1d1b"/><path d="M502.11,484.19c.08.3,0,.32-.24.15a1.57,1.57,0,0,0-2.09-.39c-.25.1-.33.1-.26-.13a1.44,1.44,0,0,1,2.59.37" transform="translate(-471 -465.45)" style="fill:#1d1d1b"/><path d="M497.68,484.36a2.35,2.35,0,0,1-.13,2.29c-.29.55-.78,1.44-1,1.82a.26.26,0,0,1-.39.18c-.14,0,.52-1.13.71-2.43a4.13,4.13,0,0,1,.32-1.89c.13-.19.33-.13.45,0" transform="translate(-471 -465.45)" style="fill:#1d1d1b"/><path d="M501.29,484.94c.31.72-.45,1.07-.9,1.16a1,1,0,0,1-.81-.2c-.15-.11-.07-.18-.18-.23s-.18.14-.44.2-.19-.06-.07-.24c.29-.48.45-.82.92-1s1.09-.37,1.48.34" transform="translate(-471 -465.45)" style="fill:#1d1d1b"/><path d="M498.79,488c.37,1.44.1,2-.23,2.35-.12.11-.9.25-1-.74a7.73,7.73,0,0,0,.86-1.68c.16-.32.26-.35.38.08" transform="translate(-471 -465.45)" style="fill:#1d1d1b"/><path d="M495.91,491.95c-.17.91-.54,1.37-1.18,1.51s-1.07-.74-1-.73a2.13,2.13,0,0,0,2-.87c.11-.16.22,0,.19.1" transform="translate(-471 -465.45)" style="fill:#1d1d1b"/><path d="M532.7,506a.61.61,0,0,1,.44.8c-.17.39-.52.66-.53,1s-.06.51-.32.59c-.47,0-.74-.92-1.15-.25a.45.45,0,0,1-.76-.08c-.08-.3-.26-.6-.56-.61-1,0-1.21-1.55-1.06-2,.75-1.76,2.59,0,3.93.47" transform="translate(-471 -465.45)" style="fill:#1d1d1b"/><path d="M494.5,505.67a4,4,0,0,0-1.14,1.39,11.34,11.34,0,0,0-2.31.83,12.05,12.05,0,0,1-2.15.32c-.14,0-.17-.1-.17-.21-.07-.68,4.15-2.41,5.77-2.57.15,0,.24.07,0,.25" transform="translate(-471 -465.45)" style="fill:#fff"/><path d="M550.24,514.41c.13.34-.23.78-.61,1.2a5.29,5.29,0,0,1-3.33,1.51.8.8,0,0,1-.65-1c.13-.42,1.43-.53,2.42-.88a4.78,4.78,0,0,0,1.65-.84c.36-.27.45-.11.52,0" transform="translate(-471 -465.45)" style="fill:#fff"/><path d="M538.77,539.59c.24,0,.21-.08.42,0s.18.82.16,1.24c0,.26-.11.7.17.91s-.33,1,.09,1.37c.23.32-.26,1.15.12,1.61a.44.44,0,0,1,.41.2c-.16,1,.27,2.48.12,2.92-.42.66-.74.6-1.1,1.69-.54,1.05-2.07.4-1.77-.46a11.86,11.86,0,0,0,1.54-4.75c.18-2.31-1-6-1.17-6.49s.07-.74.44-.32c.54.84.34,2,.58,2.09" transform="translate(-471 -465.45)" style="fill:#fff"/><path d="M499.33,520l0,.22-1.42-2.11-.6,7.37h-.19l-.58-7.37-1.42,2.11-2.6-12-2.6,12-1.42-2.11L486,549.41v0a20.29,20.29,0,0,0,11.21,3.36h0a20.26,20.26,0,0,0,11.21-3.36v0s-2.24-28.26-2.49-31.34l-1.42,2.11-2.61-12L499.33,520" transform="translate(-471 -465.45)" style="fill:#fff"/><path d="M508.49,549.41,506,517.79l-1.45,2.15-2.66-12.2-2.65,12.2-1.44-2.15-.62,7.65-.6-7.65-1.45,2.15-2.65-12.2-2.65,12.2-1.45-2.15-2.52,31.62v.1a20.41,20.41,0,0,0,11.3,3.4h0a20.37,20.37,0,0,0,11.31-3.4Z" transform="translate(-471 -465.45)" style="fill:#1d1d1b"/><polygon points="47.53 65.84 44.3 54.68 4.47 65.88 6.94 77.25 47.53 65.84" style="fill:#fff"/><polygon points="11.97 65.22 17.19 63.59 16.27 73.43 12.62 74.45 13.24 67.76 11.68 68.31 11.97 65.22" style="fill:#e20613"/><path d="M492.71,535.92a3,3,0,0,1-2.15,2.18c-1,.26-2,0-1.85-1.06a2.89,2.89,0,0,1,2.16-2.22c1-.28,1.94,0,1.84,1.09" transform="translate(-471 -465.45)" style="fill:#e20613"/><polygon points="24.11 61.65 30.88 59.73 30.63 62.57 27.54 63.42 27.45 64.45 30.16 63.7 29.91 66.23 27.21 67 26.89 70.44 23.18 71.48 24.11 61.65" style="fill:#e20613"/><path d="M510.6,526.64a2.44,2.44,0,0,0-2.08-.37,3.14,3.14,0,0,0-2.19,2.48c-.1,1.07.78,1.64,1.88,1.33a4.57,4.57,0,0,0,2.2-1.5l-.46,3.71a11,11,0,0,1-2.65,1.12c-2.89.81-4.95-.73-4.68-3.53a8.32,8.32,0,0,1,5.79-6.66,7,7,0,0,1,2.43-.27Z" transform="translate(-471 -465.45)" style="fill:#e20613"/><path d="M494.65,539.72a1.1,1.1,0,0,1-.62.88c-.29.07-.5-.19-.47-.59a.9.9,0,0,1,.59-.84c.3-.12.52.15.49.54m1.57-.45a1,1,0,0,1-.6.88c-.3.1-.5-.18-.47-.56a1,1,0,0,1,.6-.87c.3-.1.52.16.48.54m1,4.14a4.53,4.53,0,0,1-3,4.1c-1.5.42-2.62-.51-2.45-2.59a4.63,4.63,0,0,1,3-4.11c1.49-.42,2.61.57,2.44,2.6m-3.65,1c-.06.75.28,1.15.81,1a1.67,1.67,0,0,0,1-1.5c.06-.71-.25-1.19-.81-1a1.71,1.71,0,0,0-1,1.51" transform="translate(-471 -465.45)" style="fill:#fff"/><polygon points="27.15 74.53 28.94 74.05 28.57 78.44 30.07 78.02 29.9 80.11 26.61 81.01 27.15 74.53" style="fill:#fff"/><path d="M501.9,538.93l1.72-.46,1.3,3.15h0a14.59,14.59,0,0,1,0-1.63l.17-1.94,1.71-.47L506.3,544l-1.71.47-1.28-3h-.07a8.76,8.76,0,0,1,0,1.27l-.17,2.11-1.69.46Z" transform="translate(-471 -465.45)" style="fill:#fff"/><path d="M487.45,543l1.73-.48-.28,2.83h0a5.13,5.13,0,0,1,.31-.81l1-2.32,2-.54-1.8,3.58,1.43,2.87-2.07.58-.7-1.74a1.91,1.91,0,0,1-.22-.66h0l-.19,2.71-1.73.47Z" transform="translate(-471 -465.45)" style="fill:#fff"/></svg>