<?xml version="1.0" encoding="UTF-8"?><svg id="Layer_1" xmlns="http://www.w3.org/2000/svg" viewBox="0 0 305.73 236.33"><defs><style>.cls-1{fill:#ff0;}.cls-2{fill:red;}</style></defs><path class="cls-1" d="M117.88,229.55c-9.83-2.11-18.13-4.91-25.74-7.37-14.86-4.8-27.96-8.89-45.16-4.8-3.51.82-4.68.82-5.5-2.69l-7.02-32.06c-.7-2.92.23-3.63,3.04-4.21,21.18-4.56,38.61-1.4,56.16,3.04,9.24,2.34,18.37,5.03,27.96,7.14,9.71,2.11,19.89,3.63,31,3.63s21.29-1.52,31-3.63c9.59-2.11,18.72-4.8,27.96-7.14,17.55-4.45,34.98-7.6,56.16-3.04,2.92.7,3.74,1.29,3.04,4.21l-7.14,32.06c-.82,3.51-1.99,3.63-5.5,2.69-17.08-4.09-30.18,0-45.04,4.8-7.6,2.46-15.91,5.26-25.74,7.37-22.9,5-46.6,5-69.49,0h0ZM117.53,46.1l-.94-.58.23-1.05c.58-2.81.23-5.26-4.09-5.5h-1.05l-3.28-10.3.94-.58c2.92-2.11,2.22-4.8-1.75-6.2l-1.05-.35v-1.05c0-1.75,1.05-2.69,1.75-3.28l.58-.47.58-.58,1.05-1.4.23-.47.47-.23c26.69-10.5,56.37-10.5,83.07,0l.47.23.23.47,1.05,1.4.58.58.58.47c.7.7,1.75,1.64,1.75,3.28v1.05l-1.05.35c-3.98,1.4-4.68,4.09-1.75,6.2l.94.58-3.28,10.3h-1.05c-4.33.12-4.68,2.69-4.09,5.5l.23,1.05-.94.58c-1.29.82-2.46,3.86-1.64,6.2l1.17,3.39-3.16-1.52c-19.88-9.61-43.06-9.61-62.94,0l-3.16,1.52,1.17-3.39c.58-2.34-.58-5.38-1.87-6.2Z"/><path class="cls-2" d="M270.68,73.48l-.35.35c-1.47,1.44-3.44,2.28-5.5,2.34h-1.75l.12,1.75c.7,7.37,5.03,17.2,9.48,22.35,4.45,5.15,6.9,10.76,6.67,15.79l-.12,1.4,1.4.12c8.54.82,14.39-3.28,16.61-9.01,3.28-8.77-3.04-18.37-7.37-24.8-5.62-8.54-4.68-18.13-3.39-24.33l.23-1.05-.82-.58c-1.75-1.17-2.57-3.04-2.57-5.26,0-2.46.58-5.15,3.04-7.6,2.57-2.57,5.38-2.92,9.36-2.92,3.18.45,6.11,1.98,8.31,4.33v.23l-.47.47c-1.64.94-2.57,2.34-3.28,3.74l-1.52,4.21c-.94,2.46-2.11,4.21-5.97,4.21h-1.17l-.35,1.05c-1.84,6.95-.88,14.35,2.69,20.59,2.37,3.86,4.68,7.76,6.9,11.7,5.5,11.93,1.75,26.56-11.58,30.77-2.11.7-7.02,1.4-12.05.47l-.82-.12-.58.7-.94,1.05-1.75,1.64-.35.23v.35c-1.17,3.74-.82,8.19,3.04,12.64l3.86,4.45c.75.82,1.35,1.77,1.75,2.81.23.94.12,2.11-3.63,4.68-6.4,4.16-11.63,9.87-15.21,16.61l-2.11,4.45c-.47.7-.7.82-1.17.82-2.23-.06-4.44-.45-6.55-1.17l-1.17-.47-.7,1.17c-1.17,1.99-5.97,2.34-7.96,1.17l-.58-.47-.7.23c-2.6,1.19-5.52,1.48-8.31.82-.76-.21-1.48-.57-2.11-1.05-7.14-.58-7.6-7.84-4.56-11.7.7-.82,2.81-3.51,7.25-3.51,3.04,0,17.32-9.01,17.32-13.69,0-1.05-.7-1.87-1.29-2.34-.67-.6-1.42-1.11-2.22-1.52l-5.97-3.51c-4.33-2.81-8.07-6.32-8.07-11.58,0-4.21,1.17-11.35,12.87-11.35h1.52v-1.52c0-8.42-8.54-16.96-12.75-20.12-2.28-1.8-4.08-4.13-5.26-6.79l-.23-.58-.58-.23c-4.33-1.52-8.19-6.43-11.82-12.28l-5.03-8.42c-1.64-2.57-3.16-5.03-4.68-6.67l-.47-.47h-.7c-1.87,0-4.33-.7-6.43-1.52l-.7-.35-.7.47c-3.74,2.57-7.84.94-7.96-1.29l-.12-1.4h-1.4c-2.11,0-3.04-1.29-3.04-3.28-.12-2.11.94-4.21,1.87-4.8l.94-.58-.23-1.05c-.58-2.57-1.64-10.53,20.83-.7l1.87.94,2.81,1.4-.7-3.16c-.82-3.86-2.57-7.6-6.32-10.76l-.82-.7-.94.47c-1.52.7-2.46.58-3.74,0l-2.34-1.52-3.04-2.22c-3.16-2.11-2.46-4.8,1.64-6.32l1.05-.35v-1.05c0-.82-.23-1.52-.7-2.11l-.58-.7-.58-.58-.58-.58-.58-.58-1.05-1.64c-1.17-2.34,1.4-5.03,4.68-3.51l2.11-1.17.35-.12c.47-.23,1.17-.35,2.11-.23,1.99,0,3.39.7,3.63,1.05h2.57l-.23.23.35-.12c.35,0,.82,0,1.52.23,1.29.58,3.16,2.11,4.8,5.97l.47,1.29,1.29-.35,3.39-.7,3.98-.35c.7-.12,1.29-.47,1.75-.82l1.17-1.05.47-.47.47-.35.82-.58,2.22-.35,1.75-.23-.47-1.64-.35-1.64-.12-.7v-.23c.12-.23.35-.58,1.52-.94l3.28-.82,1.4-.47,1.52-.82c1.05-.82,1.64-2.11.94-3.51l1.29.23,3.04.82,1.05.47.12.12-.12.47-1.64,3.28,3.51-.35,1.52.12,2.22.35c.73.18,1.49.18,2.22,0,.94-.23,1.75-.82,1.99-1.99.12-.58.12-1.17,0-1.87l2.11.7c2.57,1.17,3.51,2.69,3.16,3.74-.35.82-1.4,1.64-1.52,1.64l-1.75,1.17,1.87,1.4.35.35c.35.35.7.7,1.05,1.4,1.05,1.99,3.39,1.29,4.33.82.94-.58,1.99-1.64,2.34-3.04,1.27,1.32,2.13,2.99,2.46,4.8.12,1.29-.23,2.81-.82,3.28l-1.52.35-2.22.23,1.29,2.57.23,2.22c-.12,2.57,2.34,3.04,3.63,2.81,1.05-.12,2.11-.7,2.92-1.52l.35.7c.7,1.64,1.05,3.86.58,5.5-.23.94-1.64,2.22-1.99,2.22h-.58l-.82-.12-.94-.12c-1.4.12-1.75.94-1.64,1.87l.12.94-.12,1.4c-.35,4.68,3.63,4.68,6.2,3.28.12.7.23,1.52.12,2.46.03,1.21-.21,2.41-.7,3.51-.47.94-.94,1.29-1.4,1.4-1.05.23-1.52,0-1.64-.12-1.99-1.05-2.57-.35-2.81.82l-.12.58-.35.94c-1.17,2.34-.12,4.21,1.99,4.56,1.05.21,2.15.13,3.16-.23l-.35,2.22c-.7,2.46-1.99,3.86-3.63,3.74l-.23-.12-.58-.35-.82-.47c-.35-.12-.82-.35-1.4-.35-.47,0-1.4.35-1.75,1.52l-.23,1.4c-.12.94-.12,2.34.12,3.63.12,1.29.47,2.69,1.17,3.86.58,1.17,1.75,2.22,3.39,2.22-.12.35,0,.35.12.35h0ZM63.25,1.52c-.58,1.4-.12,2.69.94,3.51l1.52.82,1.4.47,3.28.82c1.05.35,1.4.7,1.52.94v.23l-.12.7-.35,1.64-.47,1.64,1.75.23,2.22.35.82.58.47.35.47.47,1.17,1.05c.47.35,1.05.7,1.75.82l3.98.35,3.39.7,1.29.35.47-1.29c1.64-3.86,3.51-5.38,4.8-5.97.7-.23,1.17-.35,1.52-.23l.35.12-.23-.23h2.57c.23-.35,1.64-.94,3.63-1.05l2.11.23.35.23c5.38-.35,7.96,2.34,6.79,4.68l-1.05,1.64-.58.58-.58.58-.58.58-.58.7c-.35.58-.7,1.29-.7,2.11v1.05l1.05.35c4.09,1.4,4.8,4.09,1.64,6.32l-3.04,2.22-2.34,1.52c-1.29.58-2.34.82-3.74,0l-.94-.47-.82.7c-3.21,2.82-5.42,6.59-6.32,10.76l-.7,3.16,2.81-1.4,1.87-.94c22.46-9.83,21.41-1.87,20.83.7l-.23,1.05.94.58c.94.58,1.99,2.69,1.87,4.8-.12,1.99-.94,3.28-3.04,3.28h-1.4l-.12,1.4c-.23,2.22-4.33,3.86-7.96,1.29l-.7-.47-.7.35c-2.11.82-4.45,1.52-6.43,1.52h-.7l-.47.58c-1.8,2.04-3.37,4.28-4.68,6.67l-5.03,8.42c-3.63,5.73-7.6,10.65-11.93,12.17l-.58.23-.23.58c-1.21,2.63-3.01,4.96-5.26,6.79-4.21,3.16-12.75,11.7-12.75,20.12v1.52h1.52c11.7,0,12.87,7.14,12.87,11.35,0,5.15-3.74,8.77-8.07,11.58-2.11,1.4-4.33,2.57-5.97,3.51l-2.22,1.52c-.58.47-1.29,1.29-1.29,2.34,0,4.68,14.27,13.69,17.32,13.69,4.45,0,6.55,2.57,7.25,3.51,3.04,3.98,2.57,11.23-3.39,11.23h-.58l-.58.58-.35.23c-.35.23-.94.58-1.75.82-2.78.66-5.71.37-8.31-.82l-.7-.23-.58.47c-1.99,1.29-6.79.94-7.96-1.17l-.7-1.17-1.17.47c-1.99.82-4.68,1.17-6.55,1.17-.47,0-.82-.12-1.17-.82l-2.11-4.45c-2.11-4.09-5.85-9.83-15.21-16.61-3.74-2.69-3.86-3.86-3.63-4.68.23-.7.7-1.52,1.75-2.81l3.86-4.45c3.86-4.45,4.21-8.89,3.04-12.64l-.12-.47-.35-.23-1.75-1.64-.94-1.05-.58-.7-.82.12c-5.15.82-9.94.23-12.05-.47-13.57-4.33-17.32-18.95-11.82-30.77,1.05-2.22,2.34-4.45,3.63-6.43l3.28-5.26c2.34-3.86,3.86-8.07,3.63-14.39-.12-2.11-.35-4.09-.94-6.2l-.35-1.05h-1.17c-3.86,0-5.03-1.75-5.97-4.21l-1.52-4.21c-.58-1.62-1.75-2.96-3.28-3.74l-.47-.47v-.23c2.19-2.35,5.12-3.88,8.31-4.33,3.98,0,6.79.35,9.36,2.92,2.03,2,3.14,4.76,3.04,7.6,0,2.22-.94,4.09-2.57,5.26l-.82.58.23,1.05c2.16,8.24.94,17-3.39,24.33-4.33,6.43-10.53,16.03-7.37,24.8,2.11,5.85,8.07,9.83,16.61,9.01l1.4-.12-.12-1.4c-.23-5.03,2.11-10.65,6.67-15.79,5.09-6.47,8.36-14.19,9.48-22.35l.12-1.75h-1.75c-2.06-.06-4.03-.9-5.5-2.34l-.35-.35h.47c1.75,0,2.81-1.17,3.39-2.22,1.26-2.78,1.63-5.89,1.05-8.89-.35-1.17-1.29-1.52-1.75-1.52-.58,0-1.05.23-1.4.35l-.82.47-.58.35.23.12c-1.75.12-3.04-1.29-3.63-3.74l-.35-2.22c1.01.37,2.1.45,3.16.23,2.11-.47,3.16-2.22,1.99-4.56l-.35-.94-.12-.58c-.23-1.17-.82-1.87-2.81-.82-.12.12-.58.23-1.64.12-.7-.35-1.17-.7-1.52-1.52-.49-1.1-.73-2.3-.7-3.51l.12-2.46c2.57,1.4,6.55,1.4,6.2-3.28l-.12-1.4.12-.94c.12-.94-.23-1.75-1.64-1.87l-.94.12-.82.12h-.58c-.89-.5-1.59-1.28-1.99-2.22-.47-1.64-.12-3.74.58-5.5l.35-.7c.82.82,1.99,1.4,2.92,1.52,1.29.23,3.74-.23,3.63-2.81l.23-2.22,1.29-2.57-2.22-.23c-.52-.05-1.03-.17-1.52-.35-.58-.47-.94-1.99-.82-3.28.31-1.81,1.17-3.49,2.46-4.8.37,1.24,1.21,2.29,2.34,2.92.94.58,3.16,1.29,4.33-.82.35-.7.7-1.05,1.05-1.4l.35-.35c0-2.57-1.17-3.39-1.4-4.21-.35-1.05.58-2.57,3.16-3.74l2.11-.7c-.12.7-.12,1.29,0,1.87.23,1.17,1.05,1.75,1.99,1.99.74.12,1.49.12,2.22,0,.74-.13,1.48-.24,2.22-.35l1.52-.12,3.51.35-1.64-3.28-.12-.47h.12c.23-.23.7-.35,1.05-.47.98-.4,2-.67,3.04-.82.35-.47.7-.47,1.05-.58h0Z"/><path d="M7.79,54.41c1.05,2.81,1.75,3.63,6.9,3.39.94,2.92,1.52,6.32,1.52,8.42.33,5.35-1.02,10.66-3.86,15.21-2.33,3.82-4.6,7.68-6.79,11.58-5.26,11.35-1.64,24.92,10.76,28.9,1.87.58,5.85,1.17,10.3.58-.7-1.17-1.17-2.46-1.4-3.74-9.13.94-15.91-3.28-18.25-9.94-1.75-4.91-.82-9.94.82-14.27,1.75-4.33,4.45-8.42,6.67-11.82,5.38-8.07,4.68-17.43,2.81-25.5,1.75-.94,3.63-1.64,3.63-4.91.17-2.46-.77-4.87-2.57-6.55-4.8-4.45-12.28-1.64-14.86.35,1.52,1.05,2.34,2.57,2.92,3.86l1.4,4.45h0ZM69.68,83.19c.94.94,2.11,1.52,3.98,1.52,3.86,0,7.84-3.74,12.05-10.18,1.99-3.04,3.86-6.32,5.62-9.24s3.63-5.85,5.5-7.72l.94-1.05c3.39.47,8.77-1.99,8.77-1.99l1.4.94c1.17.82,2.81,1.05,4.09.94,1.05-.12,1.4-.7,1.52-1.52.23-1.64-1.17-2.81-2.11-3.28-1.87-.82-.47-3.63,1.29-2.69,0,0,2.11.82,3.51,3.63,1.52.12,1.64-.7,1.75-1.64.23-1.75-.94-5.03-5.73-5.03-1.99.12-2.22-2.92-.23-3.04,0,0,2.11-.12,3.51.47.23-1.4-.23-2.11-.94-2.34-1.75-.7-6.55-.7-17.78,4.21-2.57,1.17-7.84,4.33-12.99,6.32,1.17,1.4,2.92,2.11,4.56.7,2.69-2.22,2.22,9.36-2.11,9.94-1.64.23-2.81-.7-2.81-.7,0,0-.23,1.4-.58,2.22-.94,1.87-.58,3.98,2.46,3.86,0,3.63-3.16,8.54-8.31,6.67-3.63-1.29-2.11-6.9-6.2-6.2-.12,0-.58,1.99-.35,4.56.58,7.49,3.63,5.85,3.74,6.67.23,1.87-1.99,3.51-4.56,3.98ZM72.84,87.87c-4.09-.23-6.2-2.22-7.37-4.91-2.11-.82-3.98-2.69-4.33-6.32-.35-3.39,1.64-7.72-1.87-7.72-.58,0-1.17,2.57-1.52,3.86-1.75,8.07,2.11,5.97.7,7.72-2.46,2.92-11.11,2.34-10.18-6.2.23-2.46,2.69-7.02.12-7.02-1.75,0-1.52,6.55-4.68,9.24-.9,9.01-4.35,17.57-9.94,24.69-7.25,8.42-8.31,17.08-2.46,22.93l3.28,2.92c1.29,1.17,2.69,2.46,3.98,3.98,2.46,3.04,4.33,7.72.12,12.28l-2.69,3.04c-1.87,2.11-.58,2.81,1.05,3.98,6.99,4.65,12.77,10.91,16.85,18.25l1.99,4.09c.47.82,4.09,2.11,6.67,0,.03-1.81-.55-3.58-1.64-5.03-1.17-1.75,1.4-3.51,2.57-1.75,1.56,2.21,2.31,4.9,2.11,7.6,2.92,1.05,5.26.94,7.25-.23.23-2.92-.47-5.15-1.52-6.43-1.29-1.64,1.29-3.63,2.57-1.87,1.4,1.87,2.34,4.68,2.22,7.14,1.75-.23,2.34-1.29,2.57-2.69.26-2.02-.24-4.06-1.4-5.73-.58-.7-2.22-2.81-5.97-2.81-3.39,0-18.95-9.24-18.95-15.33,0-1.87,1.17-3.04,1.75-3.63l2.46-1.75c1.64-.94,3.74-2.11,5.85-3.51,4.21-2.69,7.25-5.85,7.25-10.18,0-3.74-1.17-8.89-8.77-9.59-1.64-.12-7.14-.7-10.76,1.17-1.87.94-3.51-1.4-1.87-2.57,0,0,1.99-1.4,6.9-1.87,0-9.36,9.13-18.13,13.34-21.41,1.77-1.07,3.26-2.56,4.33-4.33h0ZM34.82,131.16c0,3.81-1.41,7.48-3.98,10.3l-3.86,4.33c-1.87,2.22-1.99,2.69,1.64,5.26,6.6,4.26,12,10.14,15.68,17.08,1.4,2.92,1.75,4.56,2.34,4.45,1.17-.12,2.34-.23,3.74-.58l1.75-.58c-3.56-7.68-9.3-14.15-16.5-18.6-6.08-4.33-3.16-7.14,1.17-11.7,3.28-3.51,1.05-7.02-1.99-9.94h0ZM85.59,37.21h-9.94v-7.72s7.84,0,10.18-.23c.58-.12,1.52-.12,2.69.12.12,0,.58,0,.58-.23.23-1.4.12-4.45.12-4.45,0,0,1.75-1.75,1.75-4.68-2.69-.94-5.38-1.87-7.49-2.11l-3.98-.35c-.85-.09-1.66-.42-2.34-.94-.47-.35-1.87-2.22-2.57-2.46-4.47-.92-9.06-1.04-13.57-.35-1.15.26-2.08,1.11-2.46,2.22-1.05,0-3.39,0-4.45.23-1.17.23-1.52.35-1.64,1.05,0,1.4,3.39,3.51,3.39,3.51,0,0-.7,4.09-1.99,7.49-.23.7-.23,1.4.35,2.92.94,2.11,3.16,3.28,6.2,3.74,2.22.35,5.03,3.86,6.32,4.33.82.35,6.08.23,8.07.23,4.09-.12,8.19-.47,9.59-.82.58,0,.94-.94,1.17-1.52ZM77.17,42.24c-4.91.23-10.3.35-11.58-.35-2.69-1.52-4.33-3.86-5.62-4.09-3.16-.58-6.67-1.87-8.19-5.38-1.75-4.09,0-4.91,1.17-10.41-3.86-2.92-3.74-5.85-1.75-7.49.82-.7,3.39-1.17,5.97-1.17.7-2.81,7.72-2.92,12.87-2.57l.35-1.29c.23-.7.23-.94-.94-1.17-2.46-.47-3.86-.94-5.5-1.87-1.52-.82-2.34-2.34-1.99-3.16s-2.22,0-2.46.47c-.47.82,1.75,4.09,1.75,4.09,0,0-3.04-.23-4.91-.12-2.69.12-4.21.82-6.08.58-2.22-.23-3.51-1.99-3.28-3.28.12-.82-2.92,1.4-2.81,2.22.12.7,1.05,1.87,3.51,3.51-4.33,2.46-3.28,5.5-6.9,5.73-1.05,0-3.98-.82-4.33-2.34-.23-.94-2.22,2.57-1.05,4.33.58.94,1.29.82,4.33,1.05-1.01,1.69-1.5,3.65-1.4,5.62,0,1.99-.58,2.69-2.11,3.63-1.05.7-3.51,1.05-5.15-.47-.47-.47-.82,2.81-.47,3.74s.94,1.4,2.46,1.4c2.34-.12,3.63-.58,3.63-.12-.12,1.29-.12,3.16.12,6.55.23,3.63-3.63,5.26-6.32,3.86-.7-.35,0,4.21,1.17,4.33,2.34.23,4.56-1.99,4.68-1.29.58,3.74,1.4,4.09,1.64,5.85.58,4.21-3.51,5.26-5.03,4.68-1.05-.47.35,4.09,2.46,3.28.7-.23,1.75-1.17,2.69-1.17,1.52,0,2.46.58,3.16,2.57.35,1.05.47,3.16.12,5.5-.23,1.4-.47,2.81-1.29,4.21-.47.82-1.29,1.64-1.99,1.87-1.4.35,2.34,1.99,4.09.94,1.52-.82,2.57-6.43,2.92-7.25.94-2.22,2.46-2.92,3.74-2.92,1.87,0,3.39,1.17,3.86,2.92.35,1.17.12,2.46-.12,3.16l-1.05,4.09c-1.05,4.91,4.45,5.15,3.86,4.56-.82-.94-.7-3.86,0-7.02.12-.7.82-3.28,1.29-4.21.94-1.52,2.11-1.99,2.92-1.99,4.33,0,4.91,3.39,4.91,5.38l-.23,4.91c0,5.85,7.37,4.33,6.2,3.74-1.4-.7-2.34-2.92-2.81-7.25-.35-3.51.58-7.02.82-7.14,2.92-.94,5.97-.94,7.84,2.69.47.94.82,2.57,1.4,3.04,1.17,1.05,3.63,0,4.21-1.64-2.69-1.05-2.81-4.91-1.52-7.49.58-1.17,1.05-2.81,1.4-4.56.47.47,2.92,2.34,4.21,1.99.94-.35,1.99-4.33.94-3.86-2.11,1.17-4.68-1.52-5.62-2.81-.47-.7-1.64-2.11-1.75-4.8-.23-1.75-.35-4.21-2.46-5.85h0ZM90.04,45.05c.7-5.03,2.46-9.94,7.25-14.04l1.52-1.29,1.87.94c.94.47,1.52.47,2.34,0,.58-.35,1.29-.7,2.11-1.4l3.16-2.22c2.34-1.52,1.4-2.69-1.05-3.51l-2.22-.82v-1.75c0-2.69,1.29-3.86,2.34-4.91.23-.23,2.34-1.87,1.99-3.04-.35-1.4-3.28-.94-3.28-.94-1.29.35-2.34,2.34-2.69,3.28-.82,1.99-3.74.7-2.92-1.17,0,0,.82-1.87,1.99-3.04-.12-.7-2.69-.47-3.51.12-.69.94-1.17,2.02-1.4,3.16-.35,2.11-3.51,1.52-3.16-.58l.58-1.87c-1.4-.12-3.28,1.75-4.68,5.15l3.28,1.17c.47,2.81,0,5.62-1.52,7.6,0,2.92.23,7.14-3.04,6.55l-2.69-.23c-2.46.35-6.08.23-7.72.23v2.22h9.94c1.05,1.05-.7,6.55-3.39,7.02l-4.21.47c1.4,2.22,1.52,5.03,1.64,6.67,2.69-1.17,5.26-2.46,7.49-3.74ZM215.46,45.05c2.34,1.17,4.8,2.46,7.6,3.51.12-1.64.35-4.33,1.64-6.67l-4.21-.47c-2.81-.47-4.56-5.97-3.39-7.02h9.94v-2.22c-1.75,0-5.26,0-7.72-.23-.7-.12-1.99.12-2.69.23-3.28.47-3.04-3.63-3.04-6.55-1.52-1.99-2.11-4.8-1.52-7.6,1.07-.46,2.16-.85,3.28-1.17-1.4-3.39-3.28-5.26-4.68-5.15.47.94.58,1.87.58,1.87.35,2.11-2.69,2.69-3.16.58-.24-1.14-.72-2.22-1.4-3.16-.82-.58-3.39-.82-3.51-.12.79.92,1.46,1.95,1.99,3.04.82,1.99-2.11,3.16-2.92,1.17-.35-.94-1.4-2.92-2.69-3.28,0,0-2.92-.47-3.28.94-.35,1.17,1.75,2.81,1.99,3.04,1.54,1.15,2.42,2.99,2.34,4.91v1.75l-2.22.82c-2.46.82-3.39,1.99-1.05,3.51l3.16,2.22,2.11,1.4c.94.47,1.4.47,2.34,0l1.87-.94,1.52,1.29c4.68,4.45,6.43,9.36,7.14,14.27ZM228.33,42.24c-2.11,1.64-2.22,3.98-2.34,5.85-.12,2.69-1.29,4.09-1.75,4.8-.94,1.29-3.51,3.98-5.62,2.81-.94-.58,0,3.51.94,3.86,1.29.47,3.86-1.52,4.21-1.99.35,1.75.82,3.39,1.4,4.56,1.29,2.57,1.17,6.43-1.52,7.49.58,1.64,3.04,2.69,4.21,1.64.58-.47,1.05-2.11,1.4-3.04,1.87-3.63,4.91-3.63,7.84-2.69.23.12,1.17,3.63.82,7.14-.47,4.21-1.29,6.55-2.81,7.25-1.29.58,6.2,2.11,6.2-3.74l-.23-4.91c0-1.99.58-5.38,4.91-5.38.82,0,2.11.47,2.92,1.99.58.94,1.17,3.51,1.29,4.21.7,3.16.82,6.08,0,7.02-.58.58,4.91.47,3.86-4.56l-1.05-4.09c-.12-.7-.35-1.99-.12-3.16.44-1.76,2.05-2.98,3.86-2.92,1.29,0,2.81.7,3.74,2.92.35.82,1.4,6.43,2.92,7.25,1.87,1.05,5.5-.58,4.09-.94-.89-.33-1.61-1.01-1.99-1.87-1.38-3.04-1.79-6.43-1.17-9.71.58-1.99,1.52-2.57,3.16-2.57.94,0,1.99.94,2.69,1.17,2.11.82,3.39-3.74,2.46-3.28-1.4.58-5.5-.47-5.03-4.68.23-1.75,1.05-2.22,1.64-5.85.12-.58,2.34,1.52,4.68,1.29,1.29-.12,1.87-4.68,1.17-4.33-2.69,1.4-6.67-.23-6.32-3.86.23-3.39.12-5.26.12-6.55,0-.47,1.29,0,3.63.12,1.52,0,2.11-.47,2.46-1.4s0-4.21-.47-3.74c-1.52,1.52-3.98,1.17-5.15.47-1.52-.94-2.11-1.64-2.11-3.63,0-2.11-.23-3.16-1.4-5.62,3.04-.23,3.74-.12,4.33-1.05,1.17-1.75-.82-5.26-1.05-4.33-.35,1.52-3.16,2.46-4.33,2.34-3.74-.12-2.57-3.16-6.9-5.73,2.46-1.64,3.51-2.81,3.51-3.51.12-.94-2.92-3.04-2.81-2.22.12,1.29-1.05,3.04-3.28,3.28-1.87.23-3.51-.47-6.08-.58-1.87-.12-4.91.12-4.91.12,0,0,2.22-3.28,1.75-4.09-.23-.47-2.81-1.29-2.46-.47.23.82-.58,2.22-1.99,3.16-1.64.94-3.04,1.4-5.5,1.87-1.17.23-1.17.47-.94,1.17l.35,1.29c5.26-.35,12.17-.23,12.87,2.57,2.46,0,5.15.47,5.97,1.17,1.99,1.64,2.11,4.56-1.75,7.49,1.05,5.5,2.92,6.2,1.17,10.41-1.52,3.51-5.03,4.8-8.19,5.38-1.4.23-2.92,2.69-5.62,4.09-1.4.7-6.9.7-11.7.35h0ZM219.9,37.21c.23.58.7,1.52,1.05,1.64,5.85.8,11.77,1,17.67.58,1.4-.58,4.09-4.09,6.32-4.33,3.04-.47,5.26-1.64,6.2-3.74.7-1.52.7-2.11.35-2.92-1.29-3.51-1.99-7.49-1.99-7.49,0,0,3.39-2.11,3.39-3.51,0-.82-.47-.82-1.64-1.05-.94-.23-3.28-.23-4.45-.23,0,0-.47-1.75-2.46-2.22-1.52-.35-7.84-.94-13.57.35-.7.12-2.22,2.11-2.57,2.46-.58.47-1.29.82-2.34.94l-3.98.35c-2.11.23-4.8,1.05-7.49,2.11,0,3.04,1.75,4.68,1.75,4.68,0,0-.12,3.04.12,4.45,0,.23.35.35.58.23,1.17-.23,2.11-.12,2.69-.12,2.34.23,10.18.23,10.18.23v7.72l-9.83-.12h0ZM270.68,131.16c-3.04,2.92-5.26,6.43-1.99,10.06,4.21,4.68,7.25,7.49,1.17,11.7-7.2,4.45-12.93,10.92-16.5,18.6l1.75.58c1.4.35,2.57.47,3.74.58.58,0,.94-1.64,2.34-4.45,3.75-6.89,9.13-12.76,15.68-17.08,3.51-2.57,3.39-3.04,1.64-5.26-.94-1.29-2.34-2.69-3.86-4.33-2.51-2.89-3.92-6.58-3.98-10.41h0ZM232.66,87.87c1.17,1.87,2.46,3.28,3.74,4.21,4.21,3.16,13.34,12.05,13.34,21.41,4.91.47,6.9,1.87,6.9,1.87,1.75,1.17,0,3.51-1.87,2.57-3.51-1.75-9.13-1.29-10.76-1.17-7.6.7-8.77,5.85-8.77,9.59,0,4.33,3.04,7.37,7.25,10.18,2.11,1.4,4.33,2.46,5.85,3.51.82.47,1.75,1.05,2.46,1.75.58.58,1.75,1.75,1.75,3.63,0,6.08-15.56,15.33-18.95,15.33-3.63,0-5.38,2.11-5.97,2.81-.94,1.17-1.64,3.74-1.4,5.73.23,1.29.82,2.46,2.57,2.69,0-2.46.82-5.26,2.22-7.14,1.29-1.64,3.86.23,2.57,1.87-1.05,1.29-1.75,3.51-1.52,6.43,1.99,1.17,4.33,1.29,7.25.23-.35-2.46.82-5.62,2.11-7.6,1.17-1.75,3.86.12,2.57,1.75-1.04,1.47-1.62,3.23-1.64,5.03,2.57,2.11,6.2.82,6.67,0l1.99-4.09c4.08-7.34,9.86-13.6,16.85-18.25,1.64-1.17,2.92-1.87,1.05-3.98l-2.69-3.04c-4.21-4.56-2.34-9.24.12-12.28,1.17-1.52,2.69-2.81,3.98-3.98l3.28-2.92c5.85-5.85,4.91-14.51-2.46-22.93-5.59-7.12-9.04-15.68-9.94-24.69-3.04-2.69-2.92-9.24-4.68-9.24-2.46,0-.12,4.56.12,7.02.9,3.3-1.04,6.71-4.34,7.62-2.06.56-4.26.03-5.83-1.42-1.52-1.75,2.46.35.7-7.72-.23-1.29-.94-3.86-1.52-3.86-3.39,0-1.52,4.33-1.87,7.72-.35,3.63-2.11,5.5-4.33,6.32-.58,2.69-2.81,4.8-6.79,5.03h0ZM235.93,83.19c-2.69-.47-4.8-2.11-4.45-3.98.12-.82,3.16.82,3.74-6.67.23-2.46-.23-4.56-.35-4.56-4.09-.7-2.57,4.91-6.2,6.2-5.15,1.87-8.31-3.16-8.31-6.67,2.92.12,3.39-1.99,2.46-3.86-.35-.82-.58-2.22-.58-2.22,0,0-1.17.94-2.81.7-4.21-.58-4.8-12.17-2.11-9.94,1.64,1.4,3.51.58,4.56-.7-5.15-1.99-10.41-5.15-12.99-6.32-11.23-4.91-16.03-4.91-17.78-4.21-.58.23-1.17.94-.94,2.34,1.4-.58,3.51-.47,3.51-.47,1.99.12,1.75,3.16-.23,3.04-4.8,0-5.97,3.28-5.73,5.03.12.94.23,1.75,1.75,1.64,1.4-2.81,3.51-3.63,3.51-3.63,1.87-.82,3.16,1.87,1.29,2.69-.82.47-2.34,1.64-2.11,3.28.12.7.47,1.29,1.52,1.52,1.43.21,2.89-.13,4.09-.94l1.4-.94s5.26,2.46,8.77,1.99l.94,1.05c1.87,1.99,3.74,4.8,5.5,7.72,1.75,2.92,3.63,6.2,5.62,9.24,4.21,6.43,8.19,10.18,12.05,10.18,1.64,0,2.92-.58,3.86-1.52ZM297.7,54.41l1.52-4.21c.6-1.53,1.62-2.87,2.92-3.86-2.57-1.99-10.18-4.8-14.86-.35-1.77,1.7-2.71,4.1-2.57,6.55,0,3.28,1.87,3.98,3.63,4.91-1.87,8.07-2.46,17.43,2.81,25.5,2.22,3.28,4.91,7.37,6.67,11.82,1.75,4.33,2.69,9.36.82,14.27-2.46,6.67-9.13,10.88-18.25,9.94-.35,1.29-.82,2.46-1.4,3.74,4.45.58,8.42,0,10.3-.58,12.4-3.98,16.15-17.55,10.76-28.9-1.01-2.19-2.18-4.3-3.51-6.32l-3.28-5.26c-2.85-4.54-4.2-9.86-3.86-15.21.12-2.11.58-5.62,1.52-8.42,5.03,0,5.73-.82,6.79-3.63h0ZM152.75,231.65c11.6.04,23.17-1.17,34.51-3.63,9.83-2.11,18.02-4.8,25.62-7.25,14.86-4.8,28.31-9.01,45.98-4.8q3.16.82,3.63-1.52l7.14-32.06q.47-1.87-1.99-2.46c-18.5-3.53-37.57-2.48-55.57,3.04-9.24,2.34-18.37,5.03-27.96,7.14-9.83,2.11-20.12,3.74-31.35,3.74-10.56-.06-21.08-1.32-31.35-3.74-9.59-2.11-18.72-4.8-27.96-7.14-18-5.53-37.08-6.57-55.57-3.04q-2.34.58-1.99,2.46l7.14,32.06q.47,2.34,3.63,1.52c17.55-4.09,31,0,45.98,4.8,7.6,2.46,15.79,5.15,25.62,7.25,11.34,2.45,22.91,3.67,34.51,3.63ZM116.36,184.27c-35.67-20.01-48.38-65.14-28.37-100.82,5.29-9.43,12.58-17.59,21.35-23.9-1.17-.23-2.46-.7-3.39-1.4-2.23.95-4.6,1.5-7.02,1.64-5.62,5.85-12.28,23.75-21.88,27.38-1.52,3.28-3.74,5.85-5.85,7.37-4.21,3.16-12.17,11.23-12.17,18.95,12.87,0,14.39,8.31,14.39,12.87,0,12.05-17.43,15.79-17.43,18.95,0,3.51,13.1,12.17,15.79,12.17,5.15,0,7.6,3.04,8.42,4.09,2.69,3.39,3.74,11.82-2.46,13.34,13.22,2.22,25.62,6.2,38.61,9.36h0ZM226.92,119.69c0,27.73-15.21,51.95-37.79,64.58,12.99-3.16,25.39-7.14,38.49-9.36-6.08-1.52-5.03-9.94-2.46-13.34.82-.94,3.28-4.09,8.42-4.09,2.69,0,15.79-8.66,15.79-12.17,0-3.16-17.43-6.9-17.43-18.95,0-4.56,1.52-12.87,14.39-12.87,0-7.6-7.96-15.68-12.17-18.95-2.51-1.96-4.51-4.49-5.85-7.37-9.71-3.63-16.26-21.53-22-27.49-2.42-.14-4.79-.69-7.02-1.64-1.05.7-2.22,1.17-3.39,1.4,19.49,13.87,31.04,36.33,31,60.25h0ZM85.48,119.69c0,37.15,30.12,67.27,67.27,67.27s67.27-30.12,67.27-67.27-30.12-67.27-67.27-67.27c-37.15,0-67.27,30.12-67.27,67.27ZM199.19,32.06l-1.87,5.85c3.28.7,7.37,1.99,12.75,4.33l1.99.94c-.82-3.63-2.46-7.02-5.85-9.94-2.69,1.52-4.56.58-7.02-1.17h0ZM108.17,38.03l-1.87-5.85c-2.46,1.75-4.33,2.57-7.02,1.17-3.01,2.57-5.07,6.07-5.85,9.94l1.99-.94c5.38-2.34,9.59-3.74,12.75-4.33ZM193.7,15.33c-26.29-10.51-55.61-10.51-81.9,0-1.52,2.92-3.74,3.16-3.74,5.15,4.33,1.52,6.79,5.5,2.11,8.89l2.57,8.19c5.73.23,6.2,4.09,5.5,7.25,1.99,1.29,3.28,5.15,2.34,7.96,20.25-9.78,43.86-9.78,64.11,0-.94-2.81.35-6.67,2.34-7.96-.7-3.16-.23-7.14,5.5-7.25l2.57-8.19c-4.68-3.28-2.22-7.25,2.11-8.89.23-1.99-1.99-2.22-3.51-5.15ZM111.57,10.53c26.55-9.98,55.82-9.98,82.36,0,1.72-1.54,4.16-1.99,6.32-1.17.35-2.57,7.37-2.11,8.77-.12.7-1.05,5.73-1.64,9.13,6.55l3.63-.7,3.86-.35c1.75-.23,2.34-2.46,4.33-3.28.35-.12,1.29-.35,2.69-.47-.23-1.05-.7-2.69-.47-3.39.58-2.11,4.09-2.22,5.73-2.69,1.87-.58,3.98-1.29,2.92-3.16-2.11-3.51,7.49-.94,8.54.58.58.94-.47,2.69-.47,2.69,0,0,1.29-.12,2.57.12,3.16.47,5.62,1.52,4.33-2.57-.82-2.69,10.18.94,8.42,5.73-.47,1.4-2.11,2.46-2.11,2.46,0,0,1.05.7,1.99,2.34.82,1.4,3.74-.23,3.74-2.22,0-4.09,5.03,1.52,5.38,5.38.12,1.4-.12,3.63-1.4,4.68-.58.47-2.34.7-2.34.7,0,0,.7,1.29.7,3.63-.12,2.11,3.51,1.52,4.56-.82.82-1.87,3.98,4.33,2.81,8.42-.35,1.29-1.99,3.04-3.16,3.28s-2.81-.35-2.81.12v2.69c-.23,2.92,2.69,3.28,4.91,1.17,1.64-1.64,2.81,9.94-1.87,10.76-2.69.47-3.16-.94-3.28-.47-.12.47-.12.94-.7,1.99-1.4,3.04,2.46,2.92,4.45,1.87,1.75-.94,1.05,9.83-4.8,9.36-1.05-.12-1.87-1.29-2.81-1.29s-1.05,9.59,2.69,9.59c5.38,0-.58,6.08-5.73,5.85.58,7.02,4.91,16.61,9.13,21.41,4.68,5.38,7.25,11.35,7.02,16.85,8.07.82,13.34-2.92,15.21-8.07,2.92-7.96-2.81-16.85-7.14-23.52-4.56-7.64-5.86-16.78-3.63-25.39-2.12-1.49-3.36-3.96-3.28-6.55,0-2.81.58-5.97,3.51-8.66,7.25-6.79,18.37-.94,20.12,1.64.58.82.35,2.11-.94,2.81-4.91,2.69-1.99,12.4-11.35,12.4-.58,1.87-.82,3.86-.82,5.85-.28,4.76.9,9.5,3.39,13.57,1.52,2.57,4.91,7.37,7.02,11.82,5.73,12.4,1.99,28.2-12.52,32.88-4.23,1.17-8.68,1.33-12.99.47l-1.05,1.17-1.64,1.52c-1.34,4.02-.3,8.46,2.69,11.47,6.08,7.02,9.01,8.89,1.75,14.16-14.04,10.06-15.09,17.78-17.08,20.71l9.13,1.75c1.52.35,4.56,1.17,3.51,5.73l-7.96,35.57c-1.17,5.26-5.15,3.98-7.02,3.51-34.28-9.01-50.78,15.44-106.7,15.44s-72.54-24.45-106.7-15.44c-1.87.47-5.85,1.75-7.02-3.51l-7.96-35.57c-1.05-4.56,2.11-5.38,3.51-5.73l9.13-1.75c-1.87-3.04-2.92-10.65-17.08-20.71-7.25-5.26-4.45-7.02,1.75-14.16,2.99-3.01,4.03-7.44,2.69-11.47l-1.64-1.52-1.05-1.17c-5.38.94-10.53.23-12.99-.47C1.01,120.27-2.86,104.48,2.99,91.96c2.11-4.45,5.38-9.24,7.02-11.82,2.22-3.63,3.63-7.6,3.39-13.57-.12-1.99-.35-3.98-.82-5.85-9.36,0-6.43-9.71-11.35-12.4-1.29-.7-1.52-1.87-.94-2.81,1.75-2.69,12.87-8.42,20.12-1.64,2.92,2.69,3.51,5.97,3.51,8.66s-1.05,5.03-3.28,6.55c1.29,6.2,2.34,16.38-3.63,25.39-4.45,6.67-10.06,15.56-7.14,23.52,1.87,5.15,7.14,8.89,15.21,8.07.09-6.31,2.6-12.34,7.02-16.85,4.86-6.22,8-13.6,9.13-21.41-5.15.35-11.11-5.85-5.73-5.85,3.74,0,3.63-9.59,2.69-9.59s-1.75,1.17-2.81,1.29c-5.85.47-6.55-10.3-4.8-9.36,1.99,1.05,5.85,1.29,4.45-1.87l-.7-1.99c-.12-.58-.47.94-3.28.47-4.68-.82-3.51-12.28-1.87-10.76,2.22,2.11,5.15,1.75,4.91-1.17-.12-.89-.12-1.8,0-2.69,0-.47-1.64.12-2.81-.12-1.05-.23-2.81-1.99-3.16-3.28-1.17-4.09,1.99-10.3,2.81-8.42,1.05,2.22,4.68,2.81,4.56.82-.12-2.34.7-3.63.7-3.63,0,0-1.75-.23-2.34-.7-1.29-1.05-1.52-3.28-1.4-4.68.35-3.86,5.38-9.48,5.38-5.38,0,1.99,3.04,3.63,3.74,2.22.82-1.64,1.99-2.34,1.99-2.34,0,0-1.64-1.05-2.11-2.46-1.75-4.8,9.24-8.42,8.42-5.73-1.29,4.09,1.17,3.04,4.33,2.57,1.29-.23,2.57-.12,2.57-.12,0,0-1.05-1.75-.47-2.57.94-1.52,10.65-4.09,8.54-.58-1.17,1.87,1.05,2.46,2.92,3.16,1.64.58,5.03.7,5.73,2.69.23.7-.23,2.34-.47,3.39l2.69.47c1.99.82,2.69,2.92,4.33,3.28l3.86.35,3.63.7c3.39-8.19,8.42-7.6,9.13-6.55,1.4-2.11,8.42-2.46,8.77.12,1.75-.94,4.68-.47,6.08,1.05h0ZM172.52,30.66l5.26,1.4,1.29-5.03,1.05-3.63h-.12l-2.92,3.16-4.56,4.09ZM179.77,41.42l-4.21-1.17,1.29-4.91-9.48-2.57.82-2.81,11.47-10.18,5.5,1.52-3.16,11.93,2.57.7-.94,3.28-2.57-.7-1.29,4.91h0ZM157.08,34.28c2.22.12,3.63-2.34,3.86-7.25.23-4.8-.82-7.37-3.04-7.49-2.11-.12-3.63,2.34-3.86,7.14-.35,4.91.94,7.49,3.04,7.6ZM156.84,37.68c-5.26-.23-7.72-4.91-7.37-11.11.35-6.2,3.39-10.65,8.66-10.41,5.5.23,7.72,5.03,7.37,11.11-.35,6.32-3.16,10.65-8.66,10.41ZM137.66,20.6c-1.87.23-3.04,2.11-2.69,4.33.23,1.87,1.64,3.28,3.86,3.04,1.52-.23,2.57-1.05,2.92-1.99l.12-1.05c-.47-2.46-1.64-4.68-4.21-4.33ZM134.26,39.31l-.47-3.51,2.22-.35c1.64-.35,3.16-1.05,4.21-2.11,1.29-1.17,1.99-2.69,2.11-4.45h-.12c-.82,1.29-2.22,1.99-4.33,2.34-3.74.47-7.02-1.64-7.6-5.5-.58-4.09,2.34-7.96,6.9-8.54,5.38-.7,8.54,2.92,9.24,7.84.58,4.33-.35,7.6-2.34,9.94-1.99,2.17-4.68,3.58-7.6,3.98l-2.22.35h0ZM126.77,41.3l-4.91-16.03h-.12l-3.28,2.92-1.75-3.04,4.45-3.98,3.63-1.05,6.08,19.89-4.09,1.29ZM70.85,18.02c-.65.45-1.17,1.05-1.52,1.75l3.28-1.05c-.47-.35-1.05-.7-1.75-.7ZM75.53,19.54s-6.43,2.57-7.6,1.52c-1.4-1.29,1.52-4.68,2.69-4.68,2.92,0,4.91,3.16,4.91,3.16ZM229.96,19.54s1.99-3.16,4.91-3.16c1.17,0,4.09,3.39,2.69,4.68-1.17.94-7.6-1.52-7.6-1.52ZM234.64,18.02c-.7,0-1.29.35-1.75.82l3.28,1.05c-.33-.75-.86-1.4-1.52-1.87ZM233.01,208.61v-12.17l-.12-5.5h4.56l.23,2.69h.12c.7-1.17,2.69-3.04,5.85-3.04,3.39,0,6.67,2.22,6.67,7.84v10.3h-5.15v-9.71c0-2.57-.94-4.33-3.28-4.33-1.51.03-2.82,1.02-3.28,2.46l-.23,1.29v10.18h-5.38ZM55.41,208.84l-.82-24.45,5.15-.23.7,20.12,10.53-.35.12,4.33-15.68.58ZM90.86,205.1l-11.93-2.81c-.47,2.57,1.75,4.33,4.45,5.03,1.99.47,3.63.58,5.26.35l-.12,3.63c-1.87.35-4.21.23-6.79-.35-5.97-1.4-8.66-5.62-7.49-11,1.05-4.33,4.91-8.66,11.11-7.14,5.97,1.4,6.9,6.55,5.97,10.41,0,.82-.35,1.52-.47,1.87h0ZM79.63,198.78l7.37,1.75c.35-1.17.23-3.86-2.69-4.56-2.46-.58-4.09,1.4-4.68,2.81ZM96.36,196.09l5.26,1.99-.35,9.13c0,1.64-.23,3.04-.35,4.45h.12l2.57-3.63,5.5-7.14,5.15,1.87-12.75,14.27-4.91-1.75s-.23-19.19-.23-19.19ZM130.4,216.56l-12.05-2.34c-.35,2.57,1.87,4.33,4.68,4.8,1.99.35,3.63.47,5.26.23v3.63c-1.87.35-4.21.35-6.79-.12-5.97-1.17-8.89-5.38-7.84-10.76.82-4.33,4.68-8.77,10.88-7.6,6.08,1.17,7.14,6.32,6.32,10.3,0,.7-.23,1.52-.47,1.87h0ZM119.05,210.71l7.49,1.4c.23-1.17.12-3.86-2.81-4.45-2.69-.47-4.21,1.52-4.68,3.04ZM135.55,224.87l1.05-11.82.35-5.85,4.45.35-.12,3.51h.12c1.17-2.57,3.51-3.63,5.38-3.39l1.17.23-.47,4.8-1.52-.35c-2.22-.23-3.74.94-4.33,2.81l-.23,1.17-.82,9.01-5.03-.47h0ZM157.19,199.36l.58,15.79h.12l1.29-2.11,3.98-5.62,6.32-.23-6.67,7.37,8.31,10.3-6.43.23-5.26-7.37-1.52,1.87.23,5.73-5.15.23-.94-25.86,5.15-.35h0ZM189.72,203.22l2.34,11.93,1.17,5.38-4.45.82-.7-2.57h-.12c-.47,1.29-1.87,3.51-5.15,4.21-3.39.7-6.79-.82-7.84-6.43l-1.99-10.18,5.15-.94,1.75,9.24c.58,2.81,1.75,4.21,4.09,3.86,1.46-.28,2.59-1.45,2.81-2.92.12-.42.12-.87,0-1.29l-1.99-10.3,4.91-.82h0ZM197.79,217.61l-.12-3.86c1.17.35,3.51.47,5.15,0,1.87-.47,2.34-1.4,2.11-2.34-.23-1.05-1.05-1.29-3.39-1.4-3.86,0-5.97-1.52-6.55-3.63-.94-3.16,1.05-6.32,5.38-7.49,2.11-.58,3.98-.58,5.26-.35l.12,3.74c-.94-.23-2.57-.35-4.21.12-1.4.47-2.11,1.29-1.87,2.22.23.94,1.17,1.17,3.63,1.29,3.63.12,5.5,1.29,6.32,3.86.94,3.04-.94,6.2-5.85,7.6-2.22.47-4.45.58-5.97.23h0ZM228.91,202.17l-12.05,2.34c.7,2.46,3.39,3.28,6.08,2.69,1.99-.35,3.51-.94,4.91-1.75l1.4,3.28c-1.64,1.05-3.74,1.99-6.32,2.46-5.97,1.17-10.18-1.64-11.23-7.02-.82-4.33.94-9.83,7.25-11.11,6.08-1.17,9.01,3.28,9.71,7.14l.23,1.99h0ZM216.16,201l7.49-1.4c-.23-1.29-1.29-3.63-4.33-3.04-2.69.35-3.28,2.81-3.16,4.45ZM148.3,67.63h8.66c.94,0,1.75-.82,1.75-1.75s-.82-1.75-1.75-1.75h-8.66v3.51ZM148.3,75.93h8.89c1.05,0,1.99-.94,1.99-1.99s-.94-1.99-1.99-1.99h-8.89s0,3.98,0,3.98ZM162.11,69.62c1.17,1.17,1.87,2.69,1.87,4.56,0,3.51-2.81,6.32-6.32,6.32h-14.39v-20.83h14.16c3.28,0,6.08,2.69,6.08,6.08.01,1.41-.48,2.79-1.4,3.86h0ZM165.5,105.07h-5.26l-1.64-3.51h-11.58l-1.64,3.51h-5.26l10.3-20.71h4.8l10.3,20.71h0ZM152.75,89.62l-3.63,7.49h7.25l-3.63-7.49h0ZM159.77,109.51h5.97l-10.53,13.45v7.25h-4.91v-7.25l-10.53-13.45h5.97l7.02,9.48,7.02-9.48h0ZM187.38,109.51v4.45h-13.81v3.51h13.34v4.45h-13.34v3.98h13.81v4.45h-18.72v-20.71l18.72-.12h0ZM202.94,122.38h-3.74v7.84h-4.91v-20.71h12.64c3.51,0,6.43,2.92,6.43,6.43,0,2.92-1.99,5.38-4.56,6.2l6.08,8.19h-5.97l-5.97-7.96ZM206.33,113.96h-7.14v3.98h7.14c1.05,0,1.99-.94,1.99-1.99,0-1.17-.94-1.99-1.99-1.99ZM142.1,130.22h-5.26l-1.64-3.51h-11.58l-1.64,3.51h-5.26l10.3-20.71h4.8s10.3,20.71,10.3,20.71ZM129.35,114.78l-3.63,7.49h7.25l-3.63-7.49ZM97.99,117.47h8.66c.94,0,1.75-.82,1.75-1.75s-.82-1.75-1.75-1.75h-8.66v3.51ZM97.99,125.77h8.89c1.05,0,1.99-.94,1.99-1.99s-.94-1.99-1.99-1.99h-8.89s0,3.98,0,3.98ZM111.92,119.46c1.17,1.17,1.87,2.69,1.87,4.56,0,3.51-2.81,6.32-6.32,6.32h-14.39v-20.71h14.16c3.28,0,6.08,2.69,6.08,6.08,0,1.29-.58,2.69-1.4,3.74ZM162.11,134.66v4.45h-13.81v3.51h13.34v4.45h-13.34v3.98h13.81v4.45h-18.72v-20.83h18.72ZM158.6,166.72c0-1.05-.82-1.99-1.99-1.99h-8.42v3.98h8.42c1.17,0,1.99-.94,1.99-1.99ZM143.39,180.99v-20.71h13.81c3.51,0,6.32,2.92,6.32,6.43,0,2.69-1.64,5.03-3.98,5.97l6.2,8.31h-5.97l-5.97-7.84h-5.62v7.84h-4.8,0Z"/></svg>