<svg xmlns="http://www.w3.org/2000/svg" viewBox="0 0 165.61 154.39"><title>Mainz 05 logo</title><path d="M497.6,512.62c-1.7-17.72-11.3-31.43-21.48-30.61s-17.07,15.86-15.39,33.59a54.83,54.83,0,0,0,1.85,9.88c3.62,12.66,11.45,21.39,19.63,20.73,7.59-.61,13.34-9.11,15.09-20.73a53.1,53.1,0,0,0,.3-12.86Zm-17,15.89c-2.1.17-4.15-1-5.87-3-2.32-2.76-4-7.15-4.55-12.2-.84-8.8,2.48-16.26,7.41-16.66S487.14,503,488,511.85c.53,5.57-.61,10.6-2.76,13.64a6.43,6.43,0,0,1-4.65,3Z" transform="translate(-429.19 -434.8)" style="fill:#c3141e"/><path d="M512.16,583.67h-.31a88.42,88.42,0,0,1-18.75-2.34,93.33,93.33,0,0,0,11.56-34.07V491.68L471.9,462.86c-12.91,10.43-21.06,25.78-21.06,42.89,0,23.28,15.12,43.36,36.79,52.19l-6.88,19.31c-27.13-11.22-46-36.38-46-65.6,0-34.59,26.5-63.44,61.75-70.28a5.79,5.79,0,0,1,1-.08c2.9,0,5.25,2,5.25,4.57a4.62,4.62,0,0,1-3.29,4.24,64.29,64.29,0,0,0-17.78,6.33l30.2,26.49,30.48-26.5a64.31,64.31,0,0,0-17.76-6.31,4.62,4.62,0,0,1-3.29-4.24c0-2.52,2.35-4.57,5.25-4.57a5.79,5.79,0,0,1,1,.09c35.25,6.84,61.75,35.7,61.75,70.28,0,29.23-18.91,54.38-46,65.6l-6.88-19.31c21.68-8.83,36.79-28.91,36.79-52.19,0-17.11-8.14-32.46-21.05-42.89l-32.76,28.81v55.59a93.34,93.34,0,0,0,11.59,34.07,88.42,88.42,0,0,1-18.75,2.31Z" transform="translate(-429.19 -434.8)" style="fill:#c3141e"/><path d="M560.05,507c2.2,11.7-5.54,27.87-20.48,38.77-2.42,1.76-2.94,2.75-4.72,3.67l-3.42-9.92a27.36,27.36,0,0,0,5.55-3.42c7-5.14,10.82-12.05,9.73-17.87-.74-4-3.81-7.87-8.95-4.12a58.72,58.72,0,0,0-9.47,8.6l.07-28.47L552,474l-.2,12.62-12.51,9.9.11,8.38a34.77,34.77,0,0,1,3.48-2.8c8.21-6,15.53-3.78,17.16,4.91Z" transform="translate(-429.19 -434.8)" style="fill:#c3141e"/><path d="M512,588.45c45.32,0,82.06-34.23,82.06-76.45S557.32,435.55,512,435.55,429.94,469.78,429.94,512,466.68,588.45,512,588.45Z" transform="translate(-429.19 -434.8)" style="fill:none;stroke:#c3141e;stroke-miterlimit:10;stroke-width:1.5px"/></svg>