<svg xmlns="http://www.w3.org/2000/svg" viewBox="0 0 139.23 222.29"><title>Borussia Monchengladbach logo</title><path d="M511.88,400.85l-69.5,111.26,69.61,111,69.61-111Z" transform="translate(-442.39 -400.85)" style="fill:#fff"/><path d="M511.88,407.87,446.83,512.12l65.17,104,65.17-104Z" transform="translate(-442.39 -400.85)"/><path d="M511.88,424.72l-54.52,87.4L512,599.28l54.64-87.16Z" transform="translate(-442.39 -400.85)" style="fill:#fff"/><path d="M512,432.44l-49.84,79.67L512,591.56l49.84-79.44Z" transform="translate(-442.39 -400.85)"/><path d="M512,438.64l-46,73.47,46,73.24,46-73.24Z" transform="translate(-442.39 -400.85)" style="fill:#fff"/><path d="M511.88,437l-13.81,20.71h28.08ZM536.8,549.09H487.66L469.3,520h85.06Zm-48.67-74.88h48l17.55,29.13H469.76Zm23.75,114.07-14.27-22.93h29.48Z" transform="translate(-442.39 -400.85)"/><path d="M489,548.74h34.51c9.94,0,18.6-9.48,18.6-22.46a22.25,22.25,0,0,0-5-14.16c2-2.11,4.91-4.8,4.91-15.21,0-7.49-6.32-22-21.06-22H489Z" transform="translate(-442.39 -400.85)"/><path d="M491.53,546.28h28.66c9.24,0,19.07-6,19.07-19.77,0-6.9-3.16-11-5.5-14.27,1.87-1.87,5.73-4.91,5.73-14.74,0-6.9-4-20.24-20.83-20.24H491.53Z" transform="translate(-442.39 -400.85)" style="fill:#fff"/><path d="M494,543.82H518.2c10.65,0,18.6-5.62,18.6-18.37,0-6.32-4.45-11.93-6.67-13.22,2-1.17,6.9-4.56,6.9-13.69,0-7.25-3.86-18.84-19.54-18.84H494Z" transform="translate(-442.39 -400.85)"/><path d="M504.63,517.38H517c4.09,0,8,2.34,8,6.67,0,5.26-3.74,7-8.66,7H504.75Zm0-25.74h10.65c3.51,0,8.42.7,8.42,6.67,0,6.55-4.68,6.9-8.42,6.9H504.63Z" transform="translate(-442.39 -400.85)" style="fill:#fff"/><path d="M507.2,494.1h7.72c2.46,0,6,.12,6,4.33s-3.28,4.33-6,4.33H507.2Zm.23,25.74h8.42c2.69,0,6.2,1.52,6.2,4.45,0,3.74-3.39,4.33-6.67,4.33h-8Z" transform="translate(-442.39 -400.85)"/></svg>