<svg id="Layer_1" data-name="Layer 1" xmlns="http://www.w3.org/2000/svg" viewBox="0 0 384.65 247.22"><title>RB Leipzig logo - Brandlogos.net</title><path d="M610.53,374.53c-10.71-5.23-29.32-11.27-29.32-11.27-.8-.21-2.4-.74-2.4-.74a8.85,8.85,0,0,0,1-2.1c.64-2.31.51-5-1-5.85,0,0,8.11.45,9.88-.24,5-1.94,6.91-8.64,5.16-13.39-.92-2.49-4.83-4-5.63-6.12s-1.27-3.51-3.36-4.57c-3.37-1.7-11.91-3.19-15.67-2.86-3.17.28-3.78,3.94-5.74,4.78-7.84,3.38-11.34,1.8-11.26,13.49a6.55,6.55,0,0,0,.09,1c-2.83-1.37-9.93-4.85-13.21-6.32V269.53h-232v70.83c-3.29,1.47-10.39,4.95-13.22,6.32a6.53,6.53,0,0,0,.09-1c.08-11.7-3.42-10.11-11.26-13.49-2-.85-2.57-4.5-5.74-4.78-3.75-.33-12.3,1.16-15.67,2.86-2.09,1.07-2.59,2.61-3.35,4.57s-4.71,3.63-5.63,6.12c-1.76,4.74.15,11.45,5.15,13.39,1.77.69,9.89.24,9.89.24-1.5.85-1.62,3.53-1,5.85a8.85,8.85,0,0,0,1,2.1s-1.61.53-2.41.74c0,0-18.61,6-29.32,11.27,0,0-12.83,6,3.08,4.88.77,0,12.69-.92,25.14-2.78l-.08.7c0,4,.86,4,4.21,5.16l-.12.74c-4.19.85-12.52,1.68-15.42,3.62-3.18,2.12-11.86.48-17.06,7.58-1.37,1.86-3.66,7.52-2.31,9.36,2.2,3,14.79,7.41,16.43,7.45,3.93.08,4.33-3.14,7.11-5.05,1.33-.92,2.94-.3,4.42-.69,2.22-.59,3.46-2.61,5.42-3.63,1.14-.59,3.59-1.15,5.16-.25,6.91,4.25,28.1-1.14,35.45-5.48v38.38c0,13.65,1.73,18.88,5.89,26.11l.34.57c23.61,35.31,63.64,55.56,109.8,55.56s86.15-20.19,109.68-55.4l.36-.56c4.23-7.36,6-12.63,6-26.28V396.13c7.35,4.34,28.54,9.74,35.44,5.48,1.57-.9,4-.34,5.16.25,2,1,3.2,3,5.43,3.63,1.48.39,3.07-.23,4.41.69,2.78,1.91,3.18,5.13,7.12,5.05,1.64,0,14.22-4.45,16.42-7.45,1.34-1.84-.93-7.5-2.3-9.36-5.21-7.1-13.89-5.45-17.07-7.58-2.9-1.94-11.24-2.78-15.42-3.62l-.12-.74c3.35-1.15,4.23-1.13,4.21-5.16l-.08-.7c12.45,1.85,24.37,2.78,25.14,2.78,15.92,1.15,3.08-4.88,3.08-4.88" transform="translate(-230.78 -269.53)" style="fill:#fff"/><path d="M411.78,408.11a63.08,63.08,0,0,1-33.59-9.65,56.91,56.91,0,0,0,95.17-8.23l-.07,0c-1.12-.31-2.79-1-4.72-1.73-2.18-.86-6.14-2.42-7.49-2.57a13.44,13.44,0,0,0-1.09.83,22.82,22.82,0,0,1-2.38,1.74,63.14,63.14,0,0,1-45.82,19.64" transform="translate(-230.78 -269.53)" style="fill:#d0d2d3"/><path d="M602,397.35a30.5,30.5,0,0,0,2.82,5.36c.75,1,1.8-.1,2.91-.7a5.85,5.85,0,0,0,1-.63c-.59-2.17-1.65-5.05-5-5.39h-.26c-1.28,0-1.64.82-1.49,1.36m.8-4c-.3-1-5.54-1.95-5.8-1.1,1.86,4.55,6.22,2.59,5.8,1.1m-365.29,8a5.75,5.75,0,0,0,1,.63c1.11.6,2.17,1.66,2.91.7a30.5,30.5,0,0,0,2.82-5.36c.16-.55-.2-1.32-1.49-1.36h-.26c-3.33.34-4.39,3.22-5,5.39m11.72-9.11c-.26-.84-5.5.09-5.79,1.1-.42,1.49,3.94,3.45,5.79-1.1m39.09-48c1.25-5-7.24-6-10.41-6.69-.66-.14-4.63-.9-4-2,.07-.12,1.57-1.48,1.91-2l-.36-.42c-1.22-.1-10.05,2-11.53,2.54a1.5,1.5,0,0,0-.75.86c.89,1.42-.46,2.76-.15,4.2.21,1,4,.75,2.17,2.61l-2.86.36c-1.29-.56.37-1.85-1.11-2.17-1.19.43-3.06.81-3.68,2.06a4.6,4.6,0,0,0,.16,4,5.69,5.69,0,0,0,5.79,2.07c3.31-.59,6.76-1.16,10-2.07,1.22-1.64,3.58-1.15,5.31-1.7,1.44.55-3.7,4.61-4.3,5.42a16,16,0,0,0-2,4.51,6.16,6.16,0,0,0,3.08,6.12c1.88.91,3.53.4,5.32-.28,1.51-.58,6.15-1.81,6.59-3.45-.42-1.21-8.23.2-9.79-.86-.73-.5.37-1.67.59-2.23,1-2.6,9.47-8.59,10-10.95m90,34.2c-.12,1.09-.34,2.25-1.33,2.79-.82.11-2,.38-2.61-.11-.39-.77.21-1.53.54-2.24a3.78,3.78,0,0,1,3.06-1.21.9.9,0,0,1,.34.77m-9-28.68c-10.16,1.5-31.2,4.47-31.2,4.47l1.43-.65,30.39-4.95a1.31,1.31,0,0,1,.9.21c.21.74-1.1.87-1.53.92m-17.59-9.93c.12.6-.82.68-1.23.8-5.26,1.46-10.78,2.73-16.15,3.76l-.21-.21a7.83,7.83,0,0,1,2.07-1.64,5,5,0,0,0,2.55,0c2.21-.75,11-3.08,13-2.71m.85,46c.63,2.66-.91,5-2.61,6.75a.75.75,0,0,1-.63-.54c.59-2.23,1.81-5.31.11-7.55l-2.45-5.26c.21-.74,1-.85,1.65-1.06a1.12,1.12,0,0,1,1.07.9Zm-57.18,4.25-1.16.77-10.36,2.65a.92.92,0,0,1-.76-.35,1.75,1.75,0,0,1,1-1.18c2.65-.75,5.25-1,7.85-1.49a23,23,0,0,1,3.48-.4m105.22-5.8.37-.42c-.33-.82-1.78-1.09-2.5-1.59-2.41-1.67-3.81-4.27-5.73-6.42-.7-.79-1.68-1.34-2.34-2.07-.43-.48-3.16-6.32-3.62-7.34l-.59-.32c-4.95.27-9.91.34-14.86.46-2.14.06-4.93.5-7,.23-.32,0-.38-.3-.32-.59,4.69-1.58,13.25.94,16.47-3.4.44-.59.37-1.6,1.17-1.81a4,4,0,0,0,2.72.59l.42-.59c-.74-3.09-1.55-6.34-3.56-8.87-3.19-4-10.94-12.5-15.35-14.72-2-1-4.43-4.48-5.2-3.25a1.56,1.56,0,0,1-.48,1.12c-1.94.38-1.88-3.28-4.47-4.84a12.92,12.92,0,0,0-9-1.76c-3.68.81-7.49,2.77-10.84,4.47q-11,5.6-22.14,11.14c-3.5,1.75-7,3.67-10.59,5.22-.84.37-2.06.5-2.44,1.5-.52,1.32.61,3.26,1.69,4,2.29,1.52,5.8-.36,8-1.22l.37.21c-1.61,2-3.44,2.07-5.74,2.55-1.83.37-3.66,1.34-5.48,1.86-2.48.71-4.92,1.48-7.37,2.28-1,.34-2.73.58-2.45,2.07-.36.84-1.28.72-2,.85-15.65,2.69-46.33,11.29-53.13,13.73,20-3.85,32.91-5.74,57.27-10,23.1-4,46.52-7.12,69.77-10.1,4-.51,8.12-1.11,12.18-1.49,2.6-.24,3,.64,4.83,2.34,0,1.15-4.82.84-5.9,1a.38.38,0,0,1,0-.53,6.41,6.41,0,0,0,2.12-1.43l-.27-.59c-8.46.72-17,2.29-25.39,3.58-12.87,2-25.77,3.89-38.58,6.19-8.59,1.55-17.08,3.73-25.68,5.37v.37c15.53-1.65,30.83-5.38,46.29-7.55l0,.42c-3.74,1.16-7.62,1.76-11.42,2.66-17.52,4.16-35.2,7.66-52.73,11.84,3.1-.43,6.2-.83,9.3-1.22,1.18.72-.29,2,.32,3.46,1.06,2.54,3.08.14,3.3,1.44a3.93,3.93,0,0,1-1.12,2.44c-7.06.84-14,2.84-21,3.73l-.11.58L262,390s.43.47.41.47c-.08,1-1.59.62-2.27.76-2.49.46-3.1.67-5.58,1.13-5.5,1-3.69,5.44-7.54,6.42-.39.1-.63.46-1,.94-.94,1.57-2.79,3.94-1.7,4.83a21.44,21.44,0,0,0,3.95,1.57c3.31.93,4.61-5,6.68-6.16,1.7-1,3.77,1.17,6-.06,3.2-1.23,5-4.18,6.54-4.44,1.12-.18,3.23,1.59,3.24,1.56a2.55,2.55,0,0,0,1.48.46,54.5,54.5,0,0,0,12-.12c6.41-.91,17.24-4.05,22-8.5-.61-1.8-6-.19-7.34,0,1.23-2.57-.42-3.72.91-4.36l5.52-.53c1.63-.15,3.3-.62,5-.8s3.45-.09,5.08-.32c1-.15,2.67-.46,3.19-1.44-.14-.8-.72-1.84-.15-2.6.7-.94,2.59-1.14,3.66-1.54,1.45-.54,2.61-1.6,4.1-2,1.68.51.21,3.11,2.18,3.66,1.82.5,6.25-1.85,7.43-.37,0,.8-.54,2,.21,2.6,1.19,1,2.67,1.14,3.89,2.4,1.54,1.59,3.7,4.59,3,7s-6.46,5.2-8.61,3.83c-1.42-.9-1.3-2.95-3.29-2.33-2.34.71-4.77.87-7.12,1.54-1.94.55-4.67,1-6.43,1.81-.27.13-.73.58-.42.9.91,1,9.66-.08,11.37-.26a2.08,2.08,0,0,1,2.07.53c1.07,1.24-1.35,1.58-.63,2.72,1,1.54,3.54,2.09,5.2,1.69a56.87,56.87,0,0,0,9.07-3.27c.91-.4,1.9-1,2.82-1.34,2.25-.74,4.72.47,6.27-2.07,1.4-2.3,3.27-4.88,3.29-7.64,0-2.27-1.4-3.69-2.23-5.64a35.38,35.38,0,0,1-1.7-4.84c0-.35,1.52-3.84,1.86-3.88l9.82-1.22a1.26,1.26,0,0,1,.8.59c.41,2-2.59,4.32-3.66,5.68-.4.51-1.24,1.87-1,2.54.36,1.12,2-.59,2.17.69.15.9-1.91,2.32-1.7,4,.18,1.39.28,3.42,1.7,4.1,2.37,1.11,2.58-.82,3.67-.85.43,0,1.09.25,1.58.26a15.4,15.4,0,0,0,4.26-.85c2.79-.77,11.24-4.72,13.49-4.41,2.65.36,4.12,4.92,12.22,5.16l.43-.64c-2.76-2.66-4.79-.89-7.65-6.69a18.85,18.85,0,0,0-3.29-4.51.46.46,0,0,1,.32-.59c4.9,1.73,5.65,9.41,13,8.82m-72.27,1.22a2.31,2.31,0,0,0,.06,2,3.1,3.1,0,0,0,2.39,1.59c1,.11,1.06-1.06,1.91-1.27,1.59,1.16,1.49,3.19,3.08,4.3a9.19,9.19,0,0,0,3-.59,2.11,2.11,0,0,0,1.27-1.65c-.32-1.27-1.07-2.39-1.33-3.72-.69-2.07-3.19-.69-4.73-.69-1.7.42-3.18-.26-4.68-.59a1.77,1.77,0,0,0-1,.63m183.86-41.34-.21.21c-5.37-1-10.89-2.3-16.15-3.76-.4-.11-1.34-.19-1.23-.8,1.93-.37,10.75,2,13,2.71a5,5,0,0,0,2.55,0,7.67,7.67,0,0,1,2.07,1.64m-5.42,9.39,1.43.65s-21-3-31.19-4.47c-.43,0-1.75-.18-1.53-.92a1.29,1.29,0,0,1,.9-.21Zm-34.86,27.55c-.65.49-1.81.22-2.62.11-1-.54-1.21-1.69-1.32-2.79a.92.92,0,0,1,.33-.77,3.78,3.78,0,0,1,3.06,1.21c.33.71.93,1.47.55,2.24m21.84,4.72,2.86-6.75a1.13,1.13,0,0,1,1.07-.9c.64.21,1.44.32,1.65,1.06l-2.45,5.26c-1.7,2.24-.47,5.32.12,7.55a.77.77,0,0,1-.64.54c-1.7-1.71-3.25-4.09-2.6-6.75m57.18,4.25a22.91,22.91,0,0,1,3.47.4c2.6.53,5.2.74,7.86,1.49a1.76,1.76,0,0,1,.94,1.18.9.9,0,0,1-.75.35L552,390.86Zm5.73-27.32c.28-1.5-1.42-1.74-2.45-2.07-2.45-.8-4.89-1.56-7.37-2.28-1.82-.52-3.65-1.49-5.48-1.86-2.3-.48-4.13-.53-5.73-2.55l.37-.21c2.19.86,5.69,2.74,8,1.22,1.08-.72,2.21-2.66,1.7-4-.39-1-1.61-1.13-2.45-1.5-3.58-1.56-7.1-3.48-10.59-5.22q-11.09-5.53-22.14-11.14c-3.35-1.7-7.15-3.66-10.84-4.47a12.92,12.92,0,0,0-9,1.76c-2.58,1.56-2.53,5.22-4.47,4.84a1.55,1.55,0,0,1-.47-1.12c-.79-1.24-3.24,2.25-5.21,3.25-4.42,2.22-12.17,10.69-15.35,14.72-2,2.54-2.81,5.78-3.56,8.87l.43.59a4,4,0,0,0,2.71-.59c.8.2.73,1.22,1.17,1.81,3.22,4.34,11.78,1.82,16.47,3.4.07.29,0,.55-.32.59-2.1.27-4.88-.17-7-.23-5-.12-9.92-.19-14.86-.46l-.59.32c-.46,1-3.18,6.86-3.62,7.34-.65.73-1.64,1.29-2.34,2.07-1.92,2.15-3.31,4.75-5.73,6.42-.72.5-2.17.78-2.5,1.59l.37.42c7.32.59,8.07-7.09,13-8.82a.45.45,0,0,1,.32.59,18.55,18.55,0,0,0-3.28,4.51c-2.87,5.8-4.91,4-7.66,6.69l.43.64c8.1-.24,9.57-4.8,12.22-5.16,2.26-.32,10.71,3.64,13.49,4.41a15.4,15.4,0,0,0,4.26.85c.49,0,1.16-.28,1.58-.26,1.08,0,1.3,2,3.67.85,1.43-.68,1.52-2.71,1.7-4.1.21-1.66-1.85-3.08-1.7-4,.21-1.28,1.81.43,2.18-.69.22-.67-.61-2-1-2.54-1.07-1.36-4.08-3.7-3.67-5.68a1.26,1.26,0,0,1,.8-.59l9.83,1.22c.34,0,1.83,3.53,1.85,3.88a35.42,35.42,0,0,1-1.7,4.84c-.82,1.95-2.26,3.37-2.23,5.64,0,2.77,1.89,5.35,3.29,7.64,1.55,2.54,4,1.33,6.27,2.07.92.31,1.92.94,2.82,1.34a56.63,56.63,0,0,0,9.08,3.27c1.65.4,4.23-.15,5.2-1.69.71-1.13-1.7-1.48-.63-2.72a2.05,2.05,0,0,1,2.06-.53c1.71.18,10.46,1.25,11.37.26.32-.33-.15-.77-.42-.9-1.76-.86-4.48-1.26-6.43-1.81-2.34-.66-4.76-.83-7.12-1.54-2-.61-1.87,1.43-3.29,2.33-2.15,1.37-7.91-1.36-8.6-3.83s1.48-5.36,3-7c1.21-1.26,2.69-1.44,3.88-2.4.76-.6.21-1.81.21-2.6,1.18-1.48,5.62.87,7.43.37,2-.55.51-3.15,2.19-3.66,1.48.41,2.64,1.48,4.09,2,1.08.39,3,.6,3.67,1.54.56.76,0,1.81-.16,2.6.52,1,2.17,1.29,3.19,1.44,1.63.23,3.42.13,5.09.32s3.32.64,5,.8l5.53.53c1.33.64-.33,1.79.9,4.36-1.32-.19-6.71-1.8-7.34,0,4.77,4.45,15.58,7.59,22,8.5a54.59,54.59,0,0,0,12,.12,2.54,2.54,0,0,0,1.47-.46s2.11-1.75,3.24-1.56c1.55.26,3.34,3.21,6.55,4.44,2.18,1.23,4.25-.9,6,.06,2.07,1.17,3.38,7.1,6.69,6.16a21.33,21.33,0,0,0,3.94-1.57c1.09-.89-.75-3.26-1.7-4.83-.34-.48-.57-.85-1-.94-3.85-1-2-5.38-7.54-6.42-2.48-.46-3.08-.67-5.57-1.13-.67-.13-2.19.2-2.28-.76,0,0,.41-.47.41-.47l4.41-.11-.1-.58c-7.07-.88-14-2.89-21-3.73a3.87,3.87,0,0,1-1.11-2.44c.21-1.3,2.25,1.1,3.29-1.44.61-1.48-.85-2.74.32-3.46,3.1.39,6.2.79,9.3,1.22-17.52-4.18-35.2-7.68-52.73-11.84-3.79-.9-7.68-1.5-11.42-2.66l.06-.42c15.46,2.17,30.76,5.9,46.28,7.55v-.37c-8.58-1.64-17.08-3.82-25.68-5.37-12.81-2.31-25.72-4.23-38.58-6.19-8.39-1.3-16.92-2.86-25.39-3.58l-.27.59a6.45,6.45,0,0,0,2.13,1.43.39.39,0,0,1-.06.53c-1.08-.11-5.9.2-5.9-1,1.79-1.7,2.23-2.58,4.83-2.34,4.05.37,8.13,1,12.18,1.49,23.25,3,46.67,6.1,69.77,10.1,24.36,4.22,37.25,6.11,57.27,10-6.8-2.44-37.47-11-53.13-13.73-.73-.13-1.66,0-2-.85m-38.75,24.71a2.28,2.28,0,0,0,.06-2,1.73,1.73,0,0,0-1-.63c-1.49.33-3,1-4.68.59-1.55,0-4-1.38-4.72.69-.27,1.33-1,2.45-1.33,3.72a2.11,2.11,0,0,0,1.27,1.65,9.19,9.19,0,0,0,3,.59c1.59-1.11,1.48-3.14,3.07-4.3.85.21,1,1.38,1.92,1.27a3.09,3.09,0,0,0,2.38-1.59m70.68-39.85a4.6,4.6,0,0,0,.16-4c-.61-1.26-2.49-1.63-3.67-2.06-1.49.32.16,1.61-1.12,2.17l-2.86-.36c-1.81-1.86,2-1.61,2.17-2.61.32-1.44-1-2.78-.15-4.2a1.46,1.46,0,0,0-.75-.86c-1.47-.53-10.3-2.64-11.52-2.54l-.37.42c.36.49,1.84,1.84,1.91,2,.59,1.07-3.38,1.82-4,2-3.18.66-11.66,1.68-10.42,6.69.59,2.35,9,8.34,10,10.95.22.56,1.33,1.73.59,2.23-1.56,1.06-9.36-.36-9.78.86.44,1.63,5.09,2.87,6.6,3.45,1.78.68,3.43,1.19,5.31.28a6.14,6.14,0,0,0,3.08-6.12,15.74,15.74,0,0,0-2-4.51c-.6-.82-5.74-4.88-4.3-5.42,1.74.55,4.1.06,5.32,1.7,3.23.91,6.68,1.48,10,2.07a5.68,5.68,0,0,0,5.79-2.07" transform="translate(-230.78 -269.53)" style="fill:#e21b4d"/><path d="M526.65,334.61l6.37,3V275.65H313.19v61.86l6.37-3V282H526.65ZM353.3,427.19l.14-.1,10.63-7.45,2.21,3.14-.13.1-10.64,7.45Zm-3.45,2.61,2,2.87-11.64,8.15a6.81,6.81,0,0,0-1.93,2.44l-.07.13,2.68,3.82.18-.37a5.53,5.53,0,0,1,1.71-2.35l10.55-7.38c1.53-1.07,2.18-2.1,2.07-3.29a3.36,3.36,0,0,0,1.25.26,3.76,3.76,0,0,0,2.13-.78l10-7a4.24,4.24,0,0,0,1-5.91l-4.72-6.75L333.1,436.06l2.57,3.68Zm19.33,14.71-2.66-2.3,8.37-9.71,2.66,2.29Zm-2.7,3.39-.11.12-8.48,9.84L355,455.36l8.58-10Zm3.5.23a3.24,3.24,0,0,0,3.14-1.33l8-9.27a4.24,4.24,0,0,0-.44-6l-6.24-5.39-25.54,29.64,6.24,5.38a4.24,4.24,0,0,0,6-.45l7.67-8.89c1.22-1.41,1.59-2.58,1.2-3.72m26.68,29.14-7.56-2.6,11.29-32.74-4.23-1.47-12.76,37,11.79,4.07Zm26.44-56.85a56.89,56.89,0,0,0,50.26-30.2l-.07,0c-1.12-.31-2.79-1-4.72-1.73l-.28-.12a55.38,55.38,0,0,1-21.19,21.34l-4.53-12.76-24.65.67-9.65,13.54a45.8,45.8,0,0,0,11.28,5.59,54.77,54.77,0,0,1-31.86-10.59,8,8,0,0,0,.82-.77s-6.67-9.61-10.76-16.95l-.11,0c-1.93.76-3.6,1.42-4.72,1.73l-.07,0a56.89,56.89,0,0,0,50.26,30.2m-5.23,60.23-7.94-.94L411.43,467l6,.7.53-4.46-6-.71,1.52-12.73,7.94.94.53-4.46-8.18-1a4.24,4.24,0,0,0-4.71,3.72l-3.61,30.42a4.24,4.24,0,0,0,3.71,4.71l8.19,1Zm16.9,3.81-3.39-39-4.47.38,3.39,39ZM446.54,460l-3.74-12.26,3.35-1L449.9,459Zm6.38,20.85-5.06-16.55,3.59-1.09a4.22,4.22,0,0,0,2.81-5.3l-3.88-12.73a4.26,4.26,0,0,0-5.3-2.82l-7.88,2.41,11.36,37.18.07.23Zm45.88-54.43,10.85,6.84-1.87,3-25.49-16.07,1.87-3,3.44,2.17,2.39-3.79-2.22-1.4a6.26,6.26,0,0,0-8.61,1.94,6.26,6.26,0,0,0,1.95,8.61l23.07,14.55a6.25,6.25,0,0,0,8.61-1.95,6.26,6.26,0,0,0-2-8.61l-13.43-8.47-3.31,5.26,3.79,2.39Zm-2.23,30.17,3.18-3.16-27.38-27.61-.17-.17L469,428.82l27.39,27.61Zm-73.47-150a56.75,56.75,0,0,0-18.33,3l10.82,8.55a131.81,131.81,0,0,1,25.09.28,28.53,28.53,0,0,0,3-6.65,55.33,55.33,0,0,1,27.65,29.43c1-.94,2-1.84,2.94-2.67a56.92,56.92,0,0,0-51.17-32m-3.58,48.16A179,179,0,0,0,405,335s-15.65,7-21.42,10l-.25,4.27a29.33,29.33,0,0,1,3,6.49l1.76,5.61.4,1.2c.39,1.15.93,2.57,1.58,4.05a37.05,37.05,0,0,0,2,4,11,11,0,0,0,2.23,2.7l.07.07a7.12,7.12,0,0,0,2.74,1.45c2.71.75,5.75,1.56,9.06,2.35,0,0,9.88-15.76,13.31-22.42M468.45,344a135.12,135.12,0,0,0-13.82-8,145.82,145.82,0,0,0-10.76,18.5c2.89,6,7.22,12.88,9.6,17.09,3.2-4.71,4.51-9.13,6.51-15.48,1.45-4.62,3.4-7.11,8.47-12.16m5.2,128.49,10.58-6.63L481.85,462l-6.63,4.16-9.49-29.84-2.28-3.66-10.58,6.64,2.39,3.8,6.62-4.15,9.5,29.84ZM375.19,338.35a155.27,155.27,0,0,1,8.1-15.51,57.24,57.24,0,0,0-11.37,15.73c.61.51,1.22,1,1.82,1.61l1.44-1.83M533,434.51V400.39h-6.37v34.12c0,12.12-1.4,15-4.23,19.9-21.56,32.24-58,49.86-99.32,49.86s-77.76-17.62-99.31-49.86c-2.82-4.93-4.23-7.78-4.23-19.9V400.33h-6.37v34.19c0,12.88,1.55,16.93,5.08,23.08l.23.37c23.55,35.22,62.66,52.69,104.6,52.69S504.16,493.17,527.71,458l.23-.37c3.52-6.15,5.07-10.19,5.07-23.08" transform="translate(-230.78 -269.53)" style="fill:#001a4b"/></svg>