<?xml version="1.0" encoding="UTF-8"?><svg id="Layer_1" xmlns="http://www.w3.org/2000/svg" viewBox="0 0 104.56 104.63"><defs><style>.cls-1{fill:#624839;}.cls-2{fill:#fff;}.cls-3{fill:#e30613;}</style></defs><path class="cls-1" d="M0,52.24C0,23.38,23.38,0,52.24,0s52.32,23.38,52.32,52.32-23.38,52.32-52.32,52.32S0,81.1,0,52.24Z"/><path class="cls-2" d="M2.33,52.24C2.33,24.65,24.65,2.33,52.24,2.33s49.91,22.32,49.91,49.91-22.32,49.91-49.91,49.91c-27.59.08-49.91-22.32-49.91-49.91Z"/><path class="cls-3" d="M21.42,52.24c0-17.06,13.83-30.82,30.82-30.82s30.82,13.83,30.82,30.82-13.83,30.82-30.82,30.82c-16.99.08-30.82-13.76-30.82-30.82Z"/><polygon class="cls-1" points="19.99 69.38 17.74 69.38 16.61 67.42 15.48 69.38 13.3 69.38 14.43 71.26 13.3 73.21 15.56 73.21 16.69 75.09 17.81 73.21 19.99 73.21 18.87 71.26 19.99 69.38"/><polygon class="cls-1" points="91.4 69.38 89.15 69.38 88.02 67.42 86.89 69.38 84.71 69.38 85.84 71.26 84.71 73.21 86.89 73.21 88.02 75.09 89.15 73.21 91.4 73.21 90.27 71.26 91.4 69.38"/><path class="cls-1" d="M59.68,10.07c-.08.9-.75,1.35-1.73,1.2l.23-2.78h.3c.83.08,1.28.83,1.2,1.58ZM58.1,5.86l-3.31-.3-1.05,12.18,3.61.3.38-3.98c3.16.38,5.34-.45,5.64-3.61.23-3.16-2.1-4.36-5.26-4.59Z"/><path class="cls-1" d="M68.7,17.29l1.73-2.33c.45-.6.9-1.28,1.35-1.88-.23.75-.53,1.43-.75,2.18l-.9,2.71-1.43-.68ZM72.23,23.68l2.93-12.25-3.98-1.95-8.42,9.55,3.38,1.65.98-1.28,2.18,1.13-.45,1.5,3.38,1.65Z"/><polygon class="cls-1" points="18.42 45.48 13.83 44.72 14.28 42.09 11.43 41.64 10.97 44.2 9.25 43.9 9.7 41.12 6.84 40.66 5.71 46.98 17.81 49.08 18.42 45.48"/><path class="cls-1" d="M11.73,29.01c-.45.45-.83.98-1.13,1.5-.83,1.58-1.88,5.71,3.01,8.19,3.76,1.88,6.69.6,8.04-2.1.38-.75.53-1.35.6-2.18l-2.93-1.73c.15.75.23,1.35-.15,2.1-.83,1.65-2.63,1.2-3.91.53-1.2-.6-2.71-1.88-1.8-3.61.38-.68.75-.9,1.43-1.2l-3.16-1.5Z"/><polygon class="cls-1" points="85.09 41.57 87.72 40.36 86.59 37.88 95.16 34.05 93.66 30.74 82.53 35.7 85.09 41.57"/><path class="cls-1" d="M87.04,21.05l-5.64,5.26c-.23.23-.53.53-.83.68s-.68.15-.98-.23c-.38-.38-.3-.68-.15-1.05.15-.3.45-.6.75-.83l5.64-5.26-2.48-2.63-5.86,5.49c-1.05.98-3.01,3.31-.15,6.39,2.86,3.08,5.26,1.35,6.39.3l5.86-5.49-2.56-2.63Z"/><path class="cls-1" d="M44.65,18.87c1.05-.38,1.65-1.43,1.35-2.41-.38-1.05-1.5-1.5-2.63-1.05-.98.38-1.58,1.43-1.28,2.41.38.9,1.5,1.43,2.56,1.05Z"/><polygon class="cls-1" points="39.69 20.14 35.78 11.73 37.73 10.82 36.46 8.12 29.46 11.43 30.67 14.13 32.55 13.3 36.46 21.65 39.69 20.14"/><path class="cls-1" d="M27.59,27.44c.9-.3,1.73-.75,2.41-1.35,1.95-1.65,2.1-4.13.68-5.86-.6-.68-1.2-1.05-1.88-1.2s-1.43-.15-2.33,0c-.23,0-.53.08-.83.08s-.53-.08-.68-.3c-.3-.38-.08-.9.23-1.2.68-.53,1.28-.75,2.1-.9l-2.03-2.33c-.83.23-1.73.6-2.41,1.2-2.41,2.03-1.5,4.66-.53,5.71.6.68,1.2,1.05,1.95,1.2.75.15,1.5.08,2.41,0,.3,0,.53-.08.75,0,.23,0,.45.15.68.38.38.38.08.98-.3,1.28-.68.6-1.2.75-2.25.83l2.03,2.48Z"/><polygon class="cls-1" points="86.52 49.08 98.69 47.43 98.17 43.82 86.06 45.48 86.52 49.08"/><path class="cls-1" d="M65.62,87.19c1.05-.38,1.8,1.65,2.25,2.93.45,1.28,1.05,3.31,0,3.68-1.05.38-1.8-1.65-2.25-2.93-.45-1.28-1.05-3.31,0-3.68ZM64.64,84.56c-3.53,1.2-3.31,4.96-2.48,7.52.9,2.56,3.01,5.64,6.54,4.43,3.53-1.2,3.31-4.96,2.48-7.52-.83-2.56-3.01-5.64-6.54-4.43Z"/><polygon class="cls-1" points="35.7 96.36 40.51 85.09 36.53 83.36 34.73 85.69 36 86.29 32.32 94.93 35.7 96.36"/><polygon class="cls-1" points="59.08 98.77 57.8 86.59 53.52 87.04 53.07 89.9 54.49 89.82 55.47 99.14 59.08 98.77"/><path class="cls-1" d="M41.72,98.02l3.53.68,1.8-1.8c1.28-1.43,3.08-3.53,3.53-5.41.53-2.41-.6-4.66-3.38-5.26-2.86-.6-5.04.83-5.56,3.38-.38,1.65.3,4.06,2.41,4.51.53.08.9.08,1.28-.08l-3.61,3.98ZM46.38,88.85c1.2.23,1.05,1.28.9,1.8-.15.53-.45,1.43-1.58,1.2-1.05-.23-1.13-1.13-.98-1.65.15-.6.53-1.58,1.65-1.35Z"/><polygon class="cls-2" points="68.78 32.25 66.52 32.25 65.39 30.29 64.27 32.25 62.09 32.25 63.14 34.2 62.09 36.08 64.27 36.08 65.39 38.03 66.52 36.08 68.7 36.08 67.65 34.2 68.78 32.25"/><path class="cls-2" d="M52.99,33.67c2.41.15,4.13,1.95,4.36,4.36h-10c.15-2.41,1.95-4.21,4.36-4.36v-4.66h-3.01v-1.35h3.01v-3.98h1.35v3.98h3.01v1.35h-3.01v4.66h-.08Z"/><rect class="cls-2" x="33.6" y="39.39" width="11.35" height="1.95"/><rect class="cls-2" x="46.68" y="39.39" width="11.35" height="1.95"/><rect class="cls-2" x="59.68" y="39.39" width="11.43" height="1.95"/><rect class="cls-2" x="33.6" y="52.09" width="37.51" height="2.03"/><rect class="cls-2" x="33.6" y="63.14" width="10.07" height="2.03"/><rect class="cls-2" x="61.03" y="63.14" width="10.07" height="2.03"/><path class="cls-2" d="M34.95,42.92c.98-.3,2.56-.75,3.76-.08.6.38.23.9,0,1.43-.68.45-1.13.68-1.95.68-.75,0-1.2-.15-1.8-.6-.23-.53-.6-1.2,0-1.43Z"/><path class="cls-2" d="M40.29,44.57s-.38-1.13,0-1.58c.45-.53,1.13-.08,1.73-.08.45,0,.68.08,1.13,0,0,0,.3,1.13,0,1.73-.53.9-2.86-.08-2.86-.08Z"/><path class="cls-2" d="M35.55,45.78c-.38.45-.53.53-.6,1.28,0,.75.23,1.2.75,1.2h.45v-1.43c0-.53-.15-.98-.6-1.05Z"/><path class="cls-2" d="M48.11,45.78c-.08.45-.08.83-.08,1.28s0,1.05.45,1.05c.83.08.75-1.2.75-1.8,0-.45-.6-.45-1.13-.53Z"/><path class="cls-2" d="M47.58,43.3c0,.3.45.75.68.98.45.38.83.3,1.35.3.3,0,.68-.08,1.05-.08.68,0,1.13-.53,1.13-1.2,0-.6-.9-.83-1.5-.83h-1.43c-.6.08-1.28.08-1.28.83Z"/><path class="cls-2" d="M52.92,44.5c.23.23.45.15.75.15h.98c.53,0,.9.08,1.35-.3.38-.3.15-.6.15-1.13,0-.45-.98-.68-1.65-.68-.6,0-1.05-.08-1.43.45-.38.45-.15,1.5-.15,1.5Z"/><path class="cls-2" d="M37.13,46.38c0,.38-.15.83-.15,1.2,0,.45.98.6,1.43.6.75.08,1.2.08,1.95.08.6,0,1.13-.45,1.13-1.05,0-.45.08-.83-.15-1.13-.38-.45-.83-.45-1.43-.45-.98-.15-2.48-.23-2.78.75Z"/><path class="cls-2" d="M50.21,46.38c-.15.45-.08.83.23,1.28.45.6.9.6,1.88.6s2.41-.45,2.25-1.8c-.08-.38-.9-.53-1.35-.68-.08,0-2.71-.53-3.01.6Z"/><path class="cls-2" d="M55.32,47.05c0,.53-.15,1.2.53,1.2.6,0,.68-.3.68-.83,0-.45.53-1.65-.23-1.73-.3-.08-.53.08-.75.3-.3.3-.23.68-.23,1.05Z"/><path class="cls-2" d="M60.66,43.67c0,.98.83,1.43,2.41,1.35.9-.08,1.88.08,1.73-1.65,0-.15.15-.38,0-.45-1.13-.83-1.2,0-2.03,0-.83-.08-2.1-.08-2.1.75Z"/><path class="cls-2" d="M66.37,43.37v.68c0,.6.38,1.35.98,1.35.23,0,.6-.08.9-.08.9,0,1.43-.75,1.43-1.65,0-.45-.6-.75-1.05-.9l-1.35.15-.75.08c-.15.08-.15.23-.15.38Z"/><path class="cls-2" d="M61.64,45.7c-.6.53-.68.68-.68,1.5,0,.15.08.83.08.9.15,0,.38.08.53.08.53,0,.68-.68.68-1.2s-.15-.98-.6-1.28Z"/><path class="cls-2" d="M63.06,46.98c0,.15.23.53.53.83.53.45,1.13.38,1.73.38.68,0,1.65-.3,1.65-1.28.08-.75-1.43-1.13-2.1-1.13-.68-.08-1.95.23-1.8,1.2Z"/><path class="cls-2" d="M66.3,49.76c0,.83.9,1.2,1.8,1.2.38,0,.53-.3.9-.45.3-.15.6-.38.6-.68,0-.6-.6-.9-1.2-.9-.9-.08-2.1-.08-2.1.83Z"/><path class="cls-2" d="M64.19,50.96c.53-.38,1.05-1.2.6-1.58-.3-.23-.83,0-1.05,0-.38,0-.6-.23-1.05-.23-.6,0-1.28-.23-1.58.3-.15.23-.15.45-.15.53,0,.45,0,.68.23,1.05.45.53,1.13,0,1.8,0,.45.08.83.23,1.2-.08Z"/><path class="cls-2" d="M55.85,50.96c-.45.08-.75.15-1.13.15-.68,0-1.05-.15-1.58-.45-.15-.08-.15-.23-.15-.53,0-.75,1.35-.98,2.03-.98s1.2.23,1.2.9c0,.38-.15.6-.38.9Z"/><path class="cls-2" d="M50.29,49.31h-1.13c-.53,0-1.5,0-1.5.6,0,.75.68.75,1.43.75h1.43c.68,0,1.28-.15,1.28-.83,0-.3-.38-.53-.68-.53-.45.08-.53,0-.83,0Z"/><path class="cls-2" d="M41.94,51.11h-1.58c0-.23-.45-.38-.45-.6s.23-.45.38-.68c.75-.83,1.8.08,2.86.08v.6c0,.23-.3.38-.45.45-.38.15-.3.15-.75.15Z"/><path class="cls-2" d="M38.03,50.96c-1.28,0-1.43.15-2.63,0,0-.08-.38-.6-.38-.83,0-.75.45-.75,1.2-.75.9,0,2.48-.53,2.48.45-.08.45-.3,1.13-.68,1.13Z"/><path class="cls-2" d="M34.88,56.3c.08.9,1.28.53,2.18.53.68,0,1.13.23,1.8,0,.53-.15.6-.68.6-1.2,0-.23-.45-.38-.68-.45-.75-.08-.9.08-1.58-.3-.68-.45-2.41.3-2.33,1.43Z"/><path class="cls-2" d="M41.12,55.17c-.6.45,0,1.58.83,1.58h3.53c.68,0,1.43-.3,1.35-1.2-.08-.53-.83-.45-1.35-.45-.9,0-1.43.08-2.33.08h-.9c-.53,0-.83-.3-1.13,0Z"/><path class="cls-2" d="M34.88,58.1c-.53.3.08.98.08,1.5,0,.6.45.53.75.53.45,0,.9-.23.9-.68,0-.75-.3-1.5-1.13-1.5-.15,0-.38,0-.6.15Z"/><path class="cls-2" d="M43.14,58.93c0,.45.38.75.83.75.68,0,1.13-.75,1.2-1.58-.38-.38-.98-.08-1.58-.08-.38.08-.45.53-.45.9Z"/><path class="cls-2" d="M40.29,61.49c0,.45.38.68.83.68.6,0,1.35.23,1.88-.23.3-.23.3-.6.3-1.05,0-.15,0-.23-.23-.3-.08,0-.6-.08-.68-.08-1.05-.08-2.1-.15-2.1.98Z"/><path class="cls-2" d="M39.69,57.73c-.45,0-.6.3-1.05.3-.53,0-1.35-.15-1.28.75.08.9.6,1.35,2.1,1.35,1.28,0,2.25-.45,2.25-1.5,0-.83-1.2-.98-2.03-.9Z"/><path class="cls-2" d="M57.43,55.17c1.05-1.05,3.91,0,6.46,0,.45,0,1.05.53,1.05.98,0,.6-.98.68-1.58.68h-4.59c-.9,0-1.58-.23-1.35-1.43.08-.08-.08-.15,0-.23Z"/><path class="cls-2" d="M66.37,55.17v.98c0,.38-.23.68.68.6h2.03c.53,0,.6-.75.6-1.28,0-.23-.3-.3-.53-.3-.45-.08-.68-.15-1.2-.15-.6,0-.98.15-1.58.15Z"/><path class="cls-2" d="M59.83,58.48c.15.9.83,1.58,1.73,1.58.75,0,.98-.9,1.2-1.58,0,0-.83-.6-1.43-.6s-1.5.6-1.5.6Z"/><path class="cls-2" d="M63.89,58.03c-.3.23-.38.45-.38.83s0,.83.3,1.2c.6.75,1.43,0,2.41,0,.68,0,.98-.6.9-1.58-.08-.53-.83-.45-1.35-.45h-.83c.08,0-.68-.23-1.05,0Z"/><path class="cls-2" d="M68.48,58.55v.9c0,.38.53.6.98.6h.38s.53-.83.3-1.35c-.15-.38-.6-.68-.75-.68-.45,0-.68.3-.9.53Z"/><path class="cls-2" d="M69.6,60.88h-1.73c-.75,0-1.8-.08-1.8.6,0,.3.3.6.6.75.3.15.3.23.68.23.45,0,.98.08,1.35-.08.3-.08.68-.15.9-.38s.08-.75,0-1.13Z"/><path class="cls-2" d="M66.37,66.22c-.38.38,0,1.05.3,1.43.3.38.75.15,1.2.15.3,0,.53.08.83.08.98,0,.9-.9.9-1.58,0-.15-2.41-.83-3.23-.08Z"/><path class="cls-2" d="M62.76,67.8c-.53,0-.83-.08-1.13-.45-.15-.23-.38-.68-.38-.9v-.3c.08,0,.15-.08.23-.08.68,0,.98-.08,1.65-.08.45,0,.9.23,1.35.23.23,0,.6.38.6.6,0,1.13-1.05,1.05-2.33.98Z"/><path class="cls-2" d="M61.64,68.63c-.3.45-.53.83-.53,1.35,0,.38-.15.75,1.05.6.3-.08.75.15.75-.53,0-.6-.53-1.5-1.28-1.43Z"/><path class="cls-2" d="M63.59,69.68c0,.53.15,1.05,1.05.98h1.28s.68,0,1.05-.15c.3-.15.68-.38.68-.75s-.38-.53-.6-.83c-.23-.38-1.28-.45-1.95-.45-.75.08-1.5.53-1.5,1.2Z"/><path class="cls-2" d="M68.63,68.7s-.6.9-.38,1.43c.15.3.68.53.83.53.38,0,.75-.23.75-.53.08-1.28-.45-1.58-1.2-1.43Z"/><path class="cls-2" d="M61.18,72.31v.23c0,.38-.08.6.08.9.38.68,1.2.45,1.95.45.68,0,1.65.23,1.65-.45,0-.45.08-.83-.15-1.2-.3-.45-.9-.23-1.43-.3-1.28-.15-1.35.08-2.1.38Z"/><path class="cls-2" d="M66.37,71.93c-.08.53-.38.75-.38,1.28s.53.83,1.28.68c.53-.08.9.15,1.35-.15.53-.45.6-.98.75-1.65-.23-.08-.53-.23-.75-.23s-.38.08-.6.08c-.68,0-.98-.08-1.65,0Z"/><path class="cls-2" d="M64.79,74.86c-.68.3-1.2.45-1.2,1.13,0,.53.68.45,1.2.45.83,0,1.88-.45,1.65-1.35-.08-.3-.38-.38-.68-.38-.45,0-.6.08-.98.15Z"/><path class="cls-2" d="M61.11,75.84c0,.68,0,1.5.83,1.5.53.08.83-.68.83-1.28,0-.3-.15-.45-.15-.75-.23-.3-.53-.75-.9-.53-.38.23-.6.6-.6,1.05Z"/><path class="cls-2" d="M38.71,74.79c-.6,0-1.35.08-1.35.68,0,.83.9,1.13,2.18.98.45,0,1.13.23,1.13-.38.08-.9-1.13-1.28-1.95-1.28Z"/><path class="cls-2" d="M41.87,71.48c-.3.23-1.13.38-1.5.45-.38.08-.53.38-.53.83v1.05c.3.3.68.15,1.05.15s.68.08,1.13.08.83-.23.9-.68c.3-.9,0-1.5-1.05-1.88Z"/><path class="cls-2" d="M36.15,73.89c-.38,0-.83.15-.98-.23-.23-.45-.15-.83-.15-1.35v-.38h3.16c.38,0,.83.3.83.68,0,.68-.45,1.35-1.2,1.35-.6,0-1.05-.08-1.65-.08Z"/><path class="cls-2" d="M38.56,68.7c-.45,0-.75.6-.75,1.05,0,.38-.23.75.08.98,1.28.98,4.89.08,4.89.08.15-.38.3-.75.3-1.2,0-.83-1.05-.9-1.88-.9h-2.63Z"/><path class="cls-2" d="M34.88,70.73c0-.45-.38-.9-.38-1.35,0-.38.53-.6.9-.68,1.13-.15,1.5,1.5.83,2.03-.45.3-1.35,0-1.35,0Z"/><path class="cls-2" d="M36.53,67.87c-1.05,0-1.58-.45-1.58-1.28,0-.45.3-.83,1.05-.75s1.2,0,1.95,0c.53,0,.75.68.75,1.2-.08.75-.75.83-2.18.83Z"/><path class="cls-2" d="M42.17,65.77h-.75c-.98,0-1.5,0-1.5.6,0,.3,0,.68.23.98.6,0,.83.53,1.43.53.53,0,1.28-.3,1.2-1.2,0-.45-.23-.9-.6-.9Z"/><path class="cls-2" d="M42.24,74.71c-.45.08-.38.83-.45,1.28,0,.98-.08,1.28.45,1.28.23,0,.68-.15.68-.6s.23-.6.23-1.05c.08-.38-.3-.83-.9-.9Z"/><path class="cls-2" d="M69.23,47.81h-.83c-.38,0-.45-.53-.45-.9,0-.3-.15-.53,0-.75.3-.6,1.8,0,1.8,0v.75c-.08.3-.38.68-.53.9Z"/><polygon class="cls-2" points="42.62 32.25 40.36 32.25 39.24 30.29 38.18 32.25 35.93 32.25 37.06 34.2 35.93 36.08 38.18 36.08 39.31 38.03 40.44 36.08 42.62 36.08 41.49 34.2 42.62 32.25"/><path class="cls-2" d="M48.33,62.91v16.39c.98.53,1.95.68,3.38.68v-20.75c-1.88,0-3.38,1.65-3.38,3.68Z"/><path class="cls-2" d="M56.37,62.91c0-2.1-1.43-3.76-3.31-3.76v20.75c1.2,0,2.33-.08,3.31-.68v-16.31Z"/><path class="cls-2" d="M46.98,78.7v-15.78c0-2.86,2.33-5.11,5.34-5.11s5.34,2.25,5.34,5.11v15.78c.6-.15,1.13-.38,1.65-.75v-15.18c0-3.76-3.01-6.69-6.99-6.69s-6.99,2.93-6.99,6.69v15.18c.6.38,1.13.6,1.65.75Z"/><path class="cls-2" d="M42.17,47.35c0,.15.23.53.23.68,0,.08.3,0,.38,0,.23,0,.45-.23.45-.45,0-.53.45-1.05.15-1.8-.15-.38-.75-.23-1.13,0-.15.53-.08,1.05-.08,1.58Z"/><path class="cls-2" d="M34.5,61.94c0,.45,1.2.38,1.73.38.9.08.75-.23,1.73-.23.23,0,1.13.08,1.13-.23,0-.68-.45-.98-1.5-1.05-2.18,0-2.63.3-3.08,1.13Z"/><path class="cls-2" d="M65.17,61.41c-.38-.68-1.05-.53-1.73-.53-.38,0-.83.08-1.2.08s-.75.23-.75.53.23.45.53.6c.3.23,3.08.08,3.16-.68Z"/></svg>