<svg id="Layer_1" data-name="Layer 1" xmlns="http://www.w3.org/2000/svg" viewBox="0 0 54.51 60.85"><title>VfB Stuttgart logo - Brandlogos.net</title><path d="M343.32,287h0v2.94c0,2.41,0,5.12.08,8,.07,4.9.37,10.54,1.81,15.52a53.42,53.42,0,0,0,7.68,16.64,76.49,76.49,0,0,0,17,17.24l.68.52.67-.52a76.55,76.55,0,0,0,17-17.24A55.21,55.21,0,0,0,396,313.42a64.68,64.68,0,0,0,1.81-15.52V287H343.32Z" transform="translate(-343.32 -286.99)" style="fill:#fefefe"/><path d="M370.59,346.41h0a75.66,75.66,0,0,1-16.79-17,53.38,53.38,0,0,1-7.61-16.26,68.83,68.83,0,0,1-1.73-15.29c-.08-3.54-.08-6.86-.08-9.72h52.4c-.07,2.86,0,6.17-.07,9.72A64.39,64.39,0,0,1,395,313.12a53.34,53.34,0,0,1-7.6,16.26A74.39,74.39,0,0,1,370.59,346.41Z" transform="translate(-343.32 -286.99)" style="fill:#d9162f"/><path d="M345.51,289.17h0c.22,13.85-2.94,34.64,25.07,55.95,28-21.31,24.84-42.1,25.07-55.95Z" transform="translate(-343.32 -286.99)" style="fill:#fefefe"/><path d="M381.2,317.49h0l.75-.15a.68.68,0,0,0,.15.45.63.63,0,0,0,.38.15.58.58,0,0,0,.37-.15,1,1,0,0,0,.15-.53,1,1,0,0,0-.15-.45.58.58,0,0,0-.37-.15c-.08,0-.23.08-.3.08l.07-.6a1.14,1.14,0,0,0,.45-.15.57.57,0,0,0,.15-.38.57.57,0,0,0-.15-.3c-.07-.07-.15-.07-.3-.07a.49.49,0,0,0-.3.07.86.86,0,0,0-.15.45l-.67-.15a.57.57,0,0,1,.22-.52,1,1,0,0,1,.38-.38,1.55,1.55,0,0,1,.6-.07,1.09,1.09,0,0,1,.82.3.89.89,0,0,1,.3.67,1.06,1.06,0,0,1-.6.83.92.92,0,0,1,.6.3,1.33,1.33,0,0,1,.15.6.94.94,0,0,1-.37.82,1.25,1.25,0,0,1-.9.38,1.21,1.21,0,0,1-.9-.3A1.46,1.46,0,0,1,381.2,317.49ZM379.92,316h0a1.47,1.47,0,0,0-.15-.6.76.76,0,0,0-.38-.15c-.15,0-.3,0-.37.15a.83.83,0,0,0-.15.52.86.86,0,0,0,.15.53c.15.15.22.22.37.22a.42.42,0,0,0,.38-.22A.68.68,0,0,0,379.92,316Zm-1.66,1.58h0l.67-.07a.58.58,0,0,0,.15.37c.08,0,.15.08.3.08a.43.43,0,0,0,.38-.23c.15-.15.15-.45.22-.82a1.34,1.34,0,0,1-.67.3,1.17,1.17,0,0,1-1.13-1.28,1.54,1.54,0,0,1,.3-1,1.19,1.19,0,0,1,.9-.3,1.22,1.22,0,0,1,1,.45,2.46,2.46,0,0,1,.37,1.51,2.64,2.64,0,0,1-.37,1.51,1.37,1.37,0,0,1-1.05.45,1.26,1.26,0,0,1-.75-.23A1,1,0,0,1,378.26,317.56Zm-17.32-.22h0a.55.55,0,0,0,.15.45.56.56,0,0,0,.76,0,.86.86,0,0,0,.15-.45.64.64,0,0,0-.15-.45c-.08-.15-.23-.15-.38-.15s-.3,0-.38.15A.55.55,0,0,0,360.94,317.34Zm.08-1.66h0a.49.49,0,0,0,.07.3.63.63,0,0,0,.38.15.4.4,0,0,0,.3-.15.57.57,0,0,0,.15-.38.57.57,0,0,0-.15-.3.4.4,0,0,0-.3-.15.63.63,0,0,0-.38.15A.62.62,0,0,0,361,315.68Zm-.15.67h0a.65.65,0,0,1-.45-.3,1,1,0,0,1-.15-.45,1.35,1.35,0,0,1,.3-.75,1.58,1.58,0,0,1,.9-.22,1.37,1.37,0,0,1,.83.22,1,1,0,0,1,.3.75.55.55,0,0,1-.15.45.76.76,0,0,1-.38.3,3,3,0,0,1,.53.38,1.83,1.83,0,0,1,.15.6,1.25,1.25,0,0,1-.38.9,1.21,1.21,0,0,1-.9.3,1.17,1.17,0,0,1-.83-.3,1,1,0,0,1-.45-.9,1.52,1.52,0,0,1,.15-.53C360.42,316.58,360.64,316.5,360.87,316.35Zm-1.81,2.11h-.68v-2.78a4.53,4.53,0,0,1-1,.6v-.68a6.29,6.29,0,0,0,.6-.37,1.78,1.78,0,0,0,.45-.6h.6Z" transform="translate(-343.32 -286.99)" style="fill:#d9162f"/><path d="M384.21,291.5h0a6.61,6.61,0,0,0-5.72.08,4.76,4.76,0,0,0-2.33,4.45,4.47,4.47,0,0,1-.3,1.27c-.75,1.13-1.89,2.26-3.16,2.19a10.77,10.77,0,0,0-1.74-3.76,3.8,3.8,0,0,1,2.41,1.51,5.67,5.67,0,0,0,1.28-3.84,9.59,9.59,0,0,1-3.76-.83,5.8,5.8,0,0,1-2.56,3.39,7.91,7.91,0,0,1,1,3.91,4.28,4.28,0,0,1-2.63.75c-.6-1-1.44-1.73-1.44-2.93s1.2-3.09,2.56-4.23l-.67-.9a6.1,6.1,0,0,0-2.19,1.44h-.07c-.75-1.13-2-3.16-4-3.61a5.59,5.59,0,0,0-1.81,2.56,6.57,6.57,0,0,0-4.45,3.16,2.81,2.81,0,0,1-1.2-2c-.15-2.11,2.64-1.73,4.07-1.12v-1.59a6.76,6.76,0,0,0-5.79.08,5,5,0,0,0-2.34,4.45c0,1.43-.9,2.56-2.71,3.16.75.37,1.89.15,3.39-.3a4.8,4.8,0,0,1-3.39,1.88,7.31,7.31,0,0,0,4.52-.22c-.45.9-1.81,1.66-4.37,2,2.19.75,3.31.52,5.65-.15,3.23-1,5.34,1.66,1.58,2.56a5.26,5.26,0,0,1-3.23-.68l-1.05,1.35a14.72,14.72,0,0,0,5.27,1.36c3.68-.07,5.19-3,4.29-5.94-.6-1.89-2.26-3-3.68-4,1.27-1.73,5.72-3.69,7.31.3a11.89,11.89,0,0,0-1,4.75c.15,2.41,2.56,4.59,1.05,5.79a10.89,10.89,0,0,1-2.11.9c-3.24-.22-5.2-1.88-7.68-2-1.81-.15-3.31.08-4.22,1.44a3.47,3.47,0,0,0,2.78,5.35,5.4,5.4,0,0,1,.53-2.26c-.9,0-2.86.15-2.86-1.13,0-.68.52-.9,1.2-.9,3.23-.08,6,4.15,9.86,4.45,0-1.89,2.87-4.15,5-2.64a3.29,3.29,0,0,0,.22-3.91,6.22,6.22,0,0,0,1.66-4.22,4.28,4.28,0,0,0-.07-1,7.18,7.18,0,0,0,2-.67v13.63a1.82,1.82,0,0,0,1.36-.68v-2.18a3.67,3.67,0,0,0,2-.68V300.7a6.07,6.07,0,0,0,4.14-2h0a3.71,3.71,0,0,1-3.08,2.78,4.86,4.86,0,0,0,4.22-1,4.84,4.84,0,0,1-4.07,2.63c2.26.75,3.16,0,5.49-.67,3.24-1,5.12,1.51,1.36,2.41a5.8,5.8,0,0,1-3.16-.68l-1.05,1.36a14.44,14.44,0,0,0,5.2,1.35c3.61-.07,5.12-2.86,4.37-5.72,3.24.23,5.8,5.57,3.16,7a4.43,4.43,0,0,1-3.09.22c-2.41-.52-4.14-1.58-6.17-1.66-1.88-.15-3.31,0-4.29,1.44a3.5,3.5,0,0,0,2.86,5.35,4.51,4.51,0,0,1,.52-2.26c-.9,0-2.93.15-2.93-1.13,0-.68.6-.9,1.2-.9,3.23-.08,6.09,4.15,9.94,4.45,0-2,2.79-4.15,5-2.64a3.51,3.51,0,0,0,.15-4.07,6.41,6.41,0,0,0,1.74-4.37c-.23-2.26-2.19-2.94-2.19-4.82,0-1.28,1.28-3.09,2.56-4.3l-.6-.83a7.06,7.06,0,0,0-2.26,1.35c-.75-1.12-2.11-3.08-4-3.53a6.46,6.46,0,0,0-1.89,2.48,6.81,6.81,0,0,0-4.37,3.17c-.83-.68-1.89-2.12-.83-3.09.75-.83,2.64-.53,3.61,0Zm1.28,7.91h0a9.42,9.42,0,0,0-3.24-2.78,6.21,6.21,0,0,1,4.37-2.12c2.42.08,4.38,2.94,2,4.68C388.13,299.56,387.23,299.56,385.49,299.41Z" transform="translate(-343.32 -286.99)" style="fill:#d9162f"/><path d="M370.59,343.77h0c-9.8-7.46-15.59-14.83-19.13-22,9-.3,15-2.86,19.13-6a31.77,31.77,0,0,0,19.12,6C386.16,328.93,380.37,336.31,370.59,343.77Z" transform="translate(-343.32 -286.99)"/><path d="M370.59,342.49h0c-8.88-6.79-13.93-13.18-17.17-19.58,6.62-.6,12.66-2.41,17.17-5.72,4.52,3.31,10.54,5.12,17.16,5.64C384.51,329.31,379.47,335.71,370.59,342.49Z" transform="translate(-343.32 -286.99)" style="fill:#fcdc04"/><path d="M367.19,334.8h0c.3-.07.6-.07.9-.15a2.19,2.19,0,0,1,2-3.31c-1.2,1.2-1.2,2.49-.3,3.16a8.75,8.75,0,0,1,1.35-.07c-1.05-1.66.08-3,1.74-3.16a2.16,2.16,0,0,0-.23,3.08H374a1.94,1.94,0,0,1,2-2.71c-.67.6-1.27,2-.37,2.86a12.46,12.46,0,0,1,1.58.3,1.94,1.94,0,0,1,.9.83c-5.72-.68-6.54-.45-10.84.22-1.73.9-2.56,1.13-3.38.3-.15-.15,0-.75.6-.9a.59.59,0,0,1,.52-.67C365.77,334.35,366.22,335,367.19,334.8Zm-2.63-5h0a4.67,4.67,0,0,1,1-.15,2.23,2.23,0,0,1,1.89-3.53c-1.2,1.36-1.05,2.56-.08,3.31.6,0,1.28-.08,1.89-.08-1.28-1.58.22-3.31,2-3.53-.83.9-1.36,2.41-.3,3.46h1.73c-.9-1.74.68-3.09,2.11-3.16-.75.75-1.35,2.18-.45,3.16.6,0,1.28.07,1.81.07-.52-1.12.23-2.11,1.74-2.41a2.05,2.05,0,0,0-.38,2.56,18.93,18.93,0,0,1,2.49.68,6.41,6.41,0,0,1,1.43.9,56.51,56.51,0,0,0-16.78-.08c-1.81,1.05-2.71,1.28-3.62.38a.74.74,0,0,1,.6-1c0-.82.68-.9,1.37-.9A1.51,1.51,0,0,0,364.56,329.83Zm-2.19-4.75h0a12.08,12.08,0,0,0,1.51-.3,2.78,2.78,0,0,1,2.64-4.29c-1.66,1.51-1.74,3.08-.6,4,.82-.07,1.36-.22,2.18-.22a2.68,2.68,0,0,1,2.34-4.15c-1.13,1.05-1.59,3-.3,4.15a19.74,19.74,0,0,1,2.18-.08c-.82-2,.75-4.22,2.94-3.53a2.32,2.32,0,0,0-.83,3.61c.75,0,1.51.07,2.26.07-.52-1.58.38-3.23,2.49-2.63-1,.67-1.66,1.81-.83,2.78,1,.15,2.19.38,3.09.53.82.37,1.58,1.05,2,1.2-8-1.05-15.59-.9-20.86.15-2.26,1.13-3.54,1.35-4.67.38a.88.88,0,0,1,.75-1.13c0-.9.82-1,1.66-1A2,2,0,0,0,362.38,325.09Z" transform="translate(-343.32 -286.99)"/></svg>