<svg xmlns="http://www.w3.org/2000/svg" viewBox="0 0 187 65.47"><title>Union Berlin logo</title><path d="M593.7,501.35H514.76v35.3h88.93l-10-35.3Z" transform="translate(-418.5 -479.26)" style="fill:#fff"/><path d="M557.09,490.19H456.6l2.52,9.33h17c13.67-12.92,32.74-7.93,40.12.4h78.6l10.68,38H514.65q-.86.74-1.77,1.41h0c-10.4,7.61-24.38,6.75-33.92,0h3.65a27.18,27.18,0,0,0,26.56,0h0a18.33,18.33,0,0,0,2.45-1.72c-.57-2.07-1.12-4.17-1.7-6.28-3.67,3.4-11,7.26-21.26,2.69-9-4.62-15.17-18.14-3.24-29.09,4.49-3.76,11-5.14,16-3.62q-.39-1.51-.76-3l-.21-.87q-.37-1.52-.76-3c-11.9-1.52-23.13,4.07-28,15.8-3.07,7.59-1.9,19.95,9,27.94q.9.64,1.85,1.19H479c-8.43-6-13.39-16.54-9.35-29.95h-7.81l7.79,28.68h-26.5l-13.4-48.27h-8.24l-2.94-10.54H554.2ZM454.18,536h3.42c-.22-.79-.45-1.62-.67-2.45a7.62,7.62,0,0,1-3.14,1.09Zm-17.62-54.63H421.34l1.77,6.36h8.23L444.78,536h7.14c-.15-.5-.3-1-.45-1.57-5.07-1.57-6-7.07-2.87-10.21Zm115.91,0H444.55L456.25,523c3.19,1.76,4.54,5.12,2.45,8.73.37,1.43.77,2.83,1.17,4.21h6.86L459,507.28H470.5a25,25,0,0,1,3.64-5.64H457.4l-3.64-13.57H554.27ZM593.12,502h-75c8,10.07,7.81,24.4-1.25,33.82h85.79ZM453.26,524.39a4.09,4.09,0,1,0,4.27,4.07A4.19,4.19,0,0,0,453.26,524.39ZM489,529.83l-.21,1.08C488.87,530.55,488.94,530.19,489,529.83Zm27.39-27.38c-7,3.17-10.9,7-13,14.92.52.14,1,.31,1.55.45.17-.55.37-1.12.55-1.67,4.87,3.69,7,8.88,8,13.66.57-.09,1-.21,1.6-.29-1.47-6.83-4.47-11.85-9.13-15a16,16,0,0,1,4.54-6.67c6.36,4.83,9.48,11.47,9.88,19.64l1.65,0c-.57-9.26-4.17-16-10.28-20.71a23.34,23.34,0,0,1,5.17-2.93,2.81,2.81,0,0,0-.42-.12c.32-.45.65-.88.95-1.33a2,2,0,0,0-.5-.1,2.93,2.93,0,0,0-.6.07Zm-74.11-21.09h-3.47l11.68,41.56a7.89,7.89,0,0,1,3.22-.59Zm38.3,35.87c1.37,2.31,3.87,3.93,7.71,4.74l.45-1.55c-3.32-.67-5.64-2-6.74-4l-1.42.81ZM496.85,508c-.6,0-1.12,0-1.55,0a6.76,6.76,0,0,1-1.37-.1.92.92,0,0,1-.32-.83.13.13,0,0,0-.2-.1.8.8,0,0,0-.25,1,1.36,1.36,0,0,0,.82.57,1.33,1.33,0,0,0,.3,0c.17,0,.37,0,.75,0s.65,0,.95,0l1,0-.05-.36q0-.1,0-.19Zm5.89-3.43a13.91,13.91,0,0,1,7.59-7q-.3-.75-.65-1.48a15.17,15.17,0,0,0-8.43,7.85l1.5.64Z" transform="translate(-418.5 -479.26)" style="fill:#fcdc04"/><path d="M498.25,504.37l.57,0a4.41,4.41,0,0,0,1.37,0c1.17-.07,1.5.43,1.32,1.21a1.35,1.35,0,0,0,0,.55,4.44,4.44,0,0,1,.3,2.83c-.35.81-.7,1.64-.4,2.19a3.41,3.41,0,0,1,.35,2.43c-.25,1.12-.87,2.43-.57,3.43.27.67.77,2.71,1.12,3.71a4.78,4.78,0,0,0,1,1.69,5.49,5.49,0,0,1,.7,1.38l-.57,0c.37,2.12.62,5.14,1.2,5.64,0,.14-.07.31-.12.45s-.27.21-.37.38a5.13,5.13,0,0,1-3.82,3.09v-.07c-.22-.57-.59-1.34-.94-2a8.85,8.85,0,0,0,1.76-1.33c-3-2.62-3.09-3.45-3.62-6.24,0-.12,0-.17-.12-.17h-.3c.25.9.47,1.81.72,2.69a6.82,6.82,0,0,0-3.37,5.4.72.72,0,0,1-.95.57,5,5,0,0,0-1.82-.33,7.36,7.36,0,0,1-2.87-1.1c.15-.74.27-1.45.42-2.19a2.17,2.17,0,0,0,.77.19.79.79,0,0,1,.5.21.55.55,0,0,0,.47.14c.15,0,.75.33.95.17-.55-4,.6-5.57,3.52-7.55.1,0,.15,0,.27,0l.35.36c.25.1.27-.07.12-.21a3.65,3.65,0,0,1-1.65-2.83s0-.14-.2,0c-4.32,1.45-5.12.88-8-1.5l.73-1.19.56-.87a4.38,4.38,0,0,1,1.78,1.68c.1.14.18.12.27,0,1.32-.76,2.67-1.45,4-2.12a1.15,1.15,0,0,1-.05-.26c-.3.17-.6.33-.9.48-3.39-2-5.31-1.74-6.41-6.24a.14.14,0,0,0,.1,0c.6-.32,1.15-.6,1.77-.91l.08,0a5.48,5.48,0,0,1,.9,2.19c-.05.07,0,.19.1.21,1.55.4,3.07.81,4.59,1.17a9,9,0,0,0-.85,1.67,10.28,10.28,0,0,0-.2,1.09h.27c.45-2.45,1-3.33,3.52-4.43,0-.17,0-.36,0-.52a2.58,2.58,0,0,1-1,0,2.12,2.12,0,0,0-.62-.1c-.6-.19-.4-.74-.1-.69a2.28,2.28,0,0,1,1.12.1,3.1,3.1,0,0,0,1,.1l-.07-.47a1.94,1.94,0,0,0-.05-.36l0-.22a4.33,4.33,0,0,1-.32-.36c-.75-.14-1.42-.31-2.15-.48a.5.5,0,0,1-.27-.14,3.07,3.07,0,0,1-.65-.9c-.12-.33,0-.52.45-.6s1.07-.14,1.62-.19a.57.57,0,0,0,.32-.14,3.31,3.31,0,0,1,2.37-.81h0Zm18.14-1.93a2.93,2.93,0,0,1,.6-.07,2,2,0,0,1,.5.1c-.3.45-.62.88-.95,1.33a2.81,2.81,0,0,1,.42.12,23.34,23.34,0,0,0-5.17,2.93c6.11,4.69,9.71,11.45,10.28,20.71l-1.65,0c-.4-8.16-3.52-14.81-9.88-19.64a16,16,0,0,0-4.54,6.67c4.67,3.12,7.66,8.14,9.13,15-.57.07-1,.19-1.6.29-1-4.78-3.17-10-8-13.66-.17.55-.37,1.12-.55,1.67-.5-.14-1-.31-1.55-.45,2.07-8,5.94-11.76,13-14.92Zm-35.81,14.78,1.42-.81c1.1,2,3.42,3.33,6.74,4l-.45,1.55C484.45,521.15,482,519.54,480.58,517.23Zm17-11a4.78,4.78,0,0,0-.57-.9.33.33,0,0,0-.45,0,1.63,1.63,0,0,0-.22.71.14.14,0,0,0,0,.14s.07.07.12.1.1,0,.15,0a.44.44,0,0,0,.1-.4l.15-.07a.64.64,0,0,1,.1.29v.12c0,.07,0,.12.15.12S497.4,506.25,497.58,506.23Zm2.35-.79c.2-.07.4-.17.6-.26,0,0,.15,0,.55,0V505a.14.14,0,0,0-.12-.17l-.27,0c-.22,0-.42,0-.5.12l-.35.38a.52.52,0,0,0,.1.12Zm2.82-.86-1.5-.64a15.17,15.17,0,0,1,8.43-7.85q.35.73.65,1.48A13.91,13.91,0,0,0,502.74,504.59Z" transform="translate(-418.5 -479.26)"/><path d="M496,494.15a30.17,30.17,0,0,1,3.74.25q.39,1.51.76,3l.21.87q.37,1.52.76,3c-5-1.52-11.53-.14-16,3.62-11.93,10.95-5.79,24.47,3.24,29.09,10.31,4.57,17.59.71,21.26-2.69.57,2.12,1.12,4.21,1.7,6.28-6.49,5.43-20.26,8-30.87.52-10.9-8-12.08-20.35-9-27.94a25.42,25.42,0,0,1,24.1-16.05H496ZM451.91,536h-7.14l-13.43-48.27h-8.23l-1.77-6.36h15.22l12,42.84c-3.12,3.14-2.2,8.64,2.87,10.21.15.52.3,1.07.45,1.57Zm102.36-47.91H453.76l3.64,13.57h16.74a25,25,0,0,0-3.64,5.64H459L466.73,536h-6.86c-.4-1.38-.8-2.78-1.17-4.21,2.1-3.62.75-7-2.45-8.73l-11.7-41.68H552.47Zm-54.92,43.3c.32.71.62,1.4.94,2.08-.24.13-.47.23-.67.32.12-.21.25-.43.35-.64-.25.17-.5.36-.75.55.17-.26.32-.52.47-.79-.3,0-.62.12-.92.19l.75-.69c-.27.1-.52.21-.77.31.15-.24.32-.45.47-.67a7.42,7.42,0,0,0-.75,0l.87-.71ZM569.75,504l2.71,0a8.22,8.22,0,0,1,1.1.07,2.88,2.88,0,0,1,2.74,2.12l6.21,22.64a10.59,10.59,0,0,1,.17,1.14v.83c-.15,1.71-1.27,2.43-3.09,2.38-2,0-4,0-6,0a4.24,4.24,0,0,0-.55,0c-1.6.14-3.19-1-4-3.69-2.2-7.19-4.64-15-6.09-22.28v-.69c.07-1.62,1.1-2.48,3-2.52l3.42,0h.4ZM535,533.25c-3.17,0-4.34-1.81-4.94-4.16l-6.79-25h6q3.52,12.89,7.06,25.73a.74.74,0,0,0,.75.62h2c.45,0,.65-.29.45-.88l-7-25.47h3.59q3.52,13.07,7.06,26.11c.67,2.43-.37,3.07-2.07,3.07H535Zm15,0h-3.67l-8-29.18h6.09l9.13,16-4.44-16h3.34l8,29.18h-6l-9.08-17.07L550,533.25Zm39.3,0h-3.64l-8.06-29.18h6.11l9.13,16-4.44-16h3.34l8,29.18h-6l-9.11-17.07,4.69,17.07Zm-21.93,0h-4.62l-8.09-29.18h4.62Zm-114.14-8.85a4.09,4.09,0,1,1-4.29,4.07A4.19,4.19,0,0,1,453.26,524.39Zm35.53,6.52-.65,0,.57-.45-.92-.24.95-.36-.75-.43.85-.12-.72-.59,1,.07-.6-.31.72.19-.42,2.19Zm84.77-18.42q-.75-2.75-1.52-5.5c0-.21-.22-.24-.42-.24l-2.25,0c-.47,0-.57.21-.52.64,1.2,5.78,3,11.95,4.72,18,.25.86.47,1.74.7,2.59.35,1.17.9,2.31,1.82,2.36h1.57c.5,0,.7-.26.62-.69-1.6-5.76-3.14-11.43-4.72-17.16Zm-87.19,5.21-.27-.21s-.37-.21-.55-.33,0-.14.07-.17l.52,0-.6-.31a.39.39,0,0,1,0-.17l.67,0a5.29,5.29,0,0,1-.55-.4c-.1-.17.07-.24.15-.19a3.83,3.83,0,0,0,.72,0l-.47-.45a.53.53,0,0,1,.1-.12c.22.07.47.17.7.26l-.3-.45s0,0,.1-.09a7.6,7.6,0,0,1,1,.59l0,0-.55.85.55-.85v0l-.56.87,0,0q-.35.55-.68,1.11l0,0Zm1.92-9.62a.45.45,0,0,1,0,.17c-.65.33-1.3.64-1.95,1a7.42,7.42,0,0,1-.65-.38c-.12-.12,0-.26.15-.19l.55.14h.1a3.4,3.4,0,0,0-.67-.67l.07-.14.65.29-.37-.57.12-.1a5,5,0,0,0,.85.76,5.65,5.65,0,0,0-.35-1.09l.15-.07a5.63,5.63,0,0,0,.7,1,4.65,4.65,0,0,0-.52-.86c-.1-.21.17-.24.25-.19A4.28,4.28,0,0,1,488.29,508.09Zm8.56-.07c0,.06,0,.13,0,.19l.05.36-1,0c-.3,0-.62,0-.95,0s-.57,0-.75,0a1.33,1.33,0,0,1-.3,0,1.36,1.36,0,0,1-.82-.57.8.8,0,0,1,.25-1,.13.13,0,0,1,.2.1.92.92,0,0,0,.32.83,6.76,6.76,0,0,0,1.37.1c.42,0,.95,0,1.55,0Z" transform="translate(-418.5 -479.26)" style="fill:#ec1c24"/></svg>