<svg id="Layer_1" data-name="Layer 1" xmlns="http://www.w3.org/2000/svg" width="80" height="120" viewBox="0 0 80 120"><title>SV Werder Bremen logo - Brandlogos.net</title><polygon points="40 0 0 60 40 120 80 60 40 0" style="fill:#009655"/><path d="M362.37,375.76a22.77,22.77,0,0,1,2.14-10.24c1.22-2.43,3.54-4.86,7.14-4.67,1.3.07,5.28,1,5.3,5.41,0,2.06-1.23,5.83-6.8,5.83,0,0-.69,5.52-.69,8.4,0,2.55.05,14,4.29,23L383.88,381l9.65,22.55s4.11-10,4.11-18.6-2.37-14.23-4.35-17.26c-2.83-4.34-6.47-5.85-8.15-5.73a6.45,6.45,0,0,1-4.62,1.59,5.64,5.64,0,0,1-5.51-5.77v0a9.14,9.14,0,0,1,4.39-7.22c2.67-1.7,7-1.46,9.87-.56,4.63,1.44,8.61,6.49,10.66,10.16,1.94,3.47,4,10.42,4,19.5,0,7.55-2.73,19-6.23,27.78a104.92,104.92,0,0,1-5.44,12l-8.34-16.85-8.28,16.86s-7.93-16.73-10-24.38a97.77,97.77,0,0,1-3.22-19.34" transform="translate(-344 -324)" style="fill:#fff"/><path d="M384,327.44,346.29,384,384,440.55,421.7,384ZM383.95,436l-34.59-52,34.59-52.45L418.53,384Z" transform="translate(-344 -324)" style="fill:#fff"/></svg>