<svg xmlns="http://www.w3.org/2000/svg" viewBox="0 0 183.32 183.1"><title>VfL Wolfsburg logo</title><path d="M420.35,512C422.18,455,461.3,431.81,487,423.72c11.75-3.73,22-3.82,22-2.49s-8.78.2-21.31,4.7c-21.72,7.85-52.51,27.37-54.39,77.33q0,4.09.4,8.16t1.2,8.08q.8,4,2,7.92t2.75,7.69q1.57,3.78,3.49,7.38t4.2,7q2.27,3.4,4.87,6.56t5.49,6.05q2.89,2.89,6.05,5.48t6.56,4.86q3.4,2.27,7,4.2t7.38,3.49q3.78,1.56,7.69,2.75t7.92,2q4,.8,8.08,1.2t8.16.4q4.09,0,8.16-.4t8.08-1.2q4-.8,7.92-2t7.69-2.75q3.78-1.56,7.38-3.49t7-4.2q3.4-2.27,6.56-4.86t6.05-5.48q2.89-2.89,5.49-6.05t4.87-6.56q2.27-3.4,4.2-7t3.49-7.38q1.57-3.78,2.75-7.69t2-7.92q.8-4,1.2-8.08t.4-8.16a71.27,71.27,0,0,0-3.86-24.36c-3.91-11.81-8.93-17.28-6.76-17.33,1.51,0,6,9.24,9.2,17.89,3.67,10.07,5.36,19.22,5.33,32.43q0,4.5-.44,9t-1.32,8.9q-.88,4.42-2.19,8.73t-3,8.47q-1.72,4.16-3.85,8.13t-4.62,7.72q-2.5,3.74-5.36,7.22t-6,6.66q-3.18,3.18-6.66,6t-7.22,5.36q-3.74,2.5-7.72,4.62t-8.13,3.85q-4.16,1.72-8.47,3t-8.73,2.19q-4.42.88-8.9,1.32t-9,.44q-4.5,0-9-.44t-8.9-1.32q-4.42-.88-8.73-2.19t-8.47-3q-4.16-1.72-8.13-3.85t-7.72-4.62q-3.74-2.5-7.22-5.36t-6.66-6q-3.18-3.18-6-6.66t-5.36-7.22q-2.5-3.74-4.62-7.72T427.32,547q-1.72-4.16-3-8.47t-2.19-8.73q-.88-4.42-1.32-8.9t-.44-9Z" transform="translate(-420.34 -420.45)" style="fill:#64b42d"/><path d="M502.89,483.12c0-16.29,26.71-14.74,26.71-14.74v58.08c0,4.06,2.56,6.51,7.19,6.51,7.37,0,6.87-6.51,6.87-6.51V466.74c0-14.58,26.54-14.58,26.54-14.58v77.28l-.11,4.79A30.43,30.43,0,0,1,540.23,560a29.72,29.72,0,0,1-24-12.26,29.71,29.71,0,0,1-24,12.26,30.16,30.16,0,0,1-29.61-25.77l-.37-4.79V466.71c0-14.58,26.58-14.58,26.58-14.58v74.36c0,4.11,2.91,6.5,6.88,6.5s7.25-2.49,7.25-6.5V483.14Z" transform="translate(-420.34 -420.45)" style="fill:#64b42d"/></svg>